<?xml version="1.0" encoding="UTF-8"?><svg id="a" xmlns="http://www.w3.org/2000/svg" viewBox="0 0 620 356.47"><defs><style>.b{fill:#e6e6e6;}.c{fill:#fff;}.d{fill:#999;}.e,.f{fill:#af2a22;}.g{fill:#4c4c61;}.h,.i{fill:#7a190f;}.j{fill:#4d4d4d;}.f,.i{stroke:#e6e6e6;stroke-miterlimit:10;}.k{isolation:isolate;}</style></defs><g><circle class="b" cx="280.99" cy="189.92" r="117.25" transform="translate(-2 376.85) rotate(-67.5)"/><path class="b" d="M280.99,73.17c31.19,0,60.5,12.14,82.56,34.2,22.05,22.05,34.2,51.37,34.2,82.56s-12.14,60.5-34.2,82.56c-22.05,22.05-51.37,34.2-82.56,34.2s-60.5-12.14-82.56-34.2c-22.05-22.05-34.2-51.37-34.2-82.56s12.14-60.5,34.2-82.56c22.05-22.05,51.37-34.2,82.56-34.2m0-1c-65.03,0-117.75,52.72-117.75,117.75s52.72,117.75,117.75,117.75,117.75-52.72,117.75-117.75-52.72-117.75-117.75-117.75h0Z"/></g><path class="f" d="M280.99,189.92l115.52-22.79c-5.28-26.75-19.69-50.86-40.75-68.17s-47.5-26.79-74.77-26.79v117.75Z"/><path class="i" d="M280.99,189.92l96.09,68.06c9.22-13.03,15.71-27.79,19.05-43.4,3.34-15.61,3.48-31.73,.39-47.39l-115.54,22.74Z"/><g class="k"><path d="M10.85,11.98c.88,.66,1.32,1.65,1.32,2.97s-.45,2.42-1.33,3.1c-.89,.69-2.07,1.04-3.55,1.04h-1.46v4.34H3.46V10.99h3.67c1.6,0,2.84,.33,3.72,.99Zm-1.81,4.8c.43-.35,.65-.96,.65-1.83,0-1.48-.86-2.21-2.57-2.21h-1.28v4.57h1.28c.85,0,1.49-.18,1.93-.53Z"/><path d="M19.32,13.78l-.4,2.23c-.29-.07-.57-.11-.85-.11-.56,0-1.01,.2-1.33,.6s-.58,1.02-.77,1.84v5.08h-2.3V13.91h2l.21,1.87c.23-.68,.56-1.21,.99-1.58,.43-.37,.93-.55,1.49-.55,.35,0,.67,.04,.96,.13Z"/><path d="M27.39,14.98c.79,.89,1.18,2.12,1.18,3.68,0,1-.18,1.88-.54,2.64s-.88,1.35-1.55,1.77c-.67,.42-1.47,.63-2.39,.63-1.4,0-2.5-.45-3.29-1.34-.79-.89-1.19-2.13-1.19-3.7,0-1,.18-1.87,.54-2.63,.36-.76,.88-1.34,1.56-1.76,.68-.42,1.48-.63,2.4-.63,1.4,0,2.5,.45,3.29,1.34Zm-5.36,3.68c0,1.13,.17,1.96,.51,2.49s.86,.8,1.54,.8,1.2-.27,1.54-.81,.51-1.37,.51-2.48-.17-1.94-.51-2.48c-.34-.53-.85-.8-1.52-.8-1.38,0-2.07,1.09-2.07,3.28Z"/><path d="M38.27,13.91l-3.1,9.52h-2.75l-3.15-9.52h2.5l2.04,7.67,2.09-7.67h2.38Z"/><path d="M46.76,14.98c.79,.89,1.18,2.12,1.18,3.68,0,1-.18,1.88-.54,2.64-.36,.76-.88,1.35-1.55,1.77s-1.47,.63-2.39,.63c-1.4,0-2.5-.45-3.29-1.34-.79-.89-1.19-2.13-1.19-3.7,0-1,.18-1.87,.54-2.63s.88-1.34,1.56-1.76c.68-.42,1.48-.63,2.4-.63,1.4,0,2.5,.45,3.28,1.34Zm-5.35,3.68c0,1.13,.17,1.96,.51,2.49s.86,.8,1.54,.8,1.2-.27,1.54-.81,.51-1.37,.51-2.48-.17-1.94-.51-2.48c-.34-.53-.85-.8-1.52-.8-1.38,0-2.07,1.09-2.07,3.28Z"/><path d="M56.15,13.91v1.66l-4.61,6.07h4.7l-.23,1.8h-7.11v-1.66l4.62-6.07h-4.23v-1.8h6.86Z"/><path d="M65.06,14.98c.79,.89,1.18,2.12,1.18,3.68,0,1-.18,1.88-.54,2.64s-.88,1.35-1.55,1.77c-.67,.42-1.47,.63-2.39,.63-1.4,0-2.5-.45-3.29-1.34-.79-.89-1.19-2.13-1.19-3.7,0-1,.18-1.87,.54-2.63,.36-.76,.88-1.34,1.56-1.76,.68-.42,1.48-.63,2.4-.63,1.4,0,2.5,.45,3.29,1.34Zm-5.36,3.68c0,1.13,.17,1.96,.51,2.49s.86,.8,1.54,.8,1.2-.27,1.54-.81,.51-1.37,.51-2.48-.17-1.94-.51-2.48c-.34-.53-.85-.8-1.52-.8-1.38,0-2.07,1.09-2.07,3.28Z"/><path d="M75.94,13.91l-3.1,9.52h-2.75l-3.15-9.52h2.5l2.04,7.67,2.09-7.67h2.38Z"/><path d="M84.23,21.73c.11,.17,.3,.31,.55,.41l-.49,1.53c-.54-.05-.98-.18-1.32-.4-.34-.22-.6-.55-.78-.99-.32,.48-.73,.84-1.21,1.07s-1.03,.35-1.63,.35c-.95,0-1.7-.27-2.25-.81-.55-.54-.83-1.25-.83-2.12,0-1.03,.38-1.82,1.12-2.37,.75-.55,1.82-.82,3.21-.82h1.19v-.54c0-.61-.14-1.04-.42-1.29-.28-.25-.74-.37-1.36-.37-.7,0-1.54,.17-2.52,.5l-.54-1.57c1.19-.46,2.34-.68,3.46-.68,2.44,0,3.65,1.09,3.65,3.28v4c0,.37,.06,.65,.17,.82Zm-2.44-13.06l.94,1.8-4.07,1.62-.65-1.17,3.78-2.25Zm0,12.19v-1.93h-.95c-1.49,0-2.23,.55-2.23,1.66,0,.46,.11,.81,.34,1.06,.23,.25,.56,.38,1.01,.38,.78,0,1.39-.39,1.84-1.17Z"/><path d="M93.92,14.4c.47,.51,.71,1.22,.71,2.13v6.89h-2.3v-6.53c0-.56-.1-.96-.3-1.19-.2-.23-.49-.34-.87-.34s-.75,.12-1.07,.37-.63,.6-.93,1.07v6.62h-2.3V13.91h2l.18,1.24c.78-1.01,1.75-1.51,2.9-1.51,.85,0,1.51,.25,1.99,.77Z"/><path d="M99.83,8.67l.94,1.8-4.07,1.62-.65-1.17,3.78-2.25Zm-.22,5.24v9.52h-2.3V13.91h2.3Z"/><path d="M114.41,14.96c.62,.88,.94,2.12,.94,3.7,0,.98-.15,1.86-.46,2.62s-.74,1.36-1.3,1.78c-.56,.43-1.23,.64-2,.64-.52,0-.99-.11-1.41-.32-.43-.22-.79-.52-1.11-.92l-.14,.97h-2.04V10.09l2.3-.25v5.15c.31-.43,.69-.77,1.14-1,.45-.23,.95-.35,1.49-.35,1.1,0,1.97,.44,2.59,1.32Zm-2,6.21c.35-.53,.52-1.37,.52-2.51,0-1.2-.16-2.05-.49-2.55s-.78-.75-1.37-.75c-.73,0-1.36,.43-1.89,1.3v4.21c.2,.35,.46,.62,.77,.81,.3,.19,.64,.29,1,.29,.62,0,1.11-.27,1.46-.8Z"/><path d="M125.23,23.43h-2l-.12-1.33c-.35,.54-.76,.94-1.23,1.21-.47,.26-1.03,.4-1.68,.4-.85,0-1.51-.26-1.97-.78-.46-.52-.69-1.24-.69-2.17v-6.84h2.3v6.55c0,.54,.09,.92,.28,1.15s.48,.34,.89,.34c.73,0,1.38-.45,1.93-1.35v-6.7h2.3v9.52Z"/><path d="M136.01,10.09v13.34h-2.04l-.16-1.21c-.3,.46-.68,.82-1.14,1.08-.46,.26-.99,.4-1.57,.4-1.16,0-2.06-.45-2.68-1.35-.62-.9-.94-2.12-.94-3.67,0-.97,.16-1.84,.47-2.6,.31-.76,.76-1.36,1.34-1.79s1.26-.65,2.03-.65c.91,0,1.71,.34,2.39,1.03v-4.82l2.3,.25Zm-3.19,11.56c.31-.2,.61-.51,.88-.93v-4.36c-.28-.34-.55-.59-.84-.76-.28-.17-.61-.25-.98-.25-.61,0-1.1,.27-1.45,.82-.35,.55-.53,1.37-.53,2.48,0,1.18,.16,2.02,.47,2.53,.31,.51,.77,.77,1.37,.77,.41,0,.77-.1,1.08-.3Z"/><path d="M145.95,14.98c.79,.89,1.18,2.12,1.18,3.68,0,1-.18,1.88-.54,2.64-.36,.76-.88,1.35-1.55,1.77s-1.47,.63-2.39,.63c-1.4,0-2.5-.45-3.29-1.34-.79-.89-1.19-2.13-1.19-3.7,0-1,.18-1.87,.54-2.63s.88-1.34,1.56-1.76c.68-.42,1.48-.63,2.4-.63,1.4,0,2.5,.45,3.28,1.34Zm-5.35,3.68c0,1.13,.17,1.96,.51,2.49s.86,.8,1.54,.8,1.2-.27,1.54-.81,.51-1.37,.51-2.48-.17-1.94-.51-2.48c-.34-.53-.85-.8-1.52-.8-1.38,0-2.07,1.09-2.07,3.28Z"/><path d="M156.84,13.91l-3.1,9.52h-2.76l-3.15-9.52h2.5l2.03,7.67,2.09-7.67h2.38Z"/><path d="M168.21,22.98c-.34,.24-.71,.42-1.12,.54-.41,.12-.84,.18-1.27,.18-.94-.01-1.65-.28-2.13-.8-.49-.52-.73-1.29-.73-2.31v-5.02h-1.49v-1.66h1.49v-2.11l2.3-.27v2.38h2.21l-.23,1.66h-1.98v4.97c0,.47,.08,.8,.24,1.01,.16,.2,.42,.31,.77,.31s.72-.11,1.13-.34l.81,1.48Z"/><path d="M177.07,13.91l-3.1,9.52h-2.75l-3.15-9.52h2.5l2.04,7.67,2.09-7.67h2.38Z"/><path d="M185.56,14.98c.79,.89,1.18,2.12,1.18,3.68,0,1-.18,1.88-.54,2.64s-.88,1.35-1.55,1.77c-.67,.42-1.47,.63-2.39,.63-1.4,0-2.5-.45-3.29-1.34-.79-.89-1.19-2.13-1.19-3.7,0-1,.18-1.87,.54-2.63,.36-.76,.88-1.34,1.56-1.76,.68-.42,1.48-.63,2.4-.63,1.4,0,2.5,.45,3.29,1.34Zm-5.36,3.68c0,1.13,.17,1.96,.51,2.49s.86,.8,1.54,.8,1.2-.27,1.54-.81,.51-1.37,.51-2.48-.17-1.94-.51-2.48c-.34-.53-.85-.8-1.52-.8-1.38,0-2.07,1.09-2.07,3.28Z"/><path d="M194.1,9.03l.88,1.01-2.5,2.25h-1.44l-2.5-2.25,.88-1.01,2.34,1.58,2.34-1.58Zm.45,4.75l-.4,2.23c-.29-.07-.57-.11-.85-.11-.56,0-1.01,.2-1.33,.6s-.58,1.02-.77,1.84v5.08h-2.3V13.91h2l.22,1.87c.23-.68,.56-1.21,.99-1.58,.43-.37,.93-.55,1.49-.55,.35,0,.67,.04,.95,.13Z"/><path d="M198.17,9.49c.27,.27,.4,.6,.4,1s-.13,.73-.4,.99c-.27,.26-.62,.4-1.05,.4s-.77-.13-1.04-.4c-.27-.26-.4-.59-.4-.99s.13-.73,.4-1,.62-.41,1.04-.41,.78,.14,1.05,.41Zm.12,4.42v9.52h-2.3V13.91h2.3Z"/><path d="M201.59,23.06c-.41-.43-.62-1.03-.62-1.81V10.09l2.3-.25v11.34c0,.44,.18,.67,.54,.67,.18,0,.36-.03,.54-.09l.49,1.62c-.48,.22-.99,.32-1.53,.32-.73,0-1.3-.21-1.72-.64Z"/><path d="M213.45,14.98c.79,.89,1.18,2.12,1.18,3.68,0,1-.18,1.88-.54,2.64-.36,.76-.88,1.35-1.55,1.77s-1.47,.63-2.39,.63c-1.4,0-2.5-.45-3.29-1.34-.79-.89-1.19-2.13-1.19-3.7,0-1,.18-1.87,.54-2.63s.88-1.34,1.56-1.76c.68-.42,1.48-.63,2.4-.63,1.4,0,2.5,.45,3.28,1.34Zm-5.35,3.68c0,1.13,.17,1.96,.51,2.49s.86,.8,1.54,.8,1.2-.27,1.54-.81,.51-1.37,.51-2.48-.17-1.94-.51-2.48c-.34-.53-.85-.8-1.52-.8-1.38,0-2.07,1.09-2.07,3.28Z"/><path d="M228.94,13.91l-3.1,9.52h-2.75l-3.15-9.52h2.5l2.04,7.67,2.09-7.67h2.38Z"/><path d="M240.52,13.78l-.4,2.23c-.29-.07-.57-.11-.85-.11-.56,0-1.01,.2-1.33,.6s-.58,1.02-.77,1.84v5.08h-2.3V13.91h2l.21,1.87c.23-.68,.56-1.21,.99-1.58,.43-.37,.93-.55,1.49-.55,.35,0,.67,.04,.96,.13Z"/><path d="M248.59,14.98c.79,.89,1.18,2.12,1.18,3.68,0,1-.18,1.88-.54,2.64s-.88,1.35-1.55,1.77c-.67,.42-1.47,.63-2.39,.63-1.4,0-2.5-.45-3.29-1.34-.79-.89-1.19-2.13-1.19-3.7,0-1,.18-1.87,.54-2.63,.36-.76,.88-1.34,1.56-1.76,.68-.42,1.48-.63,2.4-.63,1.4,0,2.5,.45,3.29,1.34Zm-5.36,3.68c0,1.13,.17,1.96,.51,2.49s.86,.8,1.54,.8,1.2-.27,1.54-.81,.51-1.37,.51-2.48-.17-1.94-.51-2.48c-.34-.53-.85-.8-1.52-.8-1.38,0-2.07,1.09-2.07,3.28Z"/><path d="M257.45,13.91c.5,.18,.97,.46,1.41,.85l-1.03,1.39c-.32-.24-.64-.41-.94-.52-.3-.11-.63-.16-.99-.16-1.43,0-2.14,1.09-2.14,3.26,0,1.1,.19,1.9,.56,2.38,.37,.49,.9,.73,1.58,.73,.34,0,.64-.05,.93-.16,.28-.11,.62-.28,1-.52l1.03,1.46c-.9,.73-1.93,1.1-3.08,1.1-.91,0-1.7-.2-2.38-.6-.67-.4-1.19-.97-1.55-1.72s-.54-1.62-.54-2.63,.18-1.9,.54-2.67,.88-1.37,1.55-1.8c.67-.43,1.46-.64,2.36-.64,.62,0,1.19,.09,1.68,.27Z"/><path d="M267.93,19.38h-5.98c.07,.92,.31,1.58,.72,1.98s.95,.59,1.62,.59c.42,0,.82-.07,1.19-.21,.37-.14,.77-.35,1.19-.64l.95,1.31c-1.05,.85-2.23,1.28-3.53,1.28-1.45,0-2.57-.44-3.36-1.33-.79-.89-1.18-2.1-1.18-3.64,0-.97,.17-1.84,.5-2.62s.82-1.38,1.46-1.82,1.39-.66,2.27-.66c1.33,0,2.37,.42,3.1,1.27,.73,.85,1.1,2.02,1.1,3.54,0,.12-.02,.43-.05,.94Zm-2.23-1.6c0-1.67-.62-2.5-1.85-2.5-.56,0-1.01,.21-1.32,.62-.32,.41-.51,1.08-.57,1.99h3.74v-.11Z"/><path d="M279.48,11.55c.59,.3,1.05,.71,1.36,1.22,.31,.52,.47,1.09,.47,1.73,0,.68-.15,1.34-.44,1.97-.29,.63-.78,1.33-1.47,2.1-.68,.77-1.69,1.78-3.01,3.04h5.19l-.25,1.82h-7.54v-1.69c1.54-1.56,2.64-2.71,3.3-3.47,.67-.75,1.14-1.39,1.42-1.93,.28-.53,.42-1.09,.42-1.67s-.16-.98-.48-1.3c-.32-.31-.74-.47-1.27-.47-.47,0-.88,.1-1.23,.3-.36,.2-.72,.52-1.11,.98l-1.4-1.12c1.02-1.32,2.33-1.98,3.92-1.98,.82,0,1.52,.15,2.12,.45Z"/><path d="M290.67,12.72c.74,1.08,1.11,2.63,1.11,4.66s-.37,3.6-1.11,4.69-1.81,1.63-3.23,1.63-2.49-.54-3.23-1.63-1.11-2.65-1.11-4.69,.37-3.58,1.11-4.66,1.81-1.62,3.23-1.62,2.49,.54,3.23,1.62Zm-4.72,1.16c-.31,.69-.47,1.86-.47,3.5s.16,2.83,.47,3.53c.31,.7,.81,1.04,1.49,1.04s1.18-.34,1.49-1.04c.31-.69,.47-1.87,.47-3.54s-.16-2.83-.47-3.51-.81-1.03-1.49-1.03-1.18,.35-1.49,1.04Z"/><path d="M298.58,11.32v12.11h-2.27V13.64l-2.7,1.64-1.01-1.55,3.94-2.41h2.03Z"/><path d="M307.94,15.82c.52,.31,.93,.76,1.23,1.35,.3,.59,.45,1.3,.45,2.13s-.17,1.59-.52,2.26-.84,1.19-1.47,1.57c-.63,.38-1.35,.57-2.15,.57-1.49,0-2.59-.52-3.3-1.57-.71-1.04-1.07-2.48-1.07-4.3,0-1.34,.2-2.52,.6-3.54,.4-1.01,.98-1.8,1.73-2.36,.75-.56,1.63-.84,2.64-.84s1.88,.26,2.64,.77l-.86,1.42c-.55-.32-1.13-.49-1.75-.49-.77,0-1.38,.35-1.85,1.04-.46,.69-.72,1.64-.78,2.85,.73-.89,1.64-1.33,2.72-1.33,.64,0,1.21,.15,1.74,.46Zm-1.1,5.45c.31-.47,.46-1.12,.46-1.94s-.14-1.42-.42-1.77c-.28-.35-.69-.53-1.23-.53-.41,0-.79,.11-1.16,.33-.37,.22-.69,.53-.98,.91,.02,1.31,.19,2.25,.49,2.83s.8,.87,1.48,.87c.6,0,1.05-.24,1.36-.71Z"/><path d="M323.73,13.91l-3.1,9.52h-2.75l-3.15-9.52h2.5l2.04,7.67,2.09-7.67h2.38Z"/><path d="M327.67,8.67l.94,1.8-4.07,1.62-.65-1.17,3.78-2.25Zm-.22,5.24v9.52h-2.3V13.91h2.3Z"/><path d="M335.75,13.91c.5,.18,.97,.46,1.41,.85l-1.03,1.39c-.32-.24-.64-.41-.94-.52-.3-.11-.63-.16-.99-.16-1.43,0-2.14,1.09-2.14,3.26,0,1.1,.19,1.9,.56,2.38,.37,.49,.9,.73,1.58,.73,.34,0,.64-.05,.93-.16,.28-.11,.62-.28,1-.52l1.03,1.46c-.9,.73-1.93,1.1-3.08,1.1-.91,0-1.7-.2-2.38-.6-.67-.4-1.19-.97-1.55-1.72s-.54-1.62-.54-2.63,.18-1.9,.54-2.67,.88-1.37,1.55-1.8c.67-.43,1.46-.64,2.36-.64,.62,0,1.19,.09,1.68,.27Z"/><path d="M346.23,19.38h-5.98c.07,.92,.31,1.58,.72,1.98s.95,.59,1.62,.59c.42,0,.82-.07,1.19-.21,.37-.14,.77-.35,1.19-.64l.95,1.31c-1.05,.85-2.23,1.28-3.53,1.28-1.45,0-2.57-.44-3.36-1.33-.79-.89-1.18-2.1-1.18-3.64,0-.97,.17-1.84,.5-2.62s.82-1.38,1.46-1.82,1.39-.66,2.27-.66c1.33,0,2.37,.42,3.1,1.27,.73,.85,1.1,2.02,1.1,3.54,0,.12-.02,.43-.05,.94Zm-2.23-1.6c0-1.67-.62-2.5-1.85-2.5-.56,0-1.01,.21-1.32,.62-.32,.41-.51,1.08-.57,1.99h3.74v-.11Z"/><path d="M359.92,14.4c.47,.51,.71,1.22,.71,2.13v6.89h-2.3v-6.53c0-.56-.1-.96-.3-1.19-.2-.23-.49-.34-.87-.34s-.75,.12-1.07,.37-.63,.6-.93,1.07v6.62h-2.3V13.91h2l.18,1.24c.78-1.01,1.75-1.51,2.9-1.51,.85,0,1.51,.25,1.99,.77Z"/><path d="M371.07,19.38h-5.98c.07,.92,.31,1.58,.72,1.98s.95,.59,1.62,.59c.42,0,.82-.07,1.19-.21,.37-.14,.77-.35,1.19-.64l.95,1.31c-1.05,.85-2.23,1.28-3.53,1.28-1.45,0-2.57-.44-3.36-1.33-.79-.89-1.18-2.1-1.18-3.64,0-.97,.17-1.84,.5-2.62s.82-1.38,1.46-1.82,1.39-.66,2.27-.66c1.33,0,2.37,.42,3.1,1.27,.73,.85,1.1,2.02,1.1,3.54,0,.12-.02,.43-.05,.94Zm-2.23-1.6c0-1.67-.62-2.5-1.85-2.5-.56,0-1.01,.21-1.32,.62-.32,.41-.51,1.08-.57,1.99h3.74v-.11Z"/><path d="M379.24,13.91v1.66l-4.61,6.07h4.7l-.23,1.8h-7.11v-1.66l4.63-6.07h-4.23v-1.8h6.86Zm-1.17-4.88l.88,1.01-2.5,2.25h-1.44l-2.5-2.25,.88-1.01,2.34,1.58,2.34-1.58Z"/><path d="M391.09,22.98c-.34,.24-.71,.42-1.12,.54-.41,.12-.84,.18-1.27,.18-.94-.01-1.65-.28-2.13-.8-.49-.52-.73-1.29-.73-2.31v-5.02h-1.49v-1.66h1.49v-2.11l2.3-.27v2.38h2.21l-.23,1.66h-1.98v4.97c0,.47,.08,.8,.24,1.01,.16,.2,.42,.31,.77,.31s.73-.11,1.13-.34l.81,1.48Z"/><path d="M397.58,9.03l.88,1.01-2.5,2.25h-1.44l-2.5-2.25,.88-1.01,2.34,1.58,2.34-1.58Zm.45,4.75l-.4,2.23c-.29-.07-.57-.11-.85-.11-.56,0-1.01,.2-1.33,.6s-.58,1.02-.77,1.84v5.08h-2.3V13.91h2l.21,1.87c.23-.68,.56-1.21,.99-1.58,.43-.37,.93-.55,1.49-.55,.35,0,.67,.04,.96,.13Z"/><path d="M406.69,19.38h-5.97c.07,.92,.31,1.58,.72,1.98s.95,.59,1.62,.59c.42,0,.82-.07,1.19-.21,.37-.14,.77-.35,1.19-.64l.96,1.31c-1.06,.85-2.23,1.28-3.53,1.28-1.45,0-2.57-.44-3.36-1.33-.79-.89-1.18-2.1-1.18-3.64,0-.97,.17-1.84,.5-2.62s.82-1.38,1.46-1.82c.63-.44,1.39-.66,2.27-.66,1.33,0,2.36,.42,3.1,1.27s1.1,2.02,1.1,3.54c0,.12-.02,.43-.05,.94Zm-2.23-1.6c0-1.67-.62-2.5-1.86-2.5-.56,0-1,.21-1.32,.62-.32,.41-.51,1.08-.57,1.99h3.74v-.11Z"/><path d="M414.27,22.98c-.34,.24-.71,.42-1.12,.54-.41,.12-.84,.18-1.27,.18-.94-.01-1.65-.28-2.13-.8-.49-.52-.73-1.29-.73-2.31v-5.02h-1.49v-1.66h1.49v-2.11l2.3-.27v2.38h2.21l-.23,1.66h-1.98v4.97c0,.47,.08,.8,.24,1.01,.16,.2,.42,.31,.77,.31s.73-.11,1.13-.34l.81,1.48Z"/><path d="M417.75,9.49c.27,.27,.4,.6,.4,1s-.13,.73-.4,.99c-.27,.26-.62,.4-1.05,.4s-.76-.13-1.03-.4c-.27-.26-.41-.59-.41-.99s.13-.73,.41-1c.27-.27,.61-.41,1.03-.41s.78,.14,1.05,.41Zm.12,4.42v9.52h-2.3V13.91h2.3Z"/><path d="M427.71,14.4c.47,.51,.71,1.22,.71,2.13v6.89h-2.3v-6.53c0-.56-.1-.96-.3-1.19-.2-.23-.49-.34-.87-.34s-.75,.12-1.07,.37-.63,.6-.93,1.07v6.62h-2.3V13.91h2l.18,1.24c.78-1.01,1.75-1.51,2.9-1.51,.85,0,1.51,.25,1.99,.77Z"/><path d="M438.72,23.43h-2l-.13-1.33c-.35,.54-.76,.94-1.23,1.21s-1.04,.4-1.68,.4c-.85,0-1.51-.26-1.97-.78-.46-.52-.69-1.24-.69-2.17v-6.84h2.3v6.55c0,.54,.09,.92,.28,1.15,.19,.23,.48,.34,.89,.34,.73,0,1.37-.45,1.93-1.35v-6.7h2.3v9.52Z"/><path d="M453.05,14.4c.47,.51,.71,1.22,.71,2.13v6.89h-2.3v-6.53c0-.56-.1-.96-.3-1.19-.2-.23-.49-.34-.87-.34s-.75,.12-1.07,.37-.63,.6-.93,1.07v6.62h-2.3V13.91h2l.18,1.24c.78-1.01,1.75-1.51,2.9-1.51,.85,0,1.51,.25,1.99,.77Z"/><path d="M463.65,21.73c.12,.17,.3,.31,.55,.41l-.48,1.53c-.54-.05-.98-.18-1.32-.4-.34-.22-.6-.55-.78-.99-.32,.48-.73,.84-1.21,1.07s-1.03,.35-1.63,.35c-.95,0-1.7-.27-2.25-.81-.55-.54-.83-1.25-.83-2.12,0-1.03,.38-1.82,1.12-2.37,.75-.55,1.82-.82,3.21-.82h1.19v-.54c0-.61-.14-1.04-.42-1.29s-.73-.37-1.36-.37c-.7,0-1.54,.17-2.52,.5l-.54-1.57c1.19-.46,2.34-.68,3.46-.68,2.44,0,3.65,1.09,3.65,3.28v4c0,.37,.06,.65,.17,.82Zm-2.44-13.06l.94,1.8-4.07,1.62-.65-1.17,3.78-2.25Zm0,12.19v-1.93h-.96c-1.49,0-2.23,.55-2.23,1.66,0,.46,.12,.81,.34,1.06,.23,.25,.56,.38,1.01,.38,.78,0,1.39-.39,1.84-1.17Z"/><path d="M471.92,13.78l-.4,2.23c-.29-.07-.57-.11-.85-.11-.56,0-1.01,.2-1.33,.6s-.58,1.02-.77,1.84v5.08h-2.3V13.91h2l.22,1.87c.23-.68,.56-1.21,.99-1.58,.43-.37,.93-.55,1.49-.55,.35,0,.67,.04,.95,.13Z"/><path d="M480,14.98c.79,.89,1.18,2.12,1.18,3.68,0,1-.18,1.88-.54,2.64-.36,.76-.88,1.35-1.55,1.77s-1.47,.63-2.39,.63c-1.4,0-2.5-.45-3.29-1.34-.79-.89-1.19-2.13-1.19-3.7,0-1,.18-1.87,.54-2.63s.88-1.34,1.56-1.76c.68-.42,1.48-.63,2.4-.63,1.4,0,2.5,.45,3.28,1.34Zm-5.35,3.68c0,1.13,.17,1.96,.51,2.49s.86,.8,1.54,.8,1.2-.27,1.54-.81,.51-1.37,.51-2.48-.17-1.94-.51-2.48c-.34-.53-.85-.8-1.52-.8-1.38,0-2.07,1.09-2.07,3.28Z"/><path d="M491.35,10.09v13.34h-2.03l-.16-1.21c-.3,.46-.68,.82-1.14,1.08-.46,.26-.99,.4-1.57,.4-1.16,0-2.06-.45-2.68-1.35-.62-.9-.94-2.12-.94-3.67,0-.97,.15-1.84,.47-2.6,.31-.76,.76-1.36,1.34-1.79s1.26-.65,2.03-.65c.91,0,1.71,.34,2.39,1.03v-4.82l2.3,.25Zm-3.19,11.56c.31-.2,.61-.51,.88-.93v-4.36c-.28-.34-.55-.59-.84-.76-.28-.17-.61-.25-.98-.25-.61,0-1.1,.27-1.45,.82-.36,.55-.53,1.37-.53,2.48,0,1.18,.16,2.02,.47,2.53,.31,.51,.77,.77,1.37,.77,.41,0,.77-.1,1.08-.3Z"/><path d="M501.18,14.4c.47,.51,.71,1.22,.71,2.13v6.89h-2.3v-6.53c0-.56-.1-.96-.3-1.19-.2-.23-.49-.34-.87-.34s-.75,.12-1.07,.37c-.32,.25-.63,.6-.93,1.07v6.62h-2.3V13.91h2l.18,1.24c.78-1.01,1.74-1.51,2.9-1.51,.85,0,1.52,.25,1.99,.77Z"/><path d="M507.1,8.67l.94,1.8-4.07,1.62-.65-1.17,3.78-2.25Zm-.21,5.24v9.52h-2.3V13.91h2.3Z"/><path d="M515.17,13.91c.5,.18,.97,.46,1.41,.85l-1.03,1.39c-.32-.24-.64-.41-.94-.52-.3-.11-.63-.16-.99-.16-1.43,0-2.14,1.09-2.14,3.26,0,1.1,.19,1.9,.56,2.38,.37,.49,.9,.73,1.58,.73,.34,0,.64-.05,.93-.16,.28-.11,.62-.28,1-.52l1.03,1.46c-.9,.73-1.93,1.1-3.08,1.1-.91,0-1.7-.2-2.38-.6-.67-.4-1.19-.97-1.55-1.72s-.54-1.62-.54-2.63,.18-1.9,.54-2.67,.88-1.37,1.55-1.8c.67-.43,1.46-.64,2.36-.64,.62,0,1.19,.09,1.68,.27Z"/><path d="M525.31,14.41c.48,.52,.72,1.22,.72,2.12v6.89h-2.3v-6.53c0-.56-.1-.96-.3-1.19-.2-.23-.49-.34-.87-.34s-.74,.12-1.06,.37-.64,.6-.94,1.05v6.64h-2.3V10.11l2.3-.23v5.17c.77-.94,1.69-1.4,2.77-1.4,.84,0,1.5,.26,1.98,.77Z"/><path d="M540.97,19.38h-5.97c.07,.92,.31,1.58,.72,1.98s.95,.59,1.62,.59c.42,0,.82-.07,1.19-.21,.37-.14,.77-.35,1.19-.64l.96,1.31c-1.06,.85-2.23,1.28-3.53,1.28-1.45,0-2.57-.44-3.36-1.33-.79-.89-1.18-2.1-1.18-3.64,0-.97,.17-1.84,.5-2.62s.82-1.38,1.46-1.82c.63-.44,1.39-.66,2.27-.66,1.33,0,2.36,.42,3.1,1.27s1.1,2.02,1.1,3.54c0,.12-.02,.43-.05,.94Zm-2.23-1.6c0-1.67-.62-2.5-1.86-2.5-.56,0-1,.21-1.32,.62-.32,.41-.51,1.08-.57,1.99h3.74v-.11Z"/><path d="M555.03,14.42c.46,.52,.68,1.23,.68,2.11v6.89h-2.3v-6.53c0-1.02-.35-1.53-1.04-1.53-.37,0-.69,.12-.96,.35s-.55,.6-.84,1.09v6.62h-2.3v-6.53c0-1.02-.35-1.53-1.04-1.53-.38,0-.71,.12-.98,.35s-.55,.6-.84,1.09v6.62h-2.3V13.91h2l.18,1.24c.72-1.01,1.64-1.51,2.75-1.51,.55,0,1.03,.14,1.43,.42,.4,.28,.69,.68,.87,1.18,.38-.52,.81-.91,1.27-1.19,.46-.28,.99-.41,1.59-.41,.77,0,1.38,.26,1.84,.78Z"/><path d="M560.58,9.49c.27,.27,.4,.6,.4,1s-.13,.73-.4,.99c-.27,.26-.62,.4-1.05,.4s-.77-.13-1.04-.4c-.27-.26-.4-.59-.4-.99s.13-.73,.4-1,.62-.41,1.04-.41,.78,.14,1.05,.41Zm.12,4.42v9.52h-2.3V13.91h2.3Z"/><path d="M569.86,14.77l-.9,1.35c-.82-.52-1.61-.77-2.39-.77-.46,0-.81,.09-1.06,.26s-.38,.4-.38,.69c0,.22,.05,.4,.16,.54s.3,.28,.59,.4c.28,.13,.7,.27,1.25,.42,1.03,.28,1.8,.64,2.29,1.1,.5,.46,.75,1.09,.75,1.91,0,.95-.38,1.69-1.15,2.22-.77,.53-1.72,.8-2.86,.8-.78,0-1.49-.12-2.13-.36-.64-.24-1.2-.57-1.66-.99l1.15-1.3c.83,.62,1.69,.94,2.59,.94,.52,0,.93-.1,1.23-.31,.31-.2,.46-.49,.46-.85,0-.28-.06-.5-.17-.66-.12-.16-.32-.31-.61-.43-.29-.13-.75-.28-1.38-.46-.97-.26-1.69-.63-2.14-1.11-.46-.47-.69-1.06-.69-1.77,0-.53,.15-1,.46-1.42,.31-.42,.74-.75,1.3-.99,.56-.24,1.2-.36,1.92-.36,1.29,0,2.41,.38,3.38,1.13Z"/><path d="M574.56,8.67l.94,1.8-4.07,1.62-.65-1.17,3.78-2.25Zm-.21,5.24v9.52h-2.3V13.91h2.3Z"/></g><g><path d="M4.78,48.46c0,.61-.08,1.11-.23,1.49-.16,.39-.4,.7-.73,.95s-.79,.49-1.38,.72l-.24-.66c.46-.2,.81-.41,1.05-.62,.24-.22,.41-.47,.5-.77,.09-.29,.13-.68,.13-1.16v-8.85h.9v8.9Z"/><path d="M13.09,42.9c.59,.71,.88,1.71,.88,2.99s-.3,2.27-.89,3.01c-.6,.73-1.41,1.1-2.44,1.1s-1.85-.36-2.44-1.09c-.59-.73-.88-1.72-.88-2.99,0-.83,.13-1.55,.41-2.17,.27-.62,.65-1.1,1.15-1.43s1.09-.49,1.77-.49c1.04,0,1.85,.36,2.44,1.07Zm-4.21,.52c-.42,.57-.63,1.4-.63,2.5s.21,1.92,.62,2.49c.42,.57,1,.85,1.76,.85s1.35-.29,1.78-.85c.42-.57,.64-1.41,.64-2.52s-.21-1.92-.62-2.48c-.41-.56-1.01-.85-1.78-.85s-1.35,.28-1.77,.85Z"/><path d="M22.02,49.84h-.75l-.04-1.4c-.62,1.04-1.47,1.56-2.56,1.56-.71,0-1.26-.21-1.64-.62s-.58-1.01-.58-1.78v-5.61h.87v5.52c0,.61,.13,1.06,.38,1.34,.25,.29,.64,.43,1.16,.43,.91,0,1.67-.53,2.29-1.6v-5.69h.87v7.85Z"/></g><circle class="c" cx="280.99" cy="189.92" r="60.78"/><g><path class="j" d="M425.27,220.51v9.44h-1.95v-7.48l-2.07,1.27-.87-1.34,3.14-1.89h1.75Z"/><path class="j" d="M431.51,220.68c.48,.24,.84,.56,1.08,.97,.25,.41,.37,.86,.37,1.35s-.11,1.01-.33,1.48c-.22,.48-.59,1.01-1.12,1.61-.53,.6-1.29,1.37-2.3,2.31h3.96l-.22,1.54h-6.01v-1.44c1.18-1.18,2.03-2.05,2.55-2.63,.52-.58,.89-1.07,1.11-1.47s.32-.81,.32-1.23-.12-.72-.35-.95-.55-.35-.94-.35c-.35,0-.65,.08-.92,.23-.27,.15-.56,.41-.85,.76l-1.19-.95c.8-1.05,1.85-1.58,3.15-1.58,.65,0,1.22,.12,1.69,.36Z"/><path class="j" d="M436.21,228.11c.23,.23,.34,.51,.34,.85,0,.19-.03,.38-.09,.58-.06,.2-.16,.46-.3,.79l-.91,2.04h-1.16l.59-2.44c-.16-.1-.29-.24-.38-.41-.09-.17-.14-.36-.14-.57,0-.34,.11-.62,.34-.85,.23-.23,.51-.34,.85-.34s.63,.11,.86,.34Z"/><path class="j" d="M443.07,221.32c.58,.66,.88,1.55,.88,2.66,0,1.28-.2,2.33-.59,3.16-.4,.83-1.01,1.49-1.83,1.99-.82,.5-1.9,.9-3.25,1.2l-.42-1.41c1.23-.31,2.16-.71,2.79-1.2,.63-.49,1.02-1.17,1.17-2.04-.5,.64-1.17,.97-1.99,.97-.5,0-.95-.13-1.35-.38s-.73-.61-.97-1.08-.36-1.01-.36-1.64,.15-1.21,.45-1.69,.71-.86,1.22-1.13c.51-.27,1.09-.4,1.72-.4,1.1,0,1.94,.33,2.53,.99Zm-1.15,3c0-.92-.09-1.58-.3-1.97-.21-.39-.57-.58-1.07-.58-.44,0-.78,.15-1.03,.44s-.37,.72-.37,1.28c0,.6,.11,1.03,.34,1.31s.53,.41,.92,.41c.6,0,1.1-.3,1.51-.9Z"/><path class="j" d="M452.01,220.62c.37,.2,.66,.49,.87,.87,.21,.38,.32,.81,.32,1.31s-.11,.93-.32,1.31-.5,.67-.87,.87c-.37,.2-.79,.3-1.25,.3s-.87-.1-1.24-.3c-.37-.2-.66-.49-.88-.87s-.32-.81-.32-1.31,.11-.93,.32-1.31c.21-.38,.51-.67,.88-.87,.37-.2,.78-.3,1.24-.3s.88,.1,1.25,.3Zm-2.22,2.18c0,.36,.07,.67,.22,.9,.14,.24,.39,.36,.75,.36,.63,0,.95-.42,.95-1.26s-.32-1.26-.95-1.26-.97,.42-.97,1.26Zm6.65-2.91l1.26,.8-6.5,9.79-1.25-.8,6.48-9.79Zm1.69,5.62c.37,.2,.66,.49,.87,.87s.32,.81,.32,1.31-.11,.93-.32,1.3c-.21,.37-.5,.66-.88,.87s-.79,.31-1.25,.31-.87-.1-1.25-.31c-.37-.21-.67-.49-.88-.87-.21-.37-.32-.81-.32-1.3s.11-.93,.32-1.31,.51-.67,.88-.87c.37-.2,.79-.3,1.25-.3s.88,.1,1.25,.3Zm-2.22,2.18c0,.36,.07,.67,.22,.9,.14,.24,.39,.36,.75,.36,.63,0,.95-.42,.95-1.26s-.32-1.26-.95-1.26-.97,.42-.97,1.26Z"/><path class="j" d="M420.75,240.05v-.77h3.76v.77h-3.76Zm0,1.93v-.77h3.76v.77h-3.76Z"/><path class="j" d="M431.01,237.25v6.69h-.92v-5.71l-1.56,.95-.4-.65,2.07-1.28h.81Z"/><path class="j" d="M435.43,237.38c.3,.15,.52,.36,.68,.62,.16,.26,.24,.54,.24,.85,0,.41-.12,.74-.36,1s-.55,.44-.95,.54c.45,.04,.81,.2,1.09,.48,.28,.28,.42,.66,.42,1.14,0,.39-.09,.74-.28,1.05s-.45,.56-.8,.73-.75,.27-1.2,.27c-.41,0-.78-.08-1.12-.23s-.64-.38-.89-.67l.55-.51c.22,.23,.44,.39,.67,.5,.23,.11,.48,.16,.75,.16,.42,0,.75-.12,.99-.35s.36-.56,.36-.96c0-.44-.11-.75-.34-.93-.23-.18-.56-.27-.99-.27h-.5l.11-.71h.34c.35,0,.64-.1,.87-.31,.23-.21,.34-.5,.34-.87,0-.31-.1-.56-.3-.75-.2-.18-.47-.27-.81-.27-.26,0-.5,.05-.71,.14-.22,.09-.44,.25-.67,.46l-.48-.55c.57-.53,1.2-.79,1.91-.79,.41,0,.77,.08,1.07,.23Z"/><path class="j" d="M438.79,242.87c.13,.13,.2,.3,.2,.49,0,.21-.06,.44-.18,.71l-.67,1.53h-.66l.4-1.66c-.09-.07-.16-.15-.21-.25s-.08-.21-.08-.33c0-.19,.07-.36,.2-.49,.13-.13,.3-.2,.49-.2s.37,.07,.5,.2Z"/><path class="j" d="M443.64,237.25v.69l-2.5,6.1-.84-.28,2.41-5.76h-2.96v-.75h3.89Z"/><path class="j" d="M453.75,243.94h-.92l-.24-3.11c-.1-1.22-.16-2.16-.17-2.81l-1.49,5.14h-.89l-1.57-5.15c0,.83-.04,1.8-.13,2.89l-.23,3.04h-.9l.57-6.89h1.28l1.45,5.01,1.38-5.01h1.29l.57,6.89Z"/><path class="j" d="M457.98,243.7c-.35,.24-.74,.36-1.18,.36s-.79-.13-1.04-.39c-.25-.26-.38-.63-.38-1.11v-3.18h-.92v-.71h.92v-1.19l.92-.11v1.3h1.25l-.1,.71h-1.15v3.14c0,.27,.05,.47,.15,.59,.1,.12,.26,.19,.48,.19,.21,0,.44-.07,.7-.21l.35,.61Z"/><path class="j" d="M465.08,237.09c.28,.11,.57,.28,.87,.52l-.52,.61c-.42-.34-.86-.51-1.33-.51-.57,0-1.04,.22-1.38,.66s-.53,1.15-.53,2.12,.17,1.65,.52,2.1,.81,.67,1.38,.67c.29,0,.55-.05,.77-.15,.22-.1,.45-.24,.7-.42l.47,.6c-.21,.22-.49,.4-.82,.55-.33,.15-.72,.22-1.15,.22-.56,0-1.06-.14-1.5-.42s-.78-.68-1.02-1.22-.37-1.18-.37-1.94,.13-1.4,.38-1.93c.25-.54,.6-.94,1.03-1.22,.43-.27,.92-.41,1.45-.41,.41,0,.76,.05,1.04,.16Z"/><path class="j" d="M471.01,237.35c.44,.28,.78,.68,1.02,1.22s.37,1.18,.37,1.94-.12,1.39-.37,1.92c-.24,.53-.58,.94-1.02,1.22-.44,.28-.95,.42-1.53,.42s-1.09-.14-1.53-.41-.78-.68-1.02-1.21-.37-1.18-.37-1.93,.12-1.38,.37-1.92,.58-.95,1.03-1.23c.44-.28,.95-.42,1.52-.42s1.09,.14,1.53,.41Zm-2.93,1.05c-.33,.45-.5,1.16-.5,2.12s.17,1.65,.51,2.1c.34,.45,.8,.67,1.39,.67,1.27,0,1.9-.93,1.9-2.78s-.63-2.79-1.9-2.79c-.6,0-1.07,.23-1.4,.68Z"/><path class="j" d="M476.03,237.39c.3,.16,.54,.38,.71,.65,.17,.28,.25,.59,.25,.94,0,.41-.09,.8-.28,1.17-.18,.37-.46,.78-.84,1.21-.38,.43-.96,1.04-1.73,1.81h3.01l-.11,.77h-3.95v-.73c.89-.93,1.53-1.6,1.9-2.04,.37-.43,.64-.8,.8-1.12,.16-.32,.24-.66,.24-1.03,0-.35-.1-.62-.3-.81s-.47-.29-.8-.29c-.27,0-.51,.06-.72,.17-.21,.11-.43,.3-.66,.56l-.6-.48c.27-.34,.58-.59,.91-.76s.71-.25,1.12-.25,.75,.08,1.05,.24Z"/></g><g><path class="j" d="M399.52,107.85c.48,.24,.84,.56,1.08,.97,.25,.41,.37,.86,.37,1.35s-.11,1.01-.33,1.48c-.22,.48-.59,1.01-1.12,1.61-.53,.6-1.29,1.37-2.3,2.31h3.96l-.22,1.54h-6.01v-1.44c1.18-1.18,2.03-2.05,2.55-2.63,.52-.58,.89-1.07,1.11-1.47s.32-.81,.32-1.23-.12-.72-.35-.95-.55-.35-.94-.35c-.35,0-.65,.08-.92,.23-.27,.15-.56,.41-.85,.76l-1.19-.95c.8-1.05,1.85-1.58,3.15-1.58,.65,0,1.22,.12,1.69,.36Z"/><path class="j" d="M406.51,107.68v9.44h-1.95v-7.48l-2.07,1.27-.87-1.34,3.14-1.89h1.75Z"/><path class="j" d="M410.28,115.29c.23,.23,.34,.51,.34,.85,0,.19-.03,.38-.09,.58-.06,.2-.16,.46-.3,.79l-.91,2.04h-1.16l.59-2.44c-.16-.1-.29-.24-.38-.41-.09-.17-.14-.36-.14-.57,0-.34,.11-.62,.34-.85,.23-.23,.51-.34,.85-.34s.63,.11,.86,.34Z"/><path class="j" d="M417.14,108.49c.58,.66,.88,1.55,.88,2.66,0,1.28-.2,2.33-.59,3.16-.4,.83-1.01,1.49-1.83,1.99-.82,.5-1.9,.9-3.25,1.2l-.42-1.41c1.23-.31,2.16-.71,2.79-1.2,.63-.49,1.02-1.17,1.17-2.04-.5,.64-1.17,.97-1.99,.97-.5,0-.95-.13-1.35-.38s-.73-.61-.97-1.08-.36-1.01-.36-1.64,.15-1.21,.45-1.69,.71-.86,1.22-1.13c.51-.27,1.09-.4,1.72-.4,1.1,0,1.94,.33,2.53,.99Zm-1.15,3c0-.92-.09-1.58-.3-1.97-.21-.39-.57-.58-1.07-.58-.44,0-.78,.15-1.03,.44s-.37,.72-.37,1.28c0,.6,.11,1.03,.34,1.31s.53,.41,.92,.41c.6,0,1.1-.3,1.51-.9Z"/><path class="j" d="M426.09,107.8c.37,.2,.66,.49,.87,.87,.21,.38,.32,.81,.32,1.31s-.11,.93-.32,1.31-.5,.67-.87,.87c-.37,.2-.79,.3-1.25,.3s-.87-.1-1.24-.3c-.37-.2-.66-.49-.88-.87s-.32-.81-.32-1.31,.11-.93,.32-1.31c.21-.38,.51-.67,.88-.87,.37-.2,.78-.3,1.24-.3s.88,.1,1.25,.3Zm-2.22,2.18c0,.36,.07,.67,.22,.9,.14,.24,.39,.36,.75,.36,.63,0,.95-.42,.95-1.26s-.32-1.26-.95-1.26-.97,.42-.97,1.26Zm6.65-2.91l1.26,.8-6.5,9.79-1.25-.8,6.48-9.79Zm1.69,5.62c.37,.2,.66,.49,.87,.87s.32,.81,.32,1.31-.11,.93-.32,1.3c-.21,.37-.5,.66-.88,.87s-.79,.31-1.25,.31-.87-.1-1.25-.31c-.37-.21-.67-.49-.88-.87-.21-.37-.32-.81-.32-1.3s.11-.93,.32-1.31,.51-.67,.88-.87c.37-.2,.79-.3,1.25-.3s.88,.1,1.25,.3Zm-2.22,2.18c0,.36,.07,.67,.22,.9,.14,.24,.39,.36,.75,.36,.63,0,.95-.42,.95-1.26s-.32-1.26-.95-1.26-.97,.42-.97,1.26Z"/><path class="j" d="M395.14,127.22v-.77h3.76v.77h-3.76Zm0,1.93v-.77h3.76v.77h-3.76Z"/><path class="j" d="M405.51,124.56c.3,.16,.54,.38,.71,.65,.17,.28,.25,.59,.25,.94,0,.41-.09,.8-.28,1.17-.18,.37-.46,.78-.84,1.21-.38,.43-.96,1.04-1.73,1.81h3.01l-.11,.77h-3.95v-.73c.89-.93,1.53-1.6,1.9-2.04,.37-.43,.64-.8,.8-1.12,.16-.32,.24-.66,.24-1.03,0-.35-.1-.62-.3-.81s-.47-.29-.8-.29c-.27,0-.51,.06-.72,.17-.21,.11-.43,.3-.66,.56l-.6-.48c.27-.34,.58-.59,.91-.76s.71-.25,1.12-.25,.75,.08,1.05,.24Z"/><path class="j" d="M410.39,124.55c.3,.15,.52,.36,.68,.62,.16,.26,.24,.54,.24,.85,0,.41-.12,.74-.36,1s-.55,.44-.95,.54c.45,.04,.81,.2,1.09,.48,.28,.28,.42,.66,.42,1.14,0,.39-.09,.74-.28,1.05s-.45,.56-.8,.73-.75,.27-1.2,.27c-.41,0-.78-.08-1.12-.23s-.64-.38-.89-.67l.55-.51c.22,.23,.44,.39,.67,.5,.23,.11,.48,.16,.75,.16,.42,0,.75-.12,.99-.35s.36-.56,.36-.96c0-.44-.11-.75-.34-.93-.23-.18-.56-.27-.99-.27h-.5l.11-.71h.34c.35,0,.64-.1,.87-.31,.23-.21,.34-.5,.34-.87,0-.31-.1-.56-.3-.75-.2-.18-.47-.27-.81-.27-.26,0-.5,.05-.71,.14-.22,.09-.44,.25-.67,.46l-.48-.55c.57-.53,1.2-.79,1.91-.79,.41,0,.77,.08,1.07,.23Z"/><path class="j" d="M413.75,130.04c.13,.13,.2,.3,.2,.49,0,.21-.06,.44-.18,.71l-.67,1.53h-.66l.4-1.66c-.09-.07-.16-.15-.21-.25s-.08-.21-.08-.33c0-.19,.07-.36,.2-.49,.13-.13,.3-.2,.49-.2s.37,.07,.5,.2Z"/><path class="j" d="M417.87,124.55c.3,.15,.52,.36,.68,.62,.16,.26,.24,.54,.24,.85,0,.41-.12,.74-.36,1s-.55,.44-.95,.54c.45,.04,.81,.2,1.09,.48,.28,.28,.42,.66,.42,1.14,0,.39-.09,.74-.28,1.05s-.45,.56-.8,.73-.75,.27-1.2,.27c-.41,0-.78-.08-1.12-.23s-.64-.38-.89-.67l.55-.51c.22,.23,.44,.39,.67,.5,.23,.11,.48,.16,.75,.16,.42,0,.75-.12,.99-.35s.36-.56,.36-.96c0-.44-.11-.75-.34-.93-.23-.18-.56-.27-.99-.27h-.5l.11-.71h.34c.35,0,.64-.1,.87-.31,.23-.21,.34-.5,.34-.87,0-.31-.1-.56-.3-.75-.2-.18-.47-.27-.81-.27-.26,0-.5,.05-.71,.14-.22,.09-.44,.25-.67,.46l-.48-.55c.57-.53,1.2-.79,1.91-.79,.41,0,.77,.08,1.07,.23Z"/><path class="j" d="M429.35,131.11h-.92l-.24-3.11c-.1-1.22-.16-2.16-.17-2.81l-1.49,5.14h-.89l-1.57-5.15c0,.83-.04,1.8-.13,2.89l-.23,3.04h-.9l.57-6.89h1.28l1.45,5.01,1.38-5.01h1.29l.57,6.89Z"/><path class="j" d="M433.58,130.87c-.35,.24-.74,.36-1.18,.36s-.79-.13-1.04-.39c-.25-.26-.38-.63-.38-1.11v-3.18h-.92v-.71h.92v-1.19l.92-.11v1.3h1.25l-.1,.71h-1.15v3.14c0,.27,.05,.47,.15,.59,.1,.12,.26,.19,.48,.19,.21,0,.44-.07,.7-.21l.35,.61Z"/><path class="j" d="M440.69,124.26c.28,.11,.57,.28,.87,.52l-.52,.61c-.42-.34-.86-.51-1.33-.51-.57,0-1.04,.22-1.38,.66s-.53,1.15-.53,2.12,.17,1.65,.52,2.1,.81,.67,1.38,.67c.29,0,.55-.05,.77-.15,.22-.1,.45-.24,.7-.42l.47,.6c-.21,.22-.49,.4-.82,.55-.33,.15-.72,.22-1.15,.22-.56,0-1.06-.14-1.5-.42s-.78-.68-1.02-1.22-.37-1.18-.37-1.94,.13-1.4,.38-1.93c.25-.54,.6-.94,1.03-1.22,.43-.27,.92-.41,1.45-.41,.41,0,.76,.05,1.04,.16Z"/><path class="j" d="M446.62,124.52c.44,.28,.78,.68,1.02,1.22s.37,1.18,.37,1.94-.12,1.39-.37,1.92c-.24,.53-.58,.94-1.02,1.22-.44,.28-.95,.42-1.53,.42s-1.09-.14-1.53-.41-.78-.68-1.02-1.21-.37-1.18-.37-1.93,.12-1.38,.37-1.92,.58-.95,1.03-1.23c.44-.28,.95-.42,1.52-.42s1.09,.14,1.53,.41Zm-2.93,1.05c-.33,.45-.5,1.16-.5,2.12s.17,1.65,.51,2.1c.34,.45,.8,.67,1.39,.67,1.27,0,1.9-.93,1.9-2.78s-.63-2.79-1.9-2.79c-.6,0-1.07,.23-1.4,.68Z"/><path class="j" d="M451.64,124.56c.3,.16,.54,.38,.71,.65,.17,.28,.25,.59,.25,.94,0,.41-.09,.8-.28,1.17-.18,.37-.46,.78-.84,1.21-.38,.43-.96,1.04-1.73,1.81h3.01l-.11,.77h-3.95v-.73c.89-.93,1.53-1.6,1.9-2.04,.37-.43,.64-.8,.8-1.12,.16-.32,.24-.66,.24-1.03,0-.35-.1-.62-.3-.81s-.47-.29-.8-.29c-.27,0-.51,.06-.72,.17-.21,.11-.43,.3-.66,.56l-.6-.48c.27-.34,.58-.59,.91-.76s.71-.25,1.12-.25,.75,.08,1.05,.24Z"/></g><g><path class="e" d="M398.04,92.52h-.77v3.18h-1.97v-8.32h2.72c1.14,0,1.99,.21,2.56,.62,.57,.42,.86,1.05,.86,1.91,0,.54-.13,.98-.38,1.34s-.66,.66-1.21,.91l2.11,3.54h-2.22l-1.7-3.18Zm-.77-1.36h.83c.44,0,.77-.1,.99-.3,.22-.2,.33-.52,.33-.95,0-.4-.12-.69-.35-.88-.24-.18-.6-.28-1.09-.28h-.71v2.4Z"/><path class="e" d="M408.41,87.38l-.2,1.4h-2.93v1.99h2.56v1.38h-2.56v2.12h3.13v1.42h-5.1v-8.32h5.1Z"/><path class="e" d="M415.46,87.38v1.49l-3.61,5.26h3.67l-.19,1.57h-5.8v-1.48l3.68-5.32h-3.31v-1.52h5.56Z"/><path class="e" d="M419.2,87.38v8.32h-1.97v-8.32h1.97Z"/><path class="e" d="M426.8,88.27c.79,.59,1.18,1.67,1.18,3.23s-.38,2.63-1.15,3.26c-.77,.63-1.76,.94-2.99,.94h-2.5v-8.32h2.32c1.3,0,2.35,.29,3.14,.88Zm-3.49,.55v5.46h.65c.65,0,1.14-.2,1.48-.61,.34-.4,.5-1.13,.5-2.17,0-.71-.08-1.26-.25-1.66s-.4-.66-.68-.81c-.29-.15-.64-.22-1.07-.22h-.62Z"/><path class="e" d="M434.85,87.38l-.2,1.4h-2.93v1.99h2.56v1.38h-2.56v2.12h3.13v1.42h-5.1v-8.32h5.1Z"/><path class="e" d="M443.07,95.7h-2.51l-2.4-6.44c.08,.63,.14,1.19,.19,1.67,.04,.48,.07,1.06,.07,1.72v3.05h-1.75v-8.32h2.45l2.46,6.46c-.18-1.1-.26-2.13-.26-3.1v-3.36h1.76v8.32Z"/><path class="e" d="M450,87.41c.4,.15,.79,.38,1.15,.68l-.94,1.12c-.25-.19-.49-.34-.73-.43-.24-.1-.5-.14-.77-.14-.56,0-1,.24-1.33,.71-.32,.47-.49,1.2-.49,2.18s.16,1.69,.49,2.15c.32,.47,.77,.7,1.35,.7,.3,0,.58-.06,.83-.17,.25-.12,.52-.28,.8-.5l.88,1.13c-.31,.31-.69,.57-1.13,.77-.44,.2-.93,.3-1.47,.3-.77,0-1.44-.17-2-.5-.57-.34-1.01-.83-1.33-1.49-.32-.66-.47-1.45-.47-2.38s.16-1.68,.49-2.34c.32-.66,.77-1.15,1.34-1.49,.57-.34,1.22-.51,1.95-.51,.52,0,.98,.08,1.39,.23Zm.28-3.04l.67,.78-1.69,1.55h-1.15l-1.7-1.55,.68-.78,1.6,1.01,1.6-1.01Z"/><path class="e" d="M459.13,95.7h-2.51l-2.4-6.44c.08,.63,.14,1.19,.19,1.67,.04,.48,.07,1.06,.07,1.72v3.05h-1.75v-8.32h2.45l2.46,6.46c-.18-1.1-.26-2.13-.26-3.1v-3.36h1.76v8.32Z"/><path class="e" d="M463.22,84.23l.71,1.42-2.88,1.04-.48-.96,2.65-1.5Zm.02,3.16v8.32h-1.97v-8.32h1.97Z"/><path class="e" d="M474.62,91.91c.35,.3,.52,.76,.52,1.37,0,.89-.32,1.51-.95,1.88s-1.53,.55-2.67,.55h-2.68v-8.32h2.35c1.17,0,2.06,.17,2.68,.5s.92,.87,.92,1.63c0,.49-.15,.88-.44,1.18-.29,.3-.65,.5-1.09,.61,.55,.1,1,.31,1.35,.61Zm-3.81-3.13v1.93h.73c.83,0,1.25-.34,1.25-1.01,0-.34-.11-.57-.34-.71-.22-.14-.58-.21-1.07-.21h-.58Zm1.9,5.26c.27-.16,.4-.45,.4-.87,0-.77-.48-1.15-1.44-1.15h-.86v2.26h.72c.52,0,.91-.08,1.18-.23Z"/><path class="e" d="M483.21,92.94c0,.57-.12,1.08-.37,1.52-.24,.45-.61,.8-1.1,1.06-.49,.26-1.08,.38-1.79,.38-1.06,0-1.86-.27-2.41-.8-.55-.54-.83-1.26-.83-2.16v-5.56h1.97v5.47c0,.54,.1,.93,.31,1.19,.2,.26,.53,.39,.97,.39s.77-.13,.98-.39,.31-.66,.31-1.19v-5.47h1.97v5.56Z"/><path class="e" d="M490.71,88.27c.79,.59,1.18,1.67,1.18,3.23s-.38,2.63-1.15,3.26c-.77,.63-1.76,.94-2.99,.94h-2.5v-8.32h2.32c1.3,0,2.35,.29,3.14,.88Zm-3.49,.55v5.46h.65c.65,0,1.14-.2,1.48-.61,.34-.4,.5-1.13,.5-2.17,0-.71-.08-1.26-.25-1.66s-.4-.66-.68-.81c-.29-.15-.64-.22-1.07-.22h-.62Z"/><path class="e" d="M499.79,88.32c.66,.76,.99,1.83,.99,3.22,0,.9-.15,1.68-.45,2.34-.3,.66-.73,1.16-1.3,1.51-.56,.35-1.23,.52-2.01,.52s-1.44-.17-2-.52c-.56-.34-.99-.84-1.29-1.49-.3-.65-.45-1.44-.45-2.36s.15-1.67,.45-2.33c.3-.66,.73-1.16,1.29-1.51,.56-.35,1.23-.52,2-.52,1.18,0,2.11,.38,2.77,1.14Zm-4.03,.99c-.28,.46-.41,1.2-.41,2.23s.14,1.77,.42,2.23c.28,.46,.7,.7,1.26,.7s1-.23,1.28-.69,.41-1.21,.41-2.24-.14-1.78-.42-2.23-.7-.68-1.27-.68-.99,.23-1.27,.69Z"/><path class="e" d="M508.73,87.38l-2.32,8.32h-2.45l-2.4-8.32h2.08l1.58,6.78,1.49-6.78h2.02Z"/><path class="e" d="M516.37,87.38l-2.66,5.2v3.12h-1.97v-3.11l-2.66-5.21h2.15l1.54,3.66,1.54-3.66h2.08Z"/></g><g><path class="h" d="M426.72,208.4h-2.3l-2.2-5.91c.07,.58,.13,1.09,.17,1.53,.04,.44,.06,.97,.06,1.58v2.79h-1.61v-7.62h2.24l2.25,5.92c-.16-1-.24-1.95-.24-2.84v-3.08h1.62v7.62Z"/><path class="h" d="M433.36,200.78l-.19,1.29h-2.68v1.83h2.34v1.26h-2.34v1.95h2.87v1.3h-4.67v-7.62h4.67Z"/><path class="h" d="M437.53,205.49h-.7v2.92h-1.8v-7.62h2.5c1.04,0,1.82,.19,2.35,.57s.79,.96,.79,1.75c0,.49-.12,.9-.35,1.23-.24,.33-.61,.6-1.11,.83l1.94,3.25h-2.04l-1.56-2.92Zm-.7-1.24h.76c.4,0,.71-.09,.91-.27,.2-.18,.3-.47,.3-.87,0-.37-.11-.63-.33-.8-.22-.17-.55-.25-1-.25h-.65v2.2Z"/><path class="h" d="M447.03,200.78l-.19,1.29h-2.68v1.83h2.34v1.26h-2.34v1.95h2.87v1.3h-4.67v-7.62h4.67Z"/><path class="h" d="M453.5,200.78v1.36l-3.31,4.82h3.37l-.18,1.44h-5.31v-1.35l3.38-4.87h-3.04v-1.4h5.09Z"/><path class="h" d="M456.92,200.78v7.62h-1.8v-7.62h1.8Z"/><path class="h" d="M463.89,201.59c.72,.54,1.08,1.53,1.08,2.96s-.35,2.41-1.06,2.99-1.62,.86-2.74,.86h-2.29v-7.62h2.12c1.2,0,2.15,.27,2.88,.81Zm-3.2,.5v5h.59c.59,0,1.04-.19,1.35-.56,.31-.37,.46-1.03,.46-1.99,0-.65-.08-1.16-.23-1.52-.15-.36-.36-.61-.63-.74-.26-.14-.59-.2-.98-.2h-.57Z"/><path class="h" d="M471.28,200.78l-.19,1.29h-2.68v1.83h2.34v1.26h-2.34v1.95h2.87v1.3h-4.67v-7.62h4.67Z"/><path class="h" d="M478.81,208.4h-2.3l-2.2-5.91c.07,.58,.13,1.09,.17,1.53,.04,.44,.06,.97,.06,1.58v2.79h-1.61v-7.62h2.24l2.25,5.92c-.16-1-.24-1.95-.24-2.84v-3.08h1.62v7.62Z"/><path class="h" d="M485.17,200.8c.37,.14,.72,.35,1.05,.63l-.86,1.02c-.23-.18-.45-.31-.67-.4-.22-.09-.46-.13-.7-.13-.51,0-.92,.22-1.22,.65s-.45,1.1-.45,2,.15,1.55,.45,1.97,.71,.64,1.24,.64c.28,0,.53-.05,.76-.16,.23-.11,.47-.26,.74-.46l.8,1.03c-.29,.29-.63,.52-1.04,.7s-.86,.27-1.35,.27c-.7,0-1.32-.15-1.84-.46s-.93-.76-1.21-1.37c-.29-.6-.43-1.33-.43-2.18s.15-1.54,.45-2.15c.3-.6,.71-1.06,1.23-1.37,.52-.31,1.12-.47,1.79-.47,.48,0,.9,.07,1.27,.21Zm.26-2.78l.62,.71-1.55,1.42h-1.06l-1.56-1.42,.63-.71,1.46,.92,1.46-.92Z"/><path class="h" d="M493.53,208.4h-2.3l-2.2-5.91c.07,.58,.13,1.09,.17,1.53,.04,.44,.06,.97,.06,1.58v2.79h-1.61v-7.62h2.24l2.25,5.92c-.16-1-.24-1.95-.24-2.84v-3.08h1.62v7.62Z"/><path class="h" d="M497.28,197.89l.65,1.3-2.64,.96-.44-.88,2.43-1.38Zm.02,2.89v7.62h-1.8v-7.62h1.8Z"/><path class="h" d="M507.73,204.93c.32,.28,.48,.7,.48,1.25,0,.81-.29,1.39-.88,1.72-.58,.33-1.4,.5-2.45,.5h-2.45v-7.62h2.16c1.07,0,1.89,.15,2.45,.46,.56,.3,.85,.8,.85,1.49,0,.45-.13,.81-.4,1.08-.27,.27-.6,.46-1,.56,.51,.1,.92,.28,1.24,.56Zm-3.49-2.87v1.77h.67c.76,0,1.14-.31,1.14-.92,0-.31-.1-.53-.31-.65-.21-.13-.53-.19-.98-.19h-.53Zm1.74,4.82c.25-.14,.37-.41,.37-.8,0-.7-.44-1.06-1.32-1.06h-.79v2.07h.66c.48,0,.84-.07,1.08-.21Z"/><path class="h" d="M515.61,205.87c0,.52-.11,.99-.33,1.4s-.56,.73-1.01,.97c-.45,.23-.99,.35-1.64,.35-.97,0-1.71-.25-2.21-.74s-.76-1.15-.76-1.98v-5.09h1.8v5.02c0,.49,.09,.86,.28,1.09,.19,.24,.48,.36,.89,.36s.71-.12,.9-.36c.19-.24,.28-.6,.28-1.09v-5.02h1.8v5.09Z"/><path class="h" d="M522.48,201.59c.72,.54,1.08,1.53,1.08,2.96s-.35,2.41-1.06,2.99-1.62,.86-2.74,.86h-2.29v-7.62h2.12c1.2,0,2.15,.27,2.88,.81Zm-3.2,.5v5h.59c.59,0,1.04-.19,1.35-.56,.31-.37,.46-1.03,.46-1.99,0-.65-.08-1.16-.23-1.52-.15-.36-.36-.61-.63-.74-.26-.14-.59-.2-.98-.2h-.57Z"/><path class="h" d="M530.8,201.64c.61,.7,.91,1.68,.91,2.95,0,.83-.14,1.54-.41,2.15-.27,.6-.67,1.06-1.19,1.38-.52,.32-1.13,.48-1.84,.48s-1.32-.16-1.84-.47c-.51-.31-.91-.77-1.18-1.37-.27-.6-.41-1.32-.41-2.16s.14-1.53,.41-2.13c.28-.6,.67-1.06,1.18-1.38s1.13-.48,1.84-.48c1.08,0,1.93,.35,2.54,1.04Zm-3.7,.91c-.25,.42-.38,1.1-.38,2.04s.13,1.62,.38,2.05,.64,.64,1.16,.64,.92-.21,1.17-.63c.25-.42,.38-1.11,.38-2.05s-.13-1.63-.38-2.05-.65-.63-1.17-.63-.91,.21-1.16,.63Z"/><path class="h" d="M538.99,200.78l-2.12,7.62h-2.24l-2.2-7.62h1.9l1.45,6.21,1.36-6.21h1.85Z"/><path class="h" d="M546,200.78l-2.44,4.76v2.86h-1.8v-2.85l-2.44-4.77h1.97l1.41,3.35,1.41-3.35h1.9Z"/></g><g><path class="g" d="M263.08,167.89v14.69h-3.03v-11.64l-3.23,1.98-1.35-2.09,4.88-2.94h2.73Z"/><path class="g" d="M275.36,169.58c.92,1.32,1.37,3.21,1.37,5.68s-.46,4.37-1.38,5.69c-.92,1.32-2.26,1.98-4.02,1.98s-3.1-.66-4.01-1.98c-.92-1.32-1.37-3.22-1.37-5.69s.46-4.36,1.37-5.68c.92-1.32,2.25-1.97,4.01-1.97s3.12,.66,4.03,1.97Zm-5.3,.85c-.32,.34-.56,.9-.71,1.68-.15,.78-.23,1.83-.23,3.15s.08,2.37,.23,3.15c.15,.78,.39,1.34,.71,1.68,.32,.34,.74,.51,1.26,.51s.95-.17,1.26-.5,.56-.89,.72-1.67c.16-.78,.24-1.83,.24-3.17s-.08-2.42-.24-3.19c-.16-.78-.4-1.33-.72-1.66s-.74-.49-1.26-.49-.95,.17-1.26,.51Z"/><path class="g" d="M287.12,173.32c.63,.38,1.13,.93,1.49,1.65,.36,.72,.54,1.59,.54,2.61s-.21,1.93-.64,2.75c-.43,.81-1.04,1.45-1.82,1.92-.78,.46-1.69,.7-2.7,.7-1.85,0-3.21-.63-4.1-1.89-.89-1.26-1.33-3-1.33-5.22,0-1.64,.25-3.08,.75-4.33,.5-1.24,1.22-2.2,2.15-2.88,.93-.68,2.03-1.01,3.29-1.01s2.35,.31,3.27,.94l-1.13,1.9c-.67-.39-1.36-.59-2.07-.59-.89,0-1.6,.39-2.14,1.16s-.84,1.85-.92,3.25c.87-1,1.94-1.5,3.21-1.5,.8,0,1.51,.19,2.15,.57Zm-1.59,6.54c.34-.54,.51-1.29,.51-2.25s-.16-1.65-.47-2.06c-.31-.41-.78-.62-1.41-.62-.89,0-1.69,.45-2.4,1.35,.03,1.57,.21,2.69,.56,3.37,.34,.68,.9,1.01,1.69,1.01,.67,0,1.17-.27,1.52-.81Z"/><path class="g" d="M293.7,179.74c.36,.36,.53,.8,.53,1.32,0,.29-.05,.59-.14,.9-.09,.31-.25,.72-.47,1.23l-1.42,3.18h-1.81l.92-3.79c-.25-.16-.44-.37-.59-.64s-.22-.56-.22-.88c0-.52,.18-.96,.53-1.32,.36-.36,.8-.53,1.32-.53s.98,.18,1.34,.53Z"/><path class="g" d="M304.26,173.32c.63,.38,1.13,.93,1.49,1.65,.36,.72,.54,1.59,.54,2.61s-.21,1.93-.64,2.75c-.43,.81-1.04,1.45-1.82,1.92-.78,.46-1.69,.7-2.7,.7-1.85,0-3.21-.63-4.1-1.89-.89-1.26-1.33-3-1.33-5.22,0-1.64,.25-3.08,.75-4.33,.5-1.24,1.22-2.2,2.15-2.88,.93-.68,2.03-1.01,3.29-1.01s2.35,.31,3.27,.94l-1.13,1.9c-.67-.39-1.36-.59-2.07-.59-.89,0-1.6,.39-2.14,1.16s-.84,1.85-.92,3.25c.87-1,1.94-1.5,3.21-1.5,.8,0,1.51,.19,2.15,.57Zm-1.59,6.54c.34-.54,.51-1.29,.51-2.25s-.16-1.65-.47-2.06c-.31-.41-.78-.62-1.41-.62-.89,0-1.69,.45-2.4,1.35,.03,1.57,.21,2.69,.56,3.37,.34,.68,.9,1.01,1.69,1.01,.67,0,1.17-.27,1.52-.81Z"/><path class="g" d="M247.53,193.09c.39,.43,.58,1.02,.58,1.75v5.64h-1.37v-5.44c0-1.01-.37-1.52-1.1-1.52-.39,0-.72,.11-.99,.34s-.56,.57-.87,1.05v5.58h-1.37v-5.44c0-1.01-.37-1.52-1.1-1.52-.4,0-.73,.11-1,.34-.27,.23-.55,.58-.85,1.04v5.58h-1.37v-7.86h1.18l.12,1.15c.59-.89,1.34-1.33,2.27-1.33,.49,0,.9,.12,1.25,.37,.34,.25,.59,.6,.74,1.04,.31-.46,.65-.81,1.02-1.05,.37-.24,.81-.37,1.32-.37,.65,0,1.16,.22,1.55,.65Z"/><path class="g" d="M256.77,197.02h-5.01c.06,.87,.28,1.5,.66,1.91s.87,.61,1.46,.61c.38,0,.73-.05,1.04-.16,.32-.11,.65-.28,1-.52l.6,.82c-.84,.66-1.75,.98-2.75,.98-1.09,0-1.95-.36-2.56-1.07-.61-.72-.92-1.7-.92-2.95,0-.82,.13-1.54,.4-2.17,.26-.63,.64-1.13,1.13-1.48,.49-.36,1.07-.54,1.74-.54,1.04,0,1.84,.34,2.4,1.03,.56,.69,.84,1.64,.84,2.85,0,.23,0,.46-.03,.7Zm-1.33-1.1c0-.78-.15-1.37-.46-1.77s-.77-.61-1.39-.61c-1.12,0-1.74,.83-1.83,2.48h3.68v-.09Z"/><path class="g" d="M265.34,192.98c-.3,.1-.63,.16-.98,.19-.36,.03-.8,.04-1.31,.04,.92,.42,1.39,1.08,1.39,1.98,0,.79-.27,1.43-.81,1.92-.54,.5-1.27,.75-2.19,.75-.36,0-.69-.05-1-.15-.12,.08-.21,.19-.28,.32-.07,.13-.1,.27-.1,.41,0,.43,.34,.64,1.03,.64h1.25c.53,0,.99,.09,1.4,.28,.41,.19,.72,.45,.95,.78,.22,.33,.33,.7,.33,1.12,0,.77-.31,1.35-.94,1.77-.63,.41-1.54,.62-2.75,.62-.85,0-1.51-.09-2.01-.26-.49-.17-.84-.44-1.05-.78s-.31-.8-.31-1.34h1.24c0,.32,.06,.57,.18,.75s.33,.32,.64,.42c.31,.09,.75,.14,1.31,.14,.83,0,1.42-.1,1.77-.31,.35-.2,.53-.51,.53-.92,0-.37-.14-.65-.42-.84-.28-.19-.67-.28-1.16-.28h-1.24c-.67,0-1.17-.14-1.51-.43-.34-.28-.51-.64-.51-1.07,0-.26,.07-.51,.22-.75,.15-.24,.36-.45,.64-.64-.46-.24-.79-.53-1.01-.89s-.32-.78-.32-1.29,.13-1,.39-1.42,.63-.74,1.09-.98c.46-.23,.98-.35,1.54-.35,.62,0,1.13-.01,1.55-.07,.42-.05,.76-.13,1.04-.22,.27-.09,.61-.23,1.01-.41l.4,1.24Zm-5.2,.93c-.28,.32-.43,.75-.43,1.28s.14,.97,.43,1.29c.29,.32,.7,.48,1.22,.48s.95-.16,1.23-.47c.28-.31,.43-.75,.43-1.32,0-1.16-.56-1.75-1.69-1.75-.52,0-.92,.16-1.2,.48Z"/><path class="g" d="M271.93,199.36c.11,.15,.27,.27,.49,.35l-.31,.96c-.41-.05-.74-.16-.98-.34-.25-.18-.43-.46-.55-.84-.53,.79-1.31,1.18-2.34,1.18-.78,0-1.39-.22-1.83-.66-.45-.44-.67-1.01-.67-1.72,0-.84,.3-1.48,.9-1.92,.6-.45,1.45-.67,2.56-.67h1.21v-.58c0-.56-.13-.96-.4-1.19-.27-.24-.68-.36-1.24-.36s-1.28,.14-2.12,.42l-.34-1c.97-.36,1.88-.54,2.71-.54,.92,0,1.62,.23,2.07,.68,.46,.45,.69,1.1,.69,1.93v3.6c0,.32,.05,.55,.16,.71Zm-1.54-.95v-1.8h-1.03c-1.45,0-2.18,.54-2.18,1.61,0,.47,.11,.82,.34,1.06,.23,.24,.57,.36,1.01,.36,.79,0,1.4-.41,1.85-1.22Z"/><path class="g" d="M278.55,200.13c-.52,.36-1.1,.54-1.76,.54s-1.19-.19-1.56-.57c-.37-.38-.56-.94-.56-1.66v-4.74h-1.37v-1.06h1.37v-1.78l1.37-.16v1.94h1.87l-.15,1.06h-1.72v4.68c0,.41,.07,.7,.22,.89,.14,.18,.38,.28,.72,.28,.31,0,.66-.1,1.04-.31l.52,.91Z"/><path class="g" d="M285.82,200.48h-1.18l-.1-1.22c-.3,.49-.64,.84-1.03,1.07-.39,.22-.86,.34-1.42,.34-.69,0-1.22-.21-1.61-.63-.39-.42-.58-1.01-.58-1.77v-5.64h1.37v5.49c0,.54,.09,.92,.28,1.14,.19,.22,.5,.34,.92,.34,.77,0,1.42-.45,1.97-1.36v-5.61h1.37v7.86Z"/><path class="g" d="M294.03,193.09c.4,.43,.6,1.01,.6,1.76v5.64h-1.37v-5.44c0-.56-.1-.95-.31-1.18-.21-.23-.52-.34-.93-.34s-.79,.12-1.1,.36-.62,.58-.89,1.03v5.58h-1.37v-7.86h1.18l.12,1.16c.28-.42,.62-.75,1.04-.98,.41-.24,.87-.36,1.37-.36,.72,0,1.28,.21,1.68,.64Z"/><path class="g" d="M306.58,190.27c.42,.16,.85,.42,1.29,.78l-.78,.91c-.63-.51-1.29-.76-1.98-.76-.86,0-1.54,.33-2.07,.98s-.78,1.71-.78,3.16,.26,2.45,.78,3.12c.52,.67,1.2,1.01,2.06,1.01,.44,0,.82-.07,1.15-.22,.33-.15,.68-.36,1.04-.63l.7,.9c-.32,.33-.73,.6-1.22,.82-.5,.22-1.07,.33-1.71,.33-.84,0-1.58-.21-2.23-.62s-1.16-1.02-1.52-1.82c-.36-.8-.54-1.76-.54-2.89s.19-2.09,.57-2.89c.38-.8,.89-1.4,1.54-1.81,.65-.41,1.37-.61,2.16-.61,.62,0,1.14,.08,1.56,.24Z"/><path class="g" d="M315.42,190.65c.65,.41,1.16,1.02,1.52,1.81,.36,.8,.54,1.76,.54,2.89s-.18,2.07-.54,2.86c-.36,.8-.87,1.4-1.52,1.82-.65,.42-1.41,.63-2.28,.63s-1.62-.2-2.27-.61-1.16-1.01-1.52-1.81c-.36-.8-.54-1.75-.54-2.88s.18-2.06,.54-2.86c.36-.81,.87-1.42,1.53-1.84,.66-.42,1.41-.63,2.27-.63s1.62,.21,2.28,.62Zm-4.36,1.56c-.5,.68-.75,1.73-.75,3.16s.25,2.47,.75,3.13c.5,.67,1.2,1,2.08,1,1.89,0,2.83-1.38,2.83-4.15s-.95-4.16-2.83-4.16c-.89,0-1.59,.34-2.09,1.01Z"/><path class="g" d="M322.91,190.71c.45,.24,.8,.56,1.05,.98,.25,.41,.37,.88,.37,1.4,0,.61-.14,1.19-.41,1.75-.27,.56-.69,1.16-1.26,1.81-.57,.65-1.43,1.55-2.58,2.7h4.49l-.16,1.15h-5.89v-1.09c1.33-1.38,2.28-2.39,2.83-3.04,.56-.64,.96-1.2,1.19-1.68,.24-.48,.36-.99,.36-1.54,0-.52-.15-.92-.45-1.22-.3-.29-.7-.44-1.19-.44-.41,0-.77,.08-1.07,.25-.31,.17-.64,.45-.99,.84l-.89-.72c.41-.51,.86-.88,1.36-1.13s1.05-.37,1.67-.37,1.12,.12,1.57,.36Z"/></g><g><path class="d" d="M208.08,336.09v.96l-4.03,6.96h4.02l-.13,1.03h-5.21v-.96l4.06-6.98h-3.65v-1h4.95Z"/><path class="d" d="M214.16,335.43v9.61h-1.04l-.08-.9c-.44,.71-1.04,1.07-1.78,1.07s-1.32-.32-1.74-.95c-.41-.63-.62-1.5-.62-2.61,0-.72,.1-1.35,.31-1.9,.2-.55,.49-.97,.86-1.27,.37-.3,.8-.45,1.29-.45,.65,0,1.19,.27,1.62,.82v-3.55l1.17,.13Zm-1.81,8.59c.23-.17,.44-.43,.64-.77v-3.43c-.39-.58-.84-.87-1.37-.87-.46,0-.82,.22-1.09,.66s-.4,1.11-.39,2c0,.91,.12,1.58,.36,2.02,.24,.43,.59,.65,1.03,.65,.31,0,.58-.09,.81-.26Z"/><path class="d" d="M219.66,338.12l-.2,1.13c-.16-.05-.34-.08-.53-.08-.38,0-.69,.15-.93,.45-.24,.3-.43,.77-.56,1.39v4.02h-1.17v-6.84h1.01l.09,1.35c.34-1.01,.91-1.51,1.7-1.51,.23,0,.42,.03,.59,.08Z"/><path class="d" d="M224.86,338.95c.49,.62,.73,1.5,.73,2.65s-.25,1.99-.74,2.63-1.17,.97-2.04,.97-1.56-.32-2.05-.95c-.49-.63-.73-1.51-.73-2.64s.25-2.02,.74-2.65,1.18-.94,2.05-.94,1.56,.31,2.04,.92Zm-3.21,.66c-.27,.43-.4,1.1-.4,2.01,0,1.78,.52,2.67,1.56,2.67s1.56-.89,1.56-2.68c0-.91-.13-1.58-.39-2-.26-.42-.65-.64-1.16-.64s-.9,.21-1.17,.64Z"/><path class="d" d="M228.45,344.76c0,.58-.08,1.06-.23,1.42-.15,.37-.37,.67-.65,.9s-.66,.46-1.14,.68l-.36-.85c.3-.16,.54-.31,.7-.47,.17-.16,.29-.36,.38-.62,.09-.26,.13-.61,.13-1.04v-6.59h1.17v6.56Zm-.03-9.57c.14,.15,.21,.33,.21,.55s-.07,.4-.21,.54-.33,.21-.56,.21-.41-.07-.55-.21c-.14-.14-.21-.32-.21-.54s.07-.4,.21-.55c.14-.15,.33-.22,.55-.22s.41,.07,.55,.22Z"/><path class="d" d="M238.47,335.43v9.61h-1.04l-.08-.9c-.44,.71-1.04,1.07-1.78,1.07s-1.32-.32-1.73-.95c-.41-.63-.62-1.5-.62-2.61,0-.72,.1-1.35,.3-1.9s.49-.97,.87-1.27c.37-.3,.8-.45,1.29-.45,.65,0,1.19,.27,1.62,.82v-3.55l1.17,.13Zm-1.81,8.59c.23-.17,.45-.43,.64-.77v-3.43c-.39-.58-.85-.87-1.37-.87-.46,0-.82,.22-1.09,.66-.27,.44-.4,1.11-.39,2,0,.91,.12,1.58,.36,2.02,.24,.43,.59,.65,1.03,.65,.31,0,.58-.09,.81-.26Z"/><path class="d" d="M244.96,344.09c.08,.13,.2,.24,.37,.31l-.25,.79c-.34-.05-.6-.16-.79-.31-.19-.16-.32-.39-.4-.72-.44,.69-1.06,1.04-1.86,1.04-.61,0-1.09-.19-1.44-.57s-.53-.88-.53-1.51c0-.73,.24-1.28,.72-1.66,.48-.38,1.16-.57,2.04-.57h.88v-.58c0-.48-.1-.82-.29-1.03-.19-.21-.51-.32-.96-.32-.48,0-1.03,.12-1.66,.36l-.29-.82c.76-.31,1.47-.47,2.13-.47,1.48,0,2.22,.74,2.22,2.22v3.22c0,.28,.04,.48,.12,.62Zm-1.27-.84v-1.61h-.75c-1.13,0-1.69,.47-1.69,1.42,0,.41,.09,.72,.27,.94,.18,.22,.44,.33,.78,.33,.61,0,1.07-.36,1.39-1.07Z"/><path class="d" d="M250.19,344.73c-.43,.31-.91,.47-1.44,.47s-.98-.16-1.28-.48-.45-.77-.45-1.35v-4.29h-.98v-.88h.98v-1.57l1.17-.14v1.72h1.51l-.13,.88h-1.38v4.28c0,.59,.25,.88,.74,.88,.15,0,.28-.02,.41-.06,.12-.04,.27-.11,.42-.2l.43,.75Z"/><path class="d" d="M252.16,338.95c.15,.16,.23,.35,.23,.58s-.07,.42-.23,.58c-.15,.17-.35,.25-.59,.25s-.43-.08-.58-.25c-.15-.16-.23-.36-.23-.58s.08-.42,.23-.58c.15-.16,.34-.24,.58-.24s.44,.08,.59,.24Zm0,4.84c.15,.16,.23,.35,.23,.58s-.07,.42-.23,.58-.35,.25-.59,.25-.43-.08-.58-.25-.23-.36-.23-.58,.08-.42,.23-.58c.15-.16,.34-.24,.58-.24s.44,.08,.59,.24Z"/><path class="d" d="M260.62,336.18c.39,.17,.77,.43,1.11,.78l-.61,.69c-.29-.26-.59-.45-.88-.58-.29-.13-.6-.19-.94-.19-.43,0-.78,.12-1.05,.36s-.4,.55-.4,.94c0,.26,.05,.48,.16,.67,.1,.19,.28,.36,.53,.51,.25,.15,.61,.31,1.06,.46,.53,.19,.96,.39,1.3,.61,.34,.22,.6,.49,.78,.83,.18,.34,.27,.76,.27,1.27s-.12,.97-.35,1.37c-.23,.4-.57,.72-1.01,.95-.44,.23-.95,.34-1.54,.34-1.08,0-2.01-.39-2.77-1.17l.64-.69c.32,.29,.65,.5,.98,.66,.33,.15,.7,.23,1.11,.23,.51,0,.92-.15,1.23-.44,.31-.29,.46-.69,.46-1.2,0-.44-.12-.79-.37-1.05-.25-.26-.7-.5-1.36-.73-.84-.29-1.45-.64-1.81-1.03-.37-.39-.55-.9-.55-1.52,0-.44,.11-.84,.33-1.2,.22-.36,.53-.64,.93-.84s.85-.3,1.35-.3c.53,0,.99,.09,1.38,.26Zm.14-2.91l.46,.51-1.57,1.46h-.73l-1.57-1.46,.47-.51,1.47,1.05,1.48-1.05Z"/><path class="d" d="M267.89,344.09c.08,.13,.2,.24,.36,.31l-.25,.79c-.34-.05-.6-.16-.79-.31-.19-.16-.33-.39-.4-.72-.44,.69-1.06,1.04-1.86,1.04-.61,0-1.09-.19-1.44-.57s-.53-.88-.53-1.51c0-.73,.24-1.28,.71-1.66,.48-.38,1.16-.57,2.04-.57h.88v-.58c0-.48-.1-.82-.29-1.03-.2-.21-.51-.32-.96-.32-.48,0-1.03,.12-1.66,.36l-.29-.82c.76-.31,1.47-.47,2.13-.47,1.48,0,2.22,.74,2.22,2.22v3.22c0,.28,.04,.48,.12,.62Zm-1.27-.84v-1.61h-.75c-1.13,0-1.69,.47-1.69,1.42,0,.41,.09,.72,.27,.94,.18,.22,.44,.33,.78,.33,.61,0,1.07-.36,1.39-1.07Z"/><path class="d" d="M274.22,338.57c.31,.36,.46,.86,.46,1.49v4.98h-1.17v-4.84c0-.44-.07-.76-.22-.96-.15-.19-.37-.29-.68-.29-.57,0-1.09,.41-1.56,1.22v4.86h-1.17v-6.84h1.02l.09,1.01c.53-.79,1.18-1.18,1.95-1.18,.54,0,.97,.18,1.28,.54Z"/><path class="d" d="M280.11,338.21c.3,.12,.59,.31,.87,.56l-.52,.7c-.21-.16-.42-.29-.62-.37-.21-.08-.43-.12-.68-.12-.51,0-.91,.22-1.19,.65-.28,.43-.42,1.11-.42,2.03,0,1.72,.54,2.57,1.61,2.57,.24,0,.46-.04,.66-.12,.2-.08,.41-.21,.64-.37l.55,.71c-.55,.5-1.18,.75-1.88,.75-.88,0-1.56-.3-2.06-.91-.5-.61-.75-1.48-.75-2.63,0-.75,.12-1.39,.34-1.94,.23-.55,.55-.97,.97-1.26,.42-.29,.91-.44,1.48-.44,.36,0,.7,.06,1,.18Z"/><path class="d" d="M286.82,342.02h-3.98c.04,.8,.2,1.37,.48,1.72,.29,.35,.68,.53,1.17,.53,.31,0,.59-.05,.84-.14,.25-.1,.5-.25,.77-.47l.52,.69c-.64,.57-1.37,.86-2.18,.86-.89,0-1.58-.31-2.07-.93-.49-.62-.73-1.49-.73-2.61s.23-2,.7-2.66c.47-.65,1.12-.98,1.95-.98s1.46,.29,1.9,.88,.66,1.42,.66,2.5c0,.18,0,.39-.03,.61Zm-1.11-.96c0-1.43-.47-2.15-1.42-2.15-.43,0-.78,.18-1.03,.54-.25,.36-.39,.94-.43,1.75h2.87v-.14Z"/><path class="d" d="M296.16,338.95c.38,.62,.57,1.5,.57,2.64s-.21,1.99-.63,2.64c-.42,.65-1.01,.98-1.76,.98-.68,0-1.22-.27-1.64-.82v3.25l-1.17,.14v-9.58h1.03l.06,.92c.47-.73,1.09-1.09,1.86-1.09s1.31,.31,1.68,.92Zm-.66,2.65c0-.93-.11-1.6-.33-2.02-.22-.42-.56-.63-1.01-.63-.3,0-.57,.09-.81,.27s-.46,.43-.66,.74v3.46c.36,.56,.81,.84,1.37,.84,.96,0,1.44-.89,1.44-2.67Z"/><path class="d" d="M301.83,338.12l-.2,1.13c-.17-.05-.34-.08-.53-.08-.38,0-.69,.15-.93,.45-.24,.3-.43,.77-.57,1.39v4.02h-1.17v-6.84h1.02l.09,1.35c.34-1.01,.91-1.51,1.7-1.51,.22,0,.42,.03,.59,.08Z"/><path class="d" d="M307.03,338.95c.48,.62,.73,1.5,.73,2.65s-.25,1.99-.74,2.63-1.17,.97-2.04,.97-1.56-.32-2.05-.95c-.49-.63-.73-1.51-.73-2.64s.25-2.02,.74-2.65,1.18-.94,2.05-.94,1.55,.31,2.04,.92Zm-3.21,.66c-.27,.43-.4,1.1-.4,2.01,0,1.78,.52,2.67,1.56,2.67s1.56-.89,1.56-2.68c0-.91-.13-1.58-.39-2-.26-.42-.64-.64-1.16-.64s-.9,.21-1.17,.64Z"/><path class="d" d="M317.11,338.94c.39,.61,.59,1.5,.59,2.66s-.21,1.99-.64,2.63c-.43,.65-1.01,.97-1.75,.97-.35,0-.66-.08-.95-.24-.29-.16-.53-.39-.74-.68l-.08,.75h-1.04v-9.59l1.17-.13v3.72c.22-.31,.47-.56,.77-.73,.3-.18,.63-.27,.99-.27,.72,0,1.28,.31,1.67,.92Zm-.63,2.66c0-.96-.12-1.64-.35-2.05s-.57-.6-1-.6c-.3,0-.57,.09-.8,.27s-.45,.44-.66,.77v3.39c.16,.27,.36,.49,.6,.65s.49,.25,.77,.25c.96,0,1.44-.89,1.44-2.68Z"/><path class="d" d="M324.12,345.03h-1.01l-.07-1.03c-.48,.8-1.11,1.2-1.91,1.2-.55,0-.97-.18-1.29-.53s-.47-.84-.47-1.44v-5.03h1.17v4.93c0,.4,.08,.69,.23,.88,.15,.19,.38,.28,.68,.28,.58,0,1.08-.38,1.5-1.14v-4.94h1.17v6.84Z"/><path class="d" d="M331.08,335.43v9.61h-1.04l-.08-.9c-.44,.71-1.04,1.07-1.78,1.07s-1.32-.32-1.74-.95c-.41-.63-.62-1.5-.62-2.61,0-.72,.1-1.35,.31-1.9,.2-.55,.49-.97,.86-1.27,.37-.3,.8-.45,1.29-.45,.65,0,1.19,.27,1.62,.82v-3.55l1.17,.13Zm-1.81,8.59c.23-.17,.44-.43,.64-.77v-3.43c-.39-.58-.84-.87-1.37-.87-.46,0-.82,.22-1.09,.66-.27,.44-.4,1.11-.39,2,0,.91,.12,1.58,.36,2.02,.24,.43,.58,.65,1.03,.65,.31,0,.58-.09,.81-.26Z"/><path class="d" d="M337.61,338.95c.49,.62,.73,1.5,.73,2.65s-.25,1.99-.74,2.63-1.18,.97-2.04,.97-1.56-.32-2.05-.95c-.49-.63-.73-1.51-.73-2.64s.25-2.02,.74-2.65,1.18-.94,2.05-.94,1.56,.31,2.04,.92Zm-3.21,.66c-.27,.43-.4,1.1-.4,2.01,0,1.78,.52,2.67,1.56,2.67s1.56-.89,1.56-2.68c0-.91-.13-1.58-.39-2-.26-.42-.65-.64-1.16-.64s-.9,.21-1.17,.64Z"/><path class="d" d="M344.59,338.19l-2.04,6.84h-1.4l-2.11-6.84h1.22l1.59,5.85,1.57-5.85h1.17Z"/><path class="d" d="M348.33,345.06c-.24,.81-.59,1.43-1.03,1.87s-1.07,.72-1.88,.85l-.13-.87c.41-.09,.73-.2,.97-.35,.24-.15,.44-.34,.59-.57,.15-.23,.29-.55,.43-.95h-.43l-2.03-6.84h1.21l1.59,6.02,1.59-6.02h1.2l-2.07,6.86Z"/><path class="d" d="M356.42,334.54v11.82h-1.09v-11.82h1.09Z"/><path class="d" d="M370.8,336.09l-2.47,8.94h-1.44l-2.51-8.94h1.25l2,7.77,1.98-7.77h1.2Z"/><path class="d" d="M373.09,335.19c.14,.15,.21,.33,.21,.55s-.07,.4-.21,.54-.32,.21-.56,.21-.41-.07-.55-.21-.21-.32-.21-.54,.07-.4,.21-.55,.33-.22,.55-.22,.41,.07,.55,.22Zm.03,3v6.84h-1.17v-6.84h1.17Z"/><path class="d" d="M378.96,338.19v.87l-3.24,5h3.25l-.12,.96h-4.42v-.87l3.24-5h-2.96v-.96h4.25Z"/><path class="d" d="M384.95,345.03h-1.01l-.06-1.03c-.48,.8-1.11,1.2-1.91,1.2-.54,0-.97-.18-1.29-.53-.31-.36-.47-.84-.47-1.44v-5.03h1.17v4.93c0,.4,.08,.69,.23,.88,.15,.19,.38,.28,.68,.28,.58,0,1.08-.38,1.49-1.14v-4.94h1.17v6.84Z"/><path class="d" d="M391.44,344.09c.08,.13,.2,.24,.37,.31l-.25,.79c-.34-.05-.6-.16-.79-.31-.19-.16-.32-.39-.4-.72-.44,.69-1.06,1.04-1.86,1.04-.61,0-1.09-.19-1.44-.57s-.53-.88-.53-1.51c0-.73,.24-1.28,.72-1.66,.48-.38,1.16-.57,2.04-.57h.88v-.58c0-.48-.1-.82-.29-1.03-.19-.21-.51-.32-.96-.32-.48,0-1.03,.12-1.66,.36l-.29-.82c.76-.31,1.47-.47,2.13-.47,1.48,0,2.22,.74,2.22,2.22v3.22c0,.28,.04,.48,.12,.62Zm-1.27-.84v-1.61h-.75c-1.13,0-1.69,.47-1.69,1.42,0,.41,.09,.72,.27,.94,.18,.22,.44,.33,.78,.33,.61,0,1.07-.36,1.39-1.07Z"/><path class="d" d="M393.6,344.82c-.24-.25-.36-.6-.36-1.05v-8.35l1.17-.13v8.44c0,.34,.14,.51,.42,.51,.11,0,.24-.03,.38-.08l.26,.82c-.28,.15-.57,.22-.87,.22-.42,0-.74-.13-.99-.38Z"/><path class="d" d="M397.87,335.19c.14,.15,.21,.33,.21,.55s-.07,.4-.21,.54-.32,.21-.56,.21-.41-.07-.55-.21-.21-.32-.21-.54,.07-.4,.21-.55,.33-.22,.55-.22,.41,.07,.55,.22Zm.03,3v6.84h-1.17v-6.84h1.17Z"/><path class="d" d="M403.74,338.19v.87l-3.24,5h3.25l-.12,.96h-4.42v-.87l3.24-5h-2.96v-.96h4.25Z"/><path class="d" d="M409.37,344.09c.08,.13,.2,.24,.36,.31l-.25,.79c-.34-.05-.6-.16-.79-.31-.19-.16-.33-.39-.4-.72-.44,.69-1.06,1.04-1.86,1.04-.61,0-1.09-.19-1.44-.57s-.53-.88-.53-1.51c0-.73,.24-1.28,.71-1.66,.48-.38,1.16-.57,2.04-.57h.88v-.58c0-.48-.1-.82-.29-1.03-.2-.21-.51-.32-.96-.32-.48,0-1.03,.12-1.66,.36l-.29-.82c.76-.31,1.47-.47,2.13-.47,1.48,0,2.22,.74,2.22,2.22v3.22c0,.28,.04,.48,.12,.62Zm-1.27-.84v-1.61h-.75c-1.13,0-1.69,.47-1.69,1.42,0,.41,.09,.72,.27,.94,.18,.22,.44,.33,.78,.33,.61,0,1.07-.36,1.39-1.07Z"/><path class="d" d="M414.74,338.21c.3,.12,.59,.31,.87,.56l-.52,.7c-.21-.16-.42-.29-.62-.37-.21-.08-.43-.12-.68-.12-.51,0-.91,.22-1.19,.65-.28,.43-.42,1.11-.42,2.03,0,1.72,.54,2.57,1.61,2.57,.24,0,.46-.04,.66-.12,.2-.08,.41-.21,.64-.37l.54,.71c-.55,.5-1.18,.75-1.88,.75-.88,0-1.56-.3-2.06-.91-.5-.61-.75-1.48-.75-2.63,0-.75,.12-1.39,.35-1.94,.23-.55,.55-.97,.97-1.26s.91-.44,1.47-.44c.37,0,.7,.06,1,.18Z"/><path class="d" d="M421.44,342.02h-3.98c.04,.8,.2,1.37,.48,1.72,.29,.35,.68,.53,1.17,.53,.31,0,.59-.05,.84-.14,.25-.1,.5-.25,.77-.47l.52,.69c-.64,.57-1.37,.86-2.18,.86-.89,0-1.58-.31-2.07-.93-.49-.62-.73-1.49-.73-2.61s.23-2,.7-2.66c.47-.65,1.12-.98,1.95-.98s1.46,.29,1.9,.88,.66,1.42,.66,2.5c0,.18,0,.39-.03,.61Zm-1.11-.96c0-1.43-.47-2.15-1.42-2.15-.43,0-.78,.18-1.03,.54-.25,.36-.39,.94-.43,1.75h2.87v-.14Z"/><path class="d" d="M424,338.95c.15,.16,.23,.35,.23,.58s-.07,.42-.23,.58c-.15,.17-.35,.25-.59,.25s-.43-.08-.58-.25c-.15-.16-.23-.36-.23-.58s.08-.42,.23-.58c.15-.16,.34-.24,.58-.24s.44,.08,.59,.24Zm0,4.84c.15,.16,.23,.35,.23,.58s-.07,.42-.23,.58-.35,.25-.59,.25-.43-.08-.58-.25-.23-.36-.23-.58,.08-.42,.23-.58c.15-.16,.34-.24,.58-.24s.44,.08,.59,.24Z"/><path class="d" d="M430.04,335.19c.14,.15,.21,.33,.21,.55s-.07,.4-.21,.54-.32,.21-.56,.21-.41-.07-.55-.21-.21-.32-.21-.54,.07-.4,.21-.55,.33-.22,.55-.22,.41,.07,.55,.22Zm.03,3v6.84h-1.17v-6.84h1.17Z"/><path class="d" d="M436.63,345.03l-1.92-3.81h-1.26v3.81h-1.21v-8.94h2.09c2.13,0,3.2,.84,3.2,2.52,0,.59-.14,1.09-.43,1.5-.29,.41-.71,.71-1.26,.9l2.13,4.03h-1.34Zm-.82-5.14c.3-.27,.46-.7,.46-1.28,0-.55-.15-.95-.46-1.21-.31-.26-.81-.39-1.5-.39h-.86v3.29h.97c.62,0,1.09-.14,1.39-.41Z"/><path class="d" d="M444.69,337.1c.61,.78,.92,1.94,.92,3.46s-.3,2.65-.91,3.45c-.61,.8-1.45,1.2-2.52,1.2s-1.9-.39-2.52-1.18c-.61-.78-.92-1.94-.92-3.45,0-1,.14-1.84,.42-2.54,.28-.7,.68-1.22,1.2-1.58,.52-.35,1.12-.53,1.81-.53,1.07,0,1.9,.39,2.52,1.18Zm-4.67,3.48c0,2.44,.72,3.65,2.16,3.65,.71,0,1.25-.29,1.61-.87,.36-.58,.54-1.51,.54-2.8s-.18-2.21-.55-2.79c-.37-.59-.9-.88-1.61-.88-1.44,0-2.16,1.23-2.16,3.69Z"/><path class="d" d="M451.62,336.09v.96l-4.03,6.96h4.02l-.13,1.03h-5.21v-.96l4.06-6.98h-3.65v-1h4.95Z"/><path class="d" d="M457.64,345.03v-4.2h-3.25v4.2h-1.21v-8.94h1.21v3.76h3.25v-3.76h1.21v8.94h-1.21Z"/><path class="d" d="M462.26,336.09v7.92h3.26l-.13,1.03h-4.34v-8.94h1.21Z"/><path class="d" d="M471.21,345.03l-.6-2.27h-3l-.6,2.27h-1.21l2.59-8.94h1.48l2.59,8.94h-1.25Zm-3.35-3.22h2.51l-1.25-4.76-1.26,4.76Z"/><path class="d" d="M477.16,336.18c.39,.17,.76,.43,1.11,.78l-.61,.69c-.29-.26-.59-.45-.88-.58-.29-.13-.61-.19-.94-.19-.43,0-.78,.12-1.05,.36-.26,.24-.4,.55-.4,.94,0,.26,.05,.48,.16,.67,.11,.19,.28,.36,.53,.51,.25,.15,.61,.31,1.07,.46,.53,.19,.96,.39,1.3,.61,.34,.22,.6,.49,.78,.83s.27,.76,.27,1.27-.12,.97-.35,1.37-.57,.72-1.01,.95c-.44,.23-.95,.34-1.54,.34-1.08,0-2.01-.39-2.77-1.17l.64-.69c.32,.29,.65,.5,.98,.66,.33,.15,.71,.23,1.11,.23,.51,0,.92-.15,1.23-.44,.31-.29,.46-.69,.46-1.2,0-.44-.12-.79-.37-1.05-.25-.26-.7-.5-1.36-.73-.84-.29-1.44-.64-1.81-1.03s-.55-.9-.55-1.52c0-.44,.11-.84,.33-1.2,.22-.36,.53-.64,.93-.84s.85-.3,1.35-.3c.53,0,.99,.09,1.38,.26Z"/><path class="d" d="M480.95,343.79c.15,.16,.23,.35,.23,.58s-.08,.42-.23,.58c-.15,.16-.35,.25-.59,.25s-.43-.08-.58-.25c-.15-.16-.23-.36-.23-.58s.08-.42,.23-.58c.15-.16,.35-.24,.58-.24s.44,.08,.59,.24Z"/><path class="d" d="M486.05,338.21c.3,.12,.59,.31,.87,.56l-.52,.7c-.21-.16-.42-.29-.62-.37-.21-.08-.43-.12-.68-.12-.51,0-.91,.22-1.19,.65-.28,.43-.42,1.11-.42,2.03,0,1.72,.54,2.57,1.61,2.57,.24,0,.46-.04,.66-.12,.2-.08,.41-.21,.64-.37l.54,.71c-.55,.5-1.18,.75-1.88,.75-.88,0-1.56-.3-2.06-.91-.5-.61-.75-1.48-.75-2.63,0-.75,.12-1.39,.35-1.94,.23-.55,.55-.97,.97-1.26s.91-.44,1.47-.44c.37,0,.7,.06,1,.18Z"/><path class="d" d="M491.97,338.19v.87l-3.24,5h3.25l-.12,.96h-4.42v-.87l3.24-5h-2.96v-.96h4.25Z"/><path class="d" d="M494.24,343.78c.15,.16,.22,.35,.22,.57,0,.12-.02,.25-.06,.38-.04,.13-.1,.32-.19,.56l-.71,1.83h-.73l.48-2.07c-.25-.16-.38-.39-.38-.69,0-.23,.08-.43,.23-.58,.15-.16,.34-.23,.58-.23s.41,.08,.56,.23Z"/><path class="d" d="M500.41,336.09v8.94h-1.21v-8.94h1.21Zm4.39,0l-3.03,4.08,3.24,4.86h-1.39l-3.16-4.78,3.05-4.16h1.29Z"/><path class="d" d="M509.41,338.12l-.2,1.13c-.17-.05-.34-.08-.53-.08-.38,0-.69,.15-.93,.45-.24,.3-.43,.77-.57,1.39v4.02h-1.17v-6.84h1.02l.09,1.35c.34-1.01,.91-1.51,1.7-1.51,.22,0,.42,.03,.59,.08Z"/><path class="d" d="M511.7,335.19c.14,.15,.21,.33,.21,.55s-.07,.4-.21,.54-.32,.21-.56,.21-.41-.07-.55-.21-.21-.32-.21-.54,.07-.4,.21-.55,.33-.22,.55-.22,.41,.07,.55,.22Zm.03,3v6.84h-1.17v-6.84h1.17Z"/><path class="d" d="M517.71,338.81l-.49,.69c-.28-.19-.54-.33-.78-.43-.24-.1-.5-.14-.77-.14-.36,0-.63,.08-.84,.25-.21,.17-.31,.4-.31,.7s.1,.51,.29,.68,.56,.33,1.11,.51c.68,.22,1.18,.48,1.49,.79,.31,.31,.47,.74,.47,1.29,0,.64-.23,1.15-.7,1.51-.47,.37-1.05,.55-1.76,.55-.93,0-1.71-.31-2.35-.92l.6-.65c.54,.44,1.12,.66,1.73,.66,.38,0,.69-.1,.92-.29,.23-.19,.35-.46,.35-.79,0-.24-.04-.44-.12-.58s-.23-.28-.44-.4c-.21-.12-.52-.24-.93-.37-.65-.22-1.12-.48-1.4-.78-.29-.3-.43-.69-.43-1.16,0-.36,.1-.69,.29-.98,.19-.29,.46-.51,.79-.68s.73-.25,1.17-.25c.79,0,1.49,.26,2.11,.78Z"/><path class="d" d="M522.62,344.73c-.43,.31-.91,.47-1.44,.47s-.98-.16-1.28-.48-.45-.77-.45-1.35v-4.29h-.98v-.88h.98v-1.57l1.17-.14v1.72h1.51l-.13,.88h-1.38v4.28c0,.59,.25,.88,.74,.88,.15,0,.28-.02,.41-.06,.12-.04,.27-.11,.42-.2l.43,.75Z"/><path class="d" d="M525.08,334.67l.49,.94-2.5,1.13-.34-.6,2.34-1.47Zm-.27,3.52v6.84h-1.17v-6.84h1.17Z"/><path class="d" d="M531.25,338.57c.31,.36,.46,.86,.46,1.49v4.98h-1.17v-4.84c0-.44-.07-.76-.22-.96-.15-.19-.37-.29-.68-.29-.57,0-1.09,.41-1.56,1.22v4.86h-1.17v-6.84h1.02l.09,1.01c.53-.79,1.18-1.18,1.95-1.18,.54,0,.97,.18,1.28,.54Z"/><path class="d" d="M538.14,344.09c.08,.13,.2,.24,.36,.31l-.25,.79c-.34-.05-.6-.16-.79-.31-.19-.16-.33-.39-.4-.72-.44,.69-1.06,1.04-1.86,1.04-.61,0-1.09-.19-1.44-.57s-.53-.88-.53-1.51c0-.73,.24-1.28,.71-1.66,.48-.38,1.16-.57,2.04-.57h.88v-.58c0-.48-.1-.82-.29-1.03-.2-.21-.51-.32-.96-.32-.48,0-1.03,.12-1.66,.36l-.29-.82c.76-.31,1.47-.47,2.13-.47,1.48,0,2.22,.74,2.22,2.22v3.22c0,.28,.04,.48,.12,.62Zm-1.27-.84v-1.61h-.75c-1.13,0-1.69,.47-1.69,1.42,0,.41,.09,.72,.27,.94,.18,.22,.44,.33,.78,.33,.61,0,1.07-.36,1.39-1.07Z"/><path class="d" d="M547.82,336.09v.96l-4.03,6.96h4.02l-.13,1.03h-5.21v-.96l4.05-6.98h-3.65v-1h4.95Z"/><path class="d" d="M553.51,344.09c.08,.13,.2,.24,.37,.31l-.25,.79c-.34-.05-.6-.16-.79-.31-.19-.16-.32-.39-.4-.72-.44,.69-1.06,1.04-1.86,1.04-.61,0-1.09-.19-1.44-.57s-.53-.88-.53-1.51c0-.73,.24-1.28,.72-1.66,.48-.38,1.16-.57,2.04-.57h.88v-.58c0-.48-.1-.82-.29-1.03-.19-.21-.51-.32-.96-.32-.48,0-1.03,.12-1.66,.36l-.29-.82c.76-.31,1.47-.47,2.13-.47,1.48,0,2.22,.74,2.22,2.22v3.22c0,.28,.04,.48,.12,.62Zm-1.49-9.42l.49,.94-2.5,1.13-.34-.6,2.34-1.47Zm.22,8.58v-1.61h-.75c-1.13,0-1.69,.47-1.69,1.42,0,.41,.09,.72,.27,.94,.18,.22,.44,.33,.78,.33,.61,0,1.07-.36,1.39-1.07Z"/><path class="d" d="M556.67,335.3v9.74h-1.17v-9.61l1.17-.13Zm3.6,2.9l-2.31,3.04,2.54,3.8h-1.3l-2.46-3.74,2.31-3.09h1.22Z"/><path class="d" d="M565.86,338.95c.49,.62,.73,1.5,.73,2.65s-.25,1.99-.74,2.63-1.18,.97-2.04,.97-1.56-.32-2.05-.95c-.49-.63-.73-1.51-.73-2.64s.25-2.02,.74-2.65,1.18-.94,2.05-.94,1.56,.31,2.04,.92Zm-3.21,.66c-.27,.43-.4,1.1-.4,2.01,0,1.78,.52,2.67,1.56,2.67s1.56-.89,1.56-2.68c0-.91-.13-1.58-.39-2-.26-.42-.65-.64-1.16-.64s-.9,.21-1.17,.64Z"/><path class="d" d="M572.91,338.95c.38,.62,.57,1.5,.57,2.64s-.21,1.99-.63,2.64c-.42,.65-1.01,.98-1.76,.98-.68,0-1.22-.27-1.64-.82v3.25l-1.17,.14v-9.58h1.03l.06,.92c.47-.73,1.09-1.09,1.86-1.09s1.31,.31,1.68,.92Zm-.66,2.65c0-.93-.11-1.6-.33-2.02-.22-.42-.56-.63-1.01-.63-.3,0-.57,.09-.81,.27s-.46,.43-.66,.74v3.46c.36,.56,.81,.84,1.37,.84,.96,0,1.44-.89,1.44-2.67Z"/><path class="d" d="M578.57,338.21c.3,.12,.59,.31,.87,.56l-.52,.7c-.21-.16-.42-.29-.62-.37-.21-.08-.43-.12-.68-.12-.51,0-.91,.22-1.19,.65-.28,.43-.42,1.11-.42,2.03,0,1.72,.54,2.57,1.61,2.57,.24,0,.46-.04,.66-.12,.2-.08,.41-.21,.64-.37l.54,.71c-.55,.5-1.18,.75-1.88,.75-.88,0-1.56-.3-2.06-.91-.5-.61-.75-1.48-.75-2.63,0-.75,.12-1.39,.35-1.94,.23-.55,.55-.97,.97-1.26s.91-.44,1.47-.44c.37,0,.7,.06,1,.18Zm.47-3.35l.46,.52-1.57,1.51h-.73l-1.57-1.51,.46-.52,1.48,1.14,1.48-1.14Z"/><path class="d" d="M585.01,344.09c.08,.13,.2,.24,.37,.31l-.25,.79c-.34-.05-.6-.16-.79-.31-.19-.16-.32-.39-.4-.72-.44,.69-1.06,1.04-1.86,1.04-.61,0-1.09-.19-1.44-.57s-.53-.88-.53-1.51c0-.73,.24-1.28,.72-1.66,.48-.38,1.16-.57,2.04-.57h.88v-.58c0-.48-.1-.82-.29-1.03-.19-.21-.51-.32-.96-.32-.48,0-1.03,.12-1.66,.36l-.29-.82c.76-.31,1.47-.47,2.13-.47,1.48,0,2.22,.74,2.22,2.22v3.22c0,.28,.04,.48,.12,.62Zm-1.27-.84v-1.61h-.75c-1.13,0-1.69,.47-1.69,1.42,0,.41,.09,.72,.27,.94,.18,.22,.44,.33,.78,.33,.61,0,1.07-.36,1.39-1.07Z"/><path class="d" d="M591.33,338.57c.31,.36,.46,.86,.46,1.49v4.98h-1.17v-4.84c0-.44-.07-.76-.22-.96-.15-.19-.37-.29-.68-.29-.57,0-1.09,.41-1.56,1.22v4.86h-1.17v-6.84h1.01l.09,1.01c.53-.79,1.18-1.18,1.95-1.18,.55,0,.97,.18,1.28,.54Z"/><path class="d" d="M598.27,338.95c.49,.62,.73,1.5,.73,2.65s-.25,1.99-.74,2.63-1.18,.97-2.04,.97-1.56-.32-2.05-.95c-.49-.63-.73-1.51-.73-2.64s.25-2.02,.74-2.65,1.18-.94,2.05-.94,1.56,.31,2.04,.92Zm-3.21,.66c-.27,.43-.4,1.1-.4,2.01,0,1.78,.52,2.67,1.56,2.67s1.56-.89,1.56-2.68c0-.91-.13-1.58-.39-2-.26-.42-.65-.64-1.16-.64s-.9,.21-1.17,.64Z"/><path class="d" d="M605.25,338.19l-2.04,6.84h-1.4l-2.11-6.84h1.22l1.59,5.85,1.57-5.85h1.17Z"/><path class="d" d="M610.62,344.09c.08,.13,.2,.24,.37,.31l-.25,.79c-.34-.05-.6-.16-.79-.31-.19-.16-.32-.39-.4-.72-.44,.69-1.06,1.04-1.86,1.04-.61,0-1.09-.19-1.44-.57s-.53-.88-.53-1.51c0-.73,.24-1.28,.72-1.66,.48-.38,1.16-.57,2.04-.57h.88v-.58c0-.48-.1-.82-.29-1.03-.19-.21-.51-.32-.96-.32-.48,0-1.03,.12-1.66,.36l-.29-.82c.76-.31,1.47-.47,2.13-.47,1.48,0,2.22,.74,2.22,2.22v3.22c0,.28,.04,.48,.12,.62Zm-1.49-9.42l.49,.94-2.5,1.13-.34-.6,2.34-1.47Zm.22,8.58v-1.61h-.75c-1.13,0-1.69,.47-1.69,1.42,0,.41,.09,.72,.27,.94,.18,.22,.44,.33,.78,.33,.61,0,1.07-.36,1.39-1.07Z"/></g></svg>