<?xml version="1.0" encoding="UTF-8"?><svg id="a" xmlns="http://www.w3.org/2000/svg" viewBox="0 0 620 444.42"><defs><style>.b{fill:#f9b197;}.c{fill:#f49477;}.d{fill:#e49477;}.e{fill:#fcd1c2;}.f{fill:#fcf3ed;}.g{fill:#999;}.h{stroke-linecap:round;stroke-linejoin:round;stroke-width:2px;}.h,.i{stroke:#000;}.h,.i,.j{fill:none;}.i,.j{stroke-miterlimit:10;}.j{stroke:#f2f2f2;}.k{isolation:isolate;}</style></defs><g class="k"><path class="d" d="M12.22,10.99l-3.69,12.44h-2.83L1.91,10.99h2.56l2.7,10.33,2.63-10.33h2.43Z"/><path class="d" d="M20.42,14.4c.47,.51,.71,1.22,.71,2.13v6.89h-2.3v-6.53c0-.56-.1-.96-.3-1.19-.2-.23-.49-.34-.87-.34s-.75,.12-1.07,.37c-.32,.25-.63,.6-.93,1.07v6.62h-2.3V13.91h2l.18,1.24c.78-1.01,1.75-1.51,2.9-1.51,.85,0,1.51,.25,1.99,.77Z"/><path class="d" d="M26,9.49c.27,.27,.4,.6,.4,1s-.13,.73-.4,.99c-.27,.26-.62,.4-1.05,.4s-.76-.13-1.03-.4c-.27-.26-.41-.59-.41-.99s.13-.73,.41-1c.27-.27,.61-.41,1.03-.41s.78,.14,1.05,.41Zm.12,4.42v9.52h-2.3V13.91h2.3Z"/><path class="d" d="M34.35,22.98c-.34,.24-.71,.42-1.12,.54-.41,.12-.84,.18-1.27,.18-.94-.01-1.65-.28-2.13-.8-.49-.52-.73-1.29-.73-2.31v-5.02h-1.49v-1.66h1.49v-2.11l2.3-.27v2.38h2.21l-.23,1.66h-1.98v4.97c0,.47,.08,.8,.24,1.01,.16,.2,.42,.31,.77,.31s.73-.11,1.13-.34l.81,1.48Z"/><path class="d" d="M40.84,9.03l.88,1.01-2.5,2.25h-1.44l-2.5-2.25,.88-1.01,2.34,1.58,2.34-1.58Zm.45,4.75l-.4,2.23c-.29-.07-.57-.11-.85-.11-.56,0-1.01,.2-1.33,.6s-.58,1.02-.77,1.84v5.08h-2.3V13.91h2l.22,1.87c.23-.68,.56-1.21,.99-1.58,.43-.37,.93-.55,1.49-.55,.35,0,.67,.04,.95,.13Z"/><path class="d" d="M49.8,14.4c.47,.51,.71,1.22,.71,2.13v6.89h-2.3v-6.53c0-.56-.1-.96-.3-1.19-.2-.23-.49-.34-.87-.34s-.75,.12-1.07,.37c-.32,.25-.63,.6-.93,1.07v6.62h-2.3V13.91h2l.18,1.24c.78-1.01,1.75-1.51,2.9-1.51,.85,0,1.51,.25,1.99,.77Z"/><path class="d" d="M55.71,8.67l.94,1.8-4.07,1.62-.65-1.17,3.78-2.25Zm-.22,5.24v9.52h-2.3V13.91h2.3Z"/><path class="d" d="M68.22,22.98c-.34,.24-.71,.42-1.12,.54-.41,.12-.84,.18-1.27,.18-.94-.01-1.65-.28-2.13-.8-.49-.52-.73-1.29-.73-2.31v-5.02h-1.49v-1.66h1.49v-2.11l2.3-.27v2.38h2.21l-.23,1.66h-1.98v4.97c0,.47,.08,.8,.24,1.01,.16,.2,.42,.31,.77,.31s.73-.11,1.13-.34l.81,1.48Z"/><path class="d" d="M76.97,19.38h-5.98c.07,.92,.31,1.58,.72,1.98s.95,.59,1.62,.59c.42,0,.82-.07,1.19-.21,.37-.14,.77-.35,1.19-.64l.95,1.31c-1.06,.85-2.23,1.28-3.53,1.28-1.45,0-2.57-.44-3.36-1.33-.79-.89-1.18-2.1-1.18-3.64,0-.97,.17-1.84,.5-2.62s.82-1.38,1.46-1.82c.64-.44,1.39-.66,2.27-.66,1.33,0,2.36,.42,3.1,1.27,.73,.85,1.1,2.02,1.1,3.54,0,.12-.02,.43-.05,.94Zm-2.23-1.6c0-1.67-.62-2.5-1.85-2.5-.56,0-1,.21-1.32,.62-.32,.41-.51,1.08-.57,1.99h3.74v-.11Z"/><path class="d" d="M86.69,14.95c.58,.88,.86,2.11,.86,3.69,0,.98-.15,1.86-.44,2.62-.29,.76-.73,1.36-1.3,1.79-.57,.43-1.25,.65-2.03,.65-1.01,0-1.81-.35-2.39-1.04v4.45l-2.3,.25V13.91h2.02l.13,1.17c.37-.48,.8-.84,1.28-1.08,.48-.24,.98-.36,1.51-.36,1.2,0,2.09,.44,2.66,1.31Zm-1.55,3.71c0-1.16-.15-2-.45-2.52-.3-.52-.75-.77-1.35-.77-.38,0-.74,.12-1.08,.35s-.62,.55-.86,.94v4.28c.44,.66,1.03,.99,1.75,.99,1.33,0,2-1.09,2-3.28Z"/><path class="d" d="M90.35,23.06c-.41-.43-.62-1.03-.62-1.81V10.09l2.3-.25v11.34c0,.44,.18,.67,.54,.67,.18,0,.36-.03,.54-.09l.49,1.62c-.48,.22-.99,.32-1.53,.32-.73,0-1.3-.21-1.72-.64Z"/><path class="d" d="M102.21,14.98c.79,.89,1.18,2.12,1.18,3.68,0,1-.18,1.88-.54,2.64-.36,.76-.88,1.35-1.55,1.77-.67,.42-1.47,.63-2.39,.63-1.4,0-2.5-.45-3.29-1.34s-1.19-2.13-1.19-3.7c0-1,.18-1.87,.54-2.63,.36-.76,.88-1.34,1.56-1.76,.68-.42,1.48-.63,2.4-.63,1.4,0,2.5,.45,3.28,1.34Zm-5.35,3.68c0,1.13,.17,1.96,.51,2.49s.86,.8,1.54,.8,1.2-.27,1.54-.81,.51-1.37,.51-2.48-.17-1.94-.51-2.48c-.34-.53-.85-.8-1.52-.8-1.38,0-2.07,1.09-2.07,3.28Z"/><path class="d" d="M111.01,22.98c-.34,.24-.71,.42-1.12,.54-.41,.12-.84,.18-1.27,.18-.94-.01-1.65-.28-2.13-.8-.49-.52-.73-1.29-.73-2.31v-5.02h-1.49v-1.66h1.49v-2.11l2.3-.27v2.38h2.21l-.23,1.66h-1.98v4.97c0,.47,.08,.8,.24,1.01,.16,.2,.42,.31,.77,.31s.73-.11,1.13-.34l.81,1.48Z"/><path class="d" d="M116.82,23.47c-.38,1.18-.97,2.09-1.75,2.74-.78,.65-1.85,1.04-3.2,1.14l-.23-1.67c.62-.1,1.12-.23,1.5-.4,.38-.17,.68-.41,.91-.69,.23-.29,.44-.67,.63-1.15h-.79l-3.02-9.52h2.45l2.07,7.99,2.16-7.99h2.38l-3.1,9.56Z"/><path class="d" d="M133.47,13.91l-3.1,9.52h-2.75l-3.15-9.52h2.5l2.03,7.67,2.09-7.67h2.38Z"/><path class="d" d="M141.09,13.91v1.66l-4.61,6.07h4.7l-.23,1.8h-7.11v-1.66l4.63-6.07h-4.23v-1.8h6.86Z"/><path class="d" d="M150.84,10.09v13.34h-2.03l-.16-1.21c-.3,.46-.68,.82-1.14,1.08s-.99,.4-1.57,.4c-1.16,0-2.06-.45-2.68-1.35s-.94-2.12-.94-3.67c0-.97,.16-1.84,.47-2.6,.31-.76,.76-1.36,1.34-1.79s1.26-.65,2.03-.65c.91,0,1.71,.34,2.39,1.03v-4.82l2.3,.25Zm-3.19,11.56c.31-.2,.61-.51,.88-.93v-4.36c-.28-.34-.55-.59-.84-.76s-.61-.25-.98-.25c-.61,0-1.1,.27-1.45,.82-.35,.55-.53,1.37-.53,2.48,0,1.18,.16,2.02,.47,2.53,.31,.51,.77,.77,1.37,.77,.41,0,.77-.1,1.08-.3Z"/><path class="d" d="M161.23,23.43h-2l-.13-1.33c-.35,.54-.76,.94-1.23,1.21-.47,.26-1.03,.4-1.68,.4-.85,0-1.51-.26-1.97-.78s-.69-1.24-.69-2.17v-6.84h2.3v6.55c0,.54,.09,.92,.28,1.15,.19,.23,.48,.34,.89,.34,.73,0,1.37-.45,1.93-1.35v-6.7h2.3v9.52Z"/><path class="d" d="M169.52,13.91c.5,.18,.97,.46,1.41,.85l-1.03,1.39c-.32-.24-.64-.41-.94-.52-.3-.11-.63-.16-.99-.16-1.43,0-2.14,1.09-2.14,3.26,0,1.1,.19,1.9,.56,2.38,.37,.49,.9,.73,1.58,.73,.34,0,.64-.05,.93-.16,.28-.11,.62-.28,1-.52l1.03,1.46c-.9,.73-1.93,1.1-3.08,1.1-.91,0-1.7-.2-2.38-.6-.67-.4-1.19-.97-1.55-1.72-.36-.74-.54-1.62-.54-2.63s.18-1.9,.54-2.67c.36-.77,.88-1.37,1.55-1.8,.67-.43,1.46-.64,2.36-.64,.62,0,1.19,.09,1.68,.27Z"/><path class="d" d="M179.66,14.41c.48,.52,.72,1.22,.72,2.12v6.89h-2.3v-6.53c0-.56-.1-.96-.3-1.19-.2-.23-.49-.34-.87-.34s-.74,.12-1.06,.37-.64,.6-.94,1.05v6.64h-2.3V10.11l2.3-.23v5.17c.77-.94,1.69-1.4,2.77-1.4,.84,0,1.5,.26,1.98,.77Z"/><path class="d" d="M190.68,23.43h-2l-.13-1.33c-.35,.54-.76,.94-1.23,1.21-.47,.26-1.03,.4-1.68,.4-.85,0-1.51-.26-1.97-.78s-.69-1.24-.69-2.17v-6.84h2.3v6.55c0,.54,.09,.92,.28,1.15,.19,.23,.48,.34,.89,.34,.73,0,1.37-.45,1.93-1.35v-6.7h2.3v9.52Z"/><path d="M205.6,13.91l-3.1,9.52h-2.75l-3.15-9.52h2.5l2.03,7.67,2.09-7.67h2.38Z"/><path d="M218.69,14.98c.79,.89,1.18,2.12,1.18,3.68,0,1-.18,1.88-.54,2.64-.36,.76-.88,1.35-1.55,1.77-.67,.42-1.47,.63-2.39,.63-1.4,0-2.5-.45-3.29-1.34s-1.19-2.13-1.19-3.7c0-1,.18-1.87,.54-2.63,.36-.76,.88-1.34,1.56-1.76,.68-.42,1.48-.63,2.4-.63,1.4,0,2.5,.45,3.28,1.34Zm-5.35,3.68c0,1.13,.17,1.96,.51,2.49s.86,.8,1.54,.8,1.2-.27,1.54-.81,.51-1.37,.51-2.48-.17-1.94-.51-2.48c-.34-.53-.85-.8-1.52-.8-1.38,0-2.07,1.09-2.07,3.28Z"/><path d="M227.48,22.98c-.34,.24-.71,.42-1.12,.54-.41,.12-.84,.18-1.27,.18-.94-.01-1.65-.28-2.13-.8-.49-.52-.73-1.29-.73-2.31v-5.02h-1.49v-1.66h1.49v-2.11l2.3-.27v2.38h2.21l-.23,1.66h-1.98v4.97c0,.47,.08,.8,.24,1.01,.16,.2,.42,.31,.77,.31s.73-.11,1.13-.34l.81,1.48Z"/><path d="M235.65,14.98c.79,.89,1.18,2.12,1.18,3.68,0,1-.18,1.88-.54,2.64-.36,.76-.88,1.35-1.55,1.77-.67,.42-1.47,.63-2.39,.63-1.4,0-2.5-.45-3.29-1.34s-1.19-2.13-1.19-3.7c0-1,.18-1.87,.54-2.63,.36-.76,.88-1.34,1.56-1.76,.68-.42,1.48-.63,2.4-.63,1.4,0,2.5,.45,3.28,1.34Zm-5.35,3.68c0,1.13,.17,1.96,.51,2.49s.86,.8,1.54,.8,1.2-.27,1.54-.81,.51-1.37,.51-2.48-.17-1.94-.51-2.48c-.34-.53-.85-.8-1.52-.8-1.38,0-2.07,1.09-2.07,3.28Z"/><path d="M246.58,14.95c.58,.88,.86,2.11,.86,3.69,0,.98-.15,1.86-.44,2.62-.29,.76-.73,1.36-1.3,1.79-.57,.43-1.25,.65-2.03,.65-1.01,0-1.81-.35-2.39-1.04v4.45l-2.3,.25V13.91h2.02l.13,1.17c.37-.48,.8-.84,1.28-1.08,.48-.24,.98-.36,1.51-.36,1.2,0,2.09,.44,2.66,1.31Zm-1.55,3.71c0-1.16-.15-2-.45-2.52-.3-.52-.75-.77-1.35-.77-.38,0-.74,.12-1.08,.35s-.62,.55-.86,.94v4.28c.44,.66,1.03,.99,1.75,.99,1.33,0,2-1.09,2-3.28Z"/><path d="M256.78,14.4c.47,.51,.71,1.22,.71,2.13v6.89h-2.3v-6.53c0-.56-.1-.96-.3-1.19-.2-.23-.49-.34-.87-.34s-.75,.12-1.07,.37c-.32,.25-.63,.6-.93,1.07v6.62h-2.3V13.91h2l.18,1.24c.78-1.01,1.75-1.51,2.9-1.51,.85,0,1.51,.25,1.99,.77Z"/><path d="M267.93,19.38h-5.98c.07,.92,.31,1.58,.72,1.98s.95,.59,1.62,.59c.42,0,.82-.07,1.19-.21,.37-.14,.77-.35,1.19-.64l.95,1.31c-1.06,.85-2.23,1.28-3.53,1.28-1.45,0-2.57-.44-3.36-1.33-.79-.89-1.18-2.1-1.18-3.64,0-.97,.17-1.84,.5-2.62s.82-1.38,1.46-1.82c.64-.44,1.39-.66,2.27-.66,1.33,0,2.36,.42,3.1,1.27,.73,.85,1.1,2.02,1.1,3.54,0,.12-.02,.43-.05,.94Zm-2.72-10.71l.94,1.8-4.07,1.62-.65-1.17,3.78-2.25Zm.49,9.11c0-1.67-.62-2.5-1.85-2.5-.56,0-1,.21-1.32,.62-.32,.41-.51,1.08-.57,1.99h3.74v-.11Z"/><path d="M281.99,14.42c.46,.52,.68,1.23,.68,2.11v6.89h-2.3v-6.53c0-1.02-.35-1.53-1.04-1.53-.37,0-.69,.12-.96,.35-.27,.23-.55,.6-.84,1.09v6.62h-2.3v-6.53c0-1.02-.35-1.53-1.04-1.53-.38,0-.71,.12-.98,.35-.27,.23-.55,.6-.84,1.09v6.62h-2.3V13.91h2l.18,1.24c.72-1.01,1.64-1.51,2.75-1.51,.55,0,1.03,.14,1.43,.42,.4,.28,.69,.68,.87,1.18,.38-.52,.81-.91,1.27-1.19s.99-.41,1.59-.41c.77,0,1.38,.26,1.84,.78Z"/><path d="M297.03,14.98c.79,.89,1.18,2.12,1.18,3.68,0,1-.18,1.88-.54,2.64-.36,.76-.88,1.35-1.55,1.77-.67,.42-1.47,.63-2.39,.63-1.4,0-2.5-.45-3.29-1.34s-1.19-2.13-1.19-3.7c0-1,.18-1.87,.54-2.63,.36-.76,.88-1.34,1.56-1.76,.68-.42,1.48-.63,2.4-.63,1.4,0,2.5,.45,3.28,1.34Zm-5.35,3.68c0,1.13,.17,1.96,.51,2.49s.86,.8,1.54,.8,1.2-.27,1.54-.81,.51-1.37,.51-2.48-.17-1.94-.51-2.48c-.34-.53-.85-.8-1.52-.8-1.38,0-2.07,1.09-2.07,3.28Z"/><path d="M307.89,14.96c.62,.88,.94,2.12,.94,3.7,0,.98-.15,1.86-.46,2.62-.31,.76-.74,1.36-1.3,1.78-.56,.43-1.23,.64-2,.64-.52,0-.99-.11-1.41-.32-.43-.22-.79-.52-1.11-.92l-.14,.97h-2.03V10.09l2.3-.25v5.15c.31-.43,.69-.77,1.14-1s.95-.35,1.49-.35c1.1,0,1.97,.44,2.59,1.32Zm-2,6.21c.35-.53,.52-1.37,.52-2.51,0-1.2-.16-2.05-.49-2.55s-.78-.75-1.37-.75c-.73,0-1.36,.43-1.89,1.3v4.21c.2,.35,.46,.62,.76,.81,.31,.19,.64,.29,1,.29,.62,0,1.11-.27,1.46-.8Z"/><path d="M319.11,10.09v13.34h-2.03l-.16-1.21c-.3,.46-.68,.82-1.14,1.08s-.99,.4-1.57,.4c-1.16,0-2.06-.45-2.68-1.35s-.94-2.12-.94-3.67c0-.97,.16-1.84,.47-2.6,.31-.76,.76-1.36,1.34-1.79s1.26-.65,2.03-.65c.91,0,1.71,.34,2.39,1.03v-4.82l2.3,.25Zm-3.19,11.56c.31-.2,.61-.51,.88-.93v-4.36c-.28-.34-.55-.59-.84-.76s-.61-.25-.98-.25c-.61,0-1.1,.27-1.45,.82-.35,.55-.53,1.37-.53,2.48,0,1.18,.16,2.02,.47,2.53,.31,.51,.77,.77,1.37,.77,.41,0,.77-.1,1.08-.3Z"/><path d="M329.05,14.98c.79,.89,1.18,2.12,1.18,3.68,0,1-.18,1.88-.54,2.64-.36,.76-.88,1.35-1.55,1.77-.67,.42-1.47,.63-2.39,.63-1.4,0-2.5-.45-3.29-1.34s-1.19-2.13-1.19-3.7c0-1,.18-1.87,.54-2.63,.36-.76,.88-1.34,1.56-1.76,.68-.42,1.48-.63,2.4-.63,1.4,0,2.5,.45,3.28,1.34Zm-5.35,3.68c0,1.13,.17,1.96,.51,2.49s.86,.8,1.54,.8,1.2-.27,1.54-.81,.51-1.37,.51-2.48-.17-1.94-.51-2.48c-.34-.53-.85-.8-1.52-.8-1.38,0-2.07,1.09-2.07,3.28Z"/><path d="M339.91,14.96c.62,.88,.94,2.12,.94,3.7,0,.98-.15,1.86-.46,2.62-.31,.76-.74,1.36-1.3,1.78-.56,.43-1.23,.64-2,.64-.52,0-.99-.11-1.41-.32-.43-.22-.79-.52-1.11-.92l-.14,.97h-2.03V10.09l2.3-.25v5.15c.31-.43,.69-.77,1.14-1s.95-.35,1.49-.35c1.1,0,1.97,.44,2.59,1.32Zm-2,6.21c.35-.53,.52-1.37,.52-2.51,0-1.2-.16-2.05-.49-2.55s-.78-.75-1.37-.75c-.73,0-1.36,.43-1.89,1.3v4.21c.2,.35,.46,.62,.76,.81,.31,.19,.64,.29,1,.29,.62,0,1.11-.27,1.46-.8Z"/><path d="M345.64,8.67l.94,1.8-4.07,1.62-.65-1.17,3.78-2.25Zm-.22,5.24v9.52h-2.3V13.91h2.3Z"/><path d="M360.34,13.91l-3.1,9.52h-2.75l-3.15-9.52h2.5l2.03,7.67,2.09-7.67h2.38Z"/><path d="M369.41,19.38h-5.98c.07,.92,.31,1.58,.72,1.98s.95,.59,1.62,.59c.42,0,.82-.07,1.19-.21,.37-.14,.77-.35,1.19-.64l.95,1.31c-1.06,.85-2.23,1.28-3.53,1.28-1.45,0-2.57-.44-3.36-1.33-.79-.89-1.18-2.1-1.18-3.64,0-.97,.17-1.84,.5-2.62s.82-1.38,1.46-1.82c.64-.44,1.39-.66,2.27-.66,1.33,0,2.36,.42,3.1,1.27,.73,.85,1.1,2.02,1.1,3.54,0,.12-.02,.43-.05,.94Zm-2.23-1.6c0-1.67-.62-2.5-1.85-2.5-.56,0-1,.21-1.32,.62-.32,.41-.51,1.08-.57,1.99h3.74v-.11Z"/><path d="M383.69,13.91l-3.1,9.52h-2.75l-3.15-9.52h2.5l2.03,7.67,2.09-7.67h2.38Z"/><path d="M389.72,23.47c-.38,1.18-.97,2.09-1.75,2.74-.78,.65-1.85,1.04-3.2,1.14l-.23-1.67c.62-.1,1.12-.23,1.5-.4,.38-.17,.68-.41,.91-.69,.23-.29,.44-.67,.63-1.15h-.79l-3.02-9.52h2.45l2.07,7.99,2.16-7.99h2.38l-3.1,9.56Z"/><path d="M399.67,22.98c-.34,.24-.71,.42-1.12,.54-.41,.12-.84,.18-1.27,.18-.94-.01-1.65-.28-2.13-.8-.49-.52-.73-1.29-.73-2.31v-5.02h-1.49v-1.66h1.49v-2.11l2.3-.27v2.38h2.21l-.23,1.66h-1.98v4.97c0,.47,.08,.8,.24,1.01,.16,.2,.42,.31,.77,.31s.73-.11,1.13-.34l.81,1.48Z"/><path d="M408,21.73c.11,.17,.3,.31,.55,.41l-.49,1.53c-.54-.05-.98-.18-1.32-.4-.34-.22-.6-.55-.78-.99-.32,.48-.73,.84-1.21,1.07s-1.03,.35-1.63,.35c-.95,0-1.7-.27-2.25-.81s-.83-1.25-.83-2.12c0-1.03,.38-1.82,1.12-2.37,.75-.55,1.82-.82,3.21-.82h1.19v-.54c0-.61-.14-1.04-.42-1.29-.28-.25-.74-.37-1.36-.37-.7,0-1.54,.17-2.52,.5l-.54-1.57c1.19-.46,2.34-.68,3.46-.68,2.44,0,3.65,1.09,3.65,3.28v4c0,.37,.06,.65,.17,.82Zm-2.44-13.06l.94,1.8-4.07,1.62-.65-1.17,3.78-2.25Zm0,12.19v-1.93h-.95c-1.49,0-2.23,.55-2.23,1.66,0,.46,.11,.81,.34,1.06,.23,.25,.56,.38,1.01,.38,.78,0,1.39-.39,1.84-1.17Z"/><path d="M418.21,14.95c.58,.88,.86,2.11,.86,3.69,0,.98-.15,1.86-.44,2.62-.29,.76-.73,1.36-1.3,1.79-.57,.43-1.25,.65-2.03,.65-1.01,0-1.81-.35-2.39-1.04v4.45l-2.3,.25V13.91h2.02l.13,1.17c.37-.48,.8-.84,1.28-1.08,.48-.24,.98-.36,1.51-.36,1.2,0,2.09,.44,2.66,1.31Zm-1.55,3.71c0-1.16-.15-2-.45-2.52-.3-.52-.75-.77-1.35-.77-.38,0-.74,.12-1.08,.35s-.62,.55-.86,.94v4.28c.44,.66,1.03,.99,1.75,.99,1.33,0,2-1.09,2-3.28Z"/><path d="M429.1,19.38h-5.98c.07,.92,.31,1.58,.72,1.98s.95,.59,1.62,.59c.42,0,.82-.07,1.19-.21,.37-.14,.77-.35,1.19-.64l.95,1.31c-1.06,.85-2.23,1.28-3.53,1.28-1.45,0-2.57-.44-3.36-1.33-.79-.89-1.18-2.1-1.18-3.64,0-.97,.17-1.84,.5-2.62s.82-1.38,1.46-1.82c.64-.44,1.39-.66,2.27-.66,1.33,0,2.36,.42,3.1,1.27,.73,.85,1.1,2.02,1.1,3.54,0,.12-.02,.43-.05,.94Zm-1.75-10.35l.88,1.01-2.5,2.25h-1.44l-2.5-2.25,.88-1.01,2.34,1.58,2.34-1.58Zm-.49,8.75c0-1.67-.62-2.5-1.85-2.5-.56,0-1,.21-1.32,.62-.32,.41-.51,1.08-.57,1.99h3.74v-.11Z"/><path d="M438.29,14.4c.47,.51,.71,1.22,.71,2.13v6.89h-2.3v-6.53c0-.56-.1-.96-.3-1.19-.2-.23-.49-.34-.87-.34s-.75,.12-1.07,.37c-.32,.25-.63,.6-.93,1.07v6.62h-2.3V13.91h2l.18,1.24c.78-1.01,1.75-1.51,2.9-1.51,.85,0,1.51,.25,1.99,.77Z"/><path d="M446.18,23.47c-.38,1.18-.97,2.09-1.75,2.74-.78,.65-1.85,1.04-3.2,1.14l-.23-1.67c.62-.1,1.12-.23,1.5-.4,.38-.17,.68-.41,.91-.69,.23-.29,.44-.67,.63-1.15h-.79l-3.02-9.52h2.45l2.07,7.99,2.16-7.99h2.38l-3.1,9.56Zm-.07-14.8l.94,1.8-4.07,1.62-.65-1.17,3.78-2.25Z"/><path d="M456.09,13.91c.5,.18,.97,.46,1.41,.85l-1.03,1.39c-.32-.24-.64-.41-.94-.52-.3-.11-.63-.16-.99-.16-1.43,0-2.14,1.09-2.14,3.26,0,1.1,.19,1.9,.56,2.38,.37,.49,.9,.73,1.58,.73,.34,0,.64-.05,.93-.16,.28-.11,.62-.28,1-.52l1.03,1.46c-.9,.73-1.93,1.1-3.08,1.1-.91,0-1.7-.2-2.38-.6-.67-.4-1.19-.97-1.55-1.72-.36-.74-.54-1.62-.54-2.63s.18-1.9,.54-2.67c.36-.77,.88-1.37,1.55-1.8,.67-.43,1.46-.64,2.36-.64,.62,0,1.19,.09,1.68,.27Z"/><path d="M466.24,14.41c.48,.52,.72,1.22,.72,2.12v6.89h-2.3v-6.53c0-.56-.1-.96-.3-1.19-.2-.23-.49-.34-.87-.34s-.74,.12-1.06,.37-.64,.6-.94,1.05v6.64h-2.3V10.11l2.3-.23v5.17c.77-.94,1.69-1.4,2.77-1.4,.84,0,1.5,.26,1.98,.77Z"/><path d="M486.07,14.42c.46,.52,.68,1.23,.68,2.11v6.89h-2.3v-6.53c0-1.02-.35-1.53-1.04-1.53-.37,0-.69,.12-.96,.35-.27,.23-.55,.6-.84,1.09v6.62h-2.3v-6.53c0-1.02-.35-1.53-1.04-1.53-.38,0-.71,.12-.98,.35-.27,.23-.55,.6-.84,1.09v6.62h-2.3V13.91h2l.18,1.24c.72-1.01,1.64-1.51,2.75-1.51,.55,0,1.03,.14,1.43,.42,.4,.28,.69,.68,.87,1.18,.38-.52,.81-.91,1.27-1.19s.99-.41,1.59-.41c.77,0,1.38,.26,1.84,.78Z"/><path d="M491.96,8.67l.94,1.8-4.07,1.62-.65-1.17,3.78-2.25Zm-.22,5.24v9.52h-2.3V13.91h2.3Z"/><path d="M500.9,14.77l-.9,1.35c-.82-.52-1.61-.77-2.39-.77-.46,0-.81,.09-1.06,.26s-.38,.4-.38,.69c0,.22,.05,.4,.16,.54,.11,.14,.3,.28,.58,.4s.7,.27,1.25,.42c1.03,.28,1.8,.64,2.29,1.1,.5,.46,.75,1.09,.75,1.91,0,.95-.38,1.69-1.15,2.22-.77,.53-1.72,.8-2.86,.8-.78,0-1.49-.12-2.13-.36-.64-.24-1.2-.57-1.67-.99l1.15-1.3c.83,.62,1.69,.94,2.59,.94,.52,0,.93-.1,1.23-.31,.31-.2,.46-.49,.46-.85,0-.28-.06-.5-.17-.66-.11-.16-.32-.31-.61-.43s-.75-.28-1.38-.46c-.97-.26-1.69-.63-2.14-1.11-.46-.47-.68-1.06-.68-1.77,0-.53,.15-1,.46-1.42,.31-.42,.74-.75,1.3-.99,.56-.24,1.2-.36,1.92-.36,1.28,0,2.41,.38,3.38,1.13Z"/><path d="M508.53,22.98c-.34,.24-.71,.42-1.12,.54-.41,.12-.84,.18-1.27,.18-.94-.01-1.65-.28-2.13-.8-.49-.52-.73-1.29-.73-2.31v-5.02h-1.49v-1.66h1.49v-2.11l2.3-.27v2.38h2.21l-.23,1.66h-1.98v4.97c0,.47,.08,.8,.24,1.01,.16,.2,.42,.31,.77,.31s.73-.11,1.13-.34l.81,1.48Z"/><path d="M516.9,14.4c.47,.51,.71,1.22,.71,2.13v6.89h-2.3v-6.53c0-.56-.1-.96-.3-1.19-.2-.23-.49-.34-.87-.34s-.75,.12-1.07,.37c-.32,.25-.63,.6-.93,1.07v6.62h-2.3V13.91h2l.18,1.24c.78-1.01,1.75-1.51,2.9-1.51,.85,0,1.51,.25,1.99,.77Z"/><path d="M527.46,14.98c.79,.89,1.18,2.12,1.18,3.68,0,1-.18,1.88-.54,2.64-.36,.76-.88,1.35-1.55,1.77-.67,.42-1.47,.63-2.39,.63-1.4,0-2.5-.45-3.29-1.34s-1.19-2.13-1.19-3.7c0-1,.18-1.87,.54-2.63,.36-.76,.88-1.34,1.56-1.76,.68-.42,1.48-.63,2.4-.63,1.4,0,2.5,.45,3.28,1.34Zm-5.35,3.68c0,1.13,.17,1.96,.51,2.49s.86,.8,1.54,.8,1.2-.27,1.54-.81,.51-1.37,.51-2.48-.17-1.94-.51-2.48c-.34-.53-.85-.8-1.52-.8-1.38,0-2.07,1.09-2.07,3.28Z"/><path d="M537.19,14.77l-.9,1.35c-.82-.52-1.61-.77-2.39-.77-.46,0-.81,.09-1.06,.26s-.38,.4-.38,.69c0,.22,.05,.4,.16,.54,.11,.14,.3,.28,.58,.4s.7,.27,1.25,.42c1.03,.28,1.8,.64,2.29,1.1,.5,.46,.75,1.09,.75,1.91,0,.95-.38,1.69-1.15,2.22-.77,.53-1.72,.8-2.86,.8-.78,0-1.49-.12-2.13-.36-.64-.24-1.2-.57-1.67-.99l1.15-1.3c.83,.62,1.69,.94,2.59,.94,.52,0,.93-.1,1.23-.31,.31-.2,.46-.49,.46-.85,0-.28-.06-.5-.17-.66-.11-.16-.32-.31-.61-.43s-.75-.28-1.38-.46c-.97-.26-1.69-.63-2.14-1.11-.46-.47-.68-1.06-.68-1.77,0-.53,.15-1,.46-1.42,.31-.42,.74-.75,1.3-.99,.56-.24,1.2-.36,1.92-.36,1.28,0,2.41,.38,3.38,1.13Z"/><path d="M544.82,22.98c-.34,.24-.71,.42-1.12,.54-.41,.12-.84,.18-1.27,.18-.94-.01-1.65-.28-2.13-.8-.49-.52-.73-1.29-.73-2.31v-5.02h-1.49v-1.66h1.49v-2.11l2.3-.27v2.38h2.21l-.23,1.66h-1.98v4.97c0,.47,.08,.8,.24,1.01,.16,.2,.42,.31,.77,.31s.73-.11,1.13-.34l.81,1.48Z"/><path d="M553.57,19.38h-5.98c.07,.92,.31,1.58,.72,1.98s.95,.59,1.62,.59c.42,0,.82-.07,1.19-.21,.37-.14,.77-.35,1.19-.64l.95,1.31c-1.06,.85-2.23,1.28-3.53,1.28-1.45,0-2.57-.44-3.36-1.33-.79-.89-1.18-2.1-1.18-3.64,0-.97,.17-1.84,.5-2.62s.82-1.38,1.46-1.82c.64-.44,1.39-.66,2.27-.66,1.33,0,2.36,.42,3.1,1.27,.73,.85,1.1,2.02,1.1,3.54,0,.12-.02,.43-.05,.94Zm-2.23-1.6c0-1.67-.62-2.5-1.85-2.5-.56,0-1,.21-1.32,.62-.32,.41-.51,1.08-.57,1.99h3.74v-.11Z"/><path d="M561.21,13.91c.5,.18,.97,.46,1.41,.85l-1.03,1.39c-.32-.24-.64-.41-.94-.52-.3-.11-.63-.16-.99-.16-1.43,0-2.14,1.09-2.14,3.26,0,1.1,.19,1.9,.56,2.38,.37,.49,.9,.73,1.58,.73,.34,0,.64-.05,.93-.16,.28-.11,.62-.28,1-.52l1.03,1.46c-.9,.73-1.93,1.1-3.08,1.1-.91,0-1.7-.2-2.38-.6-.67-.4-1.19-.97-1.55-1.72-.36-.74-.54-1.62-.54-2.63s.18-1.9,.54-2.67c.36-.77,.88-1.37,1.55-1.8,.67-.43,1.46-.64,2.36-.64,.62,0,1.19,.09,1.68,.27Z"/><path d="M571.36,14.41c.48,.52,.72,1.22,.72,2.12v6.89h-2.3v-6.53c0-.56-.1-.96-.3-1.19-.2-.23-.49-.34-.87-.34s-.74,.12-1.06,.37-.64,.6-.94,1.05v6.64h-2.3V10.11l2.3-.23v5.17c.77-.94,1.69-1.4,2.77-1.4,.84,0,1.5,.26,1.98,.77Z"/></g><g><path d="M4.77,48.46c0,.61-.08,1.11-.23,1.49-.16,.39-.4,.7-.73,.95-.33,.25-.79,.49-1.38,.72l-.24-.66c.46-.2,.81-.41,1.05-.62,.24-.22,.41-.47,.5-.77,.09-.29,.13-.68,.13-1.16v-8.85h.9v8.9Z"/><path d="M13.09,42.9c.58,.71,.88,1.71,.88,2.99s-.3,2.27-.89,3.01c-.6,.73-1.41,1.1-2.44,1.1s-1.85-.36-2.44-1.09-.88-1.72-.88-2.99c0-.83,.13-1.55,.41-2.17,.27-.62,.65-1.1,1.15-1.43s1.09-.49,1.77-.49c1.04,0,1.85,.36,2.44,1.07Zm-4.21,.52c-.42,.57-.63,1.4-.63,2.5s.21,1.92,.62,2.49c.42,.57,1,.85,1.76,.85s1.35-.29,1.78-.85c.42-.57,.64-1.41,.64-2.52s-.21-1.92-.62-2.48c-.42-.56-1.01-.85-1.78-.85s-1.35,.28-1.77,.85Z"/><path d="M22.02,49.84h-.75l-.04-1.4c-.62,1.04-1.47,1.56-2.56,1.56-.71,0-1.26-.21-1.64-.62-.39-.42-.58-1.01-.58-1.78v-5.61h.87v5.52c0,.61,.13,1.06,.38,1.34s.64,.43,1.16,.43c.91,0,1.67-.53,2.29-1.6v-5.69h.87v7.85Z"/></g><g><rect class="b" x="345.49" y="60.37" width="154.79" height="245.32" transform="translate(605.91 -239.85) rotate(90)"/><rect class="b" x="388.73" y="243.44" width="139.83" height="173.8" transform="translate(788.98 -128.3) rotate(90)"/><rect class="c" x="262.5" y="291.01" width="91.52" height="126.95" transform="translate(662.75 46.23) rotate(90)"/><rect class="f" x="135.55" y="291.01" width="91.52" height="126.95" transform="translate(535.8 173.19) rotate(90)"/><rect class="e" x="220.63" y="157.62" width="48.31" height="253.91" transform="translate(529.36 39.8) rotate(90)"/><rect class="e" x="-4.91" y="137.68" width="154.79" height="90.7" transform="translate(255.51 110.55) rotate(90)"/><rect class="b" x="131.63" y="91.83" width="154.79" height="182.39" transform="translate(392.06 -25.99) rotate(90)"/></g><g><path d="M153.6,344.63c.43,.17,.84,.42,1.21,.77l-.78,.9c-.3-.25-.59-.43-.89-.54-.3-.11-.62-.17-.97-.17-.38,0-.69,.09-.93,.26-.24,.17-.35,.41-.35,.73,0,.21,.05,.38,.14,.52,.09,.14,.26,.26,.5,.38,.24,.12,.6,.25,1.07,.4,.82,.26,1.43,.57,1.84,.95s.62,.93,.62,1.66c0,.5-.13,.94-.38,1.32-.25,.38-.61,.68-1.09,.9-.47,.22-1.03,.32-1.68,.32s-1.2-.1-1.7-.31-.93-.48-1.29-.83l.82-.91c.32,.27,.65,.48,1,.62,.34,.14,.72,.21,1.14,.21,.46,0,.82-.11,1.1-.32,.28-.22,.42-.52,.42-.91,0-.24-.05-.44-.14-.59-.1-.16-.26-.3-.49-.42s-.57-.25-1.01-.39c-.88-.27-1.52-.6-1.91-.98s-.59-.89-.59-1.51c0-.46,.12-.86,.36-1.2,.24-.34,.57-.61,1-.8,.43-.19,.91-.29,1.46-.29,.58,0,1.09,.08,1.52,.25Z"/><path d="M161.49,344.6c.38,.14,.74,.36,1.1,.66l-.8,.94c-.49-.39-1-.59-1.54-.59-.62,0-1.11,.25-1.48,.74s-.56,1.28-.56,2.34,.18,1.81,.55,2.32c.37,.5,.86,.76,1.49,.76,.33,0,.62-.06,.88-.17,.26-.12,.53-.28,.82-.5l.74,.94c-.28,.29-.63,.53-1.06,.72s-.91,.29-1.43,.29c-.72,0-1.36-.17-1.91-.5-.55-.34-.98-.83-1.28-1.48-.3-.65-.46-1.44-.46-2.36s.16-1.68,.47-2.33c.32-.65,.75-1.14,1.3-1.48,.55-.34,1.17-.5,1.85-.5,.5,0,.94,.07,1.32,.22Z"/><path d="M168.96,352.85v-3.71h-2.95v3.71h-1.58v-8.29h1.58v3.32h2.95v-3.32h1.6v8.29h-1.6Z"/><path d="M178.2,344.88c.54,.34,.96,.83,1.25,1.48s.44,1.43,.44,2.34-.15,1.68-.44,2.33c-.3,.65-.72,1.14-1.26,1.49s-1.18,.52-1.92,.52-1.39-.17-1.93-.5c-.54-.34-.96-.83-1.26-1.48-.3-.65-.44-1.43-.44-2.34s.15-1.67,.44-2.32,.72-1.15,1.27-1.49c.55-.34,1.19-.52,1.93-.52s1.39,.17,1.93,.5Zm-3.4,1.46c-.34,.5-.5,1.29-.5,2.37,0,2.07,.66,3.11,1.97,3.11,.64,0,1.13-.25,1.46-.74,.33-.5,.5-1.29,.5-2.38s-.17-1.87-.5-2.36c-.33-.5-.82-.74-1.46-.74s-1.13,.25-1.46,.75Z"/><path d="M187.11,345.44c.77,.58,1.16,1.66,1.16,3.23s-.38,2.62-1.14,3.25-1.72,.94-2.89,.94h-2.26v-8.29h2.04c1.29,0,2.32,.29,3.09,.88Zm-3.55,.31v5.92h.78c.7,0,1.26-.22,1.66-.65,.4-.44,.6-1.22,.6-2.35,0-.78-.1-1.39-.31-1.82-.2-.43-.47-.72-.8-.87-.33-.15-.73-.23-1.19-.23h-.73Z"/><path d="M191.94,344.56v8.29h-1.58v-8.29h1.58Z"/><path d="M198.39,344.63c.43,.17,.84,.42,1.21,.77l-.78,.9c-.3-.25-.59-.43-.89-.54-.3-.11-.62-.17-.97-.17-.38,0-.69,.09-.93,.26-.24,.17-.35,.41-.35,.73,0,.21,.05,.38,.14,.52,.09,.14,.26,.26,.5,.38,.24,.12,.6,.25,1.07,.4,.82,.26,1.43,.57,1.84,.95s.62,.93,.62,1.66c0,.5-.13,.94-.38,1.32-.25,.38-.61,.68-1.09,.9-.47,.22-1.03,.32-1.68,.32s-1.2-.1-1.7-.31-.93-.48-1.29-.83l.82-.91c.32,.27,.65,.48,1,.62,.34,.14,.72,.21,1.14,.21,.46,0,.82-.11,1.1-.32,.28-.22,.42-.52,.42-.91,0-.24-.05-.44-.14-.59-.1-.16-.26-.3-.49-.42s-.57-.25-1.01-.39c-.88-.27-1.52-.6-1.91-.98s-.59-.89-.59-1.51c0-.46,.12-.86,.36-1.2,.24-.34,.57-.61,1-.8,.43-.19,.91-.29,1.46-.29,.58,0,1.09,.08,1.52,.25Zm.12-2.92l.59,.67-1.67,1.44h-.96l-1.67-1.44,.59-.67,1.56,1,1.56-1Z"/><path d="M206.88,344.56l-.17,1.26h-2.16v7.03h-1.6v-7.03h-2.23v-1.26h6.16Z"/><path d="M213.32,344.56l-.17,1.18h-3.06v2.32h2.66v1.18h-2.66v2.44h3.28v1.19h-4.86v-8.29h4.81Zm-.82-2.84l.59,.67-1.67,1.44h-.96l-1.67-1.44,.59-.67,1.56,1,1.56-1Z"/><path d="M171.71,362.68v7.98h-.7v-7.21l-1.97,1.22-.32-.52,2.39-1.48h.6Z"/><path d="M178.93,363.6c.42,.7,.64,1.73,.64,3.08s-.21,2.37-.64,3.07-1.05,1.05-1.87,1.05-1.45-.35-1.87-1.05-.64-1.73-.64-3.08,.21-2.38,.64-3.07c.42-.7,1.05-1.04,1.87-1.04s1.45,.35,1.87,1.05Zm-3.66,3.07c0,2.37,.6,3.55,1.79,3.55,.58,0,1.03-.29,1.33-.86,.3-.58,.45-1.47,.45-2.68s-.15-2.1-.45-2.68-.74-.87-1.33-.87c-1.19,0-1.79,1.18-1.79,3.54Z"/><path d="M182.7,365.71c-.28-.14-.5-.35-.67-.63s-.25-.6-.25-.97,.08-.68,.25-.95,.39-.48,.67-.63,.57-.22,.88-.22c.33,0,.63,.07,.91,.22,.28,.14,.5,.35,.66,.63,.16,.28,.25,.6,.25,.97s-.08,.68-.25,.95c-.16,.27-.38,.48-.66,.63-.28,.15-.58,.22-.91,.22s-.61-.07-.88-.22Zm1.74-.65c.22-.23,.33-.54,.33-.93s-.11-.71-.33-.94c-.22-.23-.51-.34-.86-.34s-.62,.11-.85,.34c-.23,.23-.34,.54-.34,.93s.11,.7,.34,.94c.23,.23,.51,.35,.85,.35s.64-.11,.86-.34Z"/><path d="M193.08,362.5c.32,.12,.63,.31,.95,.57l-.38,.48c-.28-.22-.55-.38-.8-.48-.26-.1-.55-.14-.88-.14-.78,0-1.41,.3-1.89,.89-.48,.59-.73,1.5-.73,2.74,0,.8,.11,1.47,.34,2.02,.22,.54,.53,.95,.92,1.21,.39,.26,.83,.39,1.33,.39,.39,0,.72-.06,1-.17,.27-.12,.55-.29,.83-.51l.37,.47c-.6,.57-1.34,.85-2.22,.85-.64,0-1.21-.16-1.71-.49s-.89-.81-1.18-1.45c-.28-.64-.43-1.41-.43-2.31s.15-1.67,.44-2.31c.3-.64,.69-1.12,1.19-1.44,.5-.32,1.06-.49,1.69-.49,.46,0,.84,.06,1.16,.19Z"/></g><g><path d="M279.76,344.56v8.29h-1.58v-8.29h1.58Zm4.66,0l-2.87,3.76,3.1,4.54h-1.88l-2.93-4.43,2.87-3.86h1.72Z"/><path d="M291.05,344.88c.54,.34,.96,.83,1.25,1.48s.44,1.43,.44,2.34-.15,1.68-.44,2.33c-.3,.65-.72,1.14-1.26,1.49s-1.18,.52-1.92,.52-1.39-.17-1.93-.5c-.54-.34-.96-.83-1.26-1.48-.3-.65-.44-1.43-.44-2.34s.15-1.67,.44-2.32,.72-1.15,1.27-1.49c.55-.34,1.19-.52,1.93-.52s1.39,.17,1.93,.5Zm-3.4,1.46c-.34,.5-.5,1.29-.5,2.37,0,2.07,.66,3.11,1.97,3.11,.64,0,1.13-.25,1.46-.74,.33-.5,.5-1.29,.5-2.38s-.17-1.87-.5-2.36c-.33-.5-.82-.74-1.46-.74s-1.13,.25-1.46,.75Z"/><path d="M300.88,350.14c0,.56-.12,1.06-.35,1.49s-.59,.78-1.06,1.03c-.47,.25-1.03,.37-1.69,.37-.99,0-1.75-.26-2.28-.79-.53-.52-.79-1.23-.79-2.11v-5.58h1.58v5.5c0,.58,.12,1.02,.37,1.31,.24,.29,.62,.43,1.12,.43s.89-.14,1.13-.43c.24-.29,.37-.72,.37-1.31v-5.5h1.6v5.58Z"/><path d="M308.23,345.22c.59,.44,.88,1.1,.88,1.98s-.3,1.61-.89,2.07c-.59,.46-1.38,.69-2.36,.69h-.97v2.89h-1.58v-8.29h2.45c1.06,0,1.89,.22,2.48,.66Zm-1.21,3.2c.29-.24,.43-.64,.43-1.22,0-.98-.57-1.48-1.72-1.48h-.85v3.05h.85c.57,0,1-.12,1.28-.35Z"/><path d="M315.81,344.56l-.17,1.18h-3.06v2.32h2.66v1.18h-2.66v2.44h3.28v1.19h-4.86v-8.29h4.81Z"/><path d="M319.54,344.56v7h3.32l-.18,1.3h-4.73v-8.29h1.58Z"/><path d="M330.75,352.85h-2.05l-2.84-6.71c.07,.59,.13,1.13,.16,1.61,.04,.48,.05,1.05,.05,1.72v3.38h-1.44v-8.29h2l2.89,6.72c-.05-.32-.1-.74-.14-1.27-.05-.52-.07-1.05-.07-1.57v-3.89h1.44v8.29Z"/><path d="M337.68,352.85l-.52-1.92h-2.75l-.52,1.92h-1.64l2.58-8.29h1.96l2.57,8.29h-1.68Zm-2.95-3.12h2.11l-1.06-3.96-1.06,3.96Z"/><path d="M299.41,363.14c.4,.39,.59,.9,.59,1.51,0,.52-.11,1.01-.32,1.46s-.55,.96-1.01,1.5-1.2,1.36-2.23,2.44h3.78l-.1,.61h-4.5v-.59c1.1-1.17,1.88-2.03,2.36-2.6,.48-.56,.81-1.05,1.01-1.46s.29-.85,.29-1.33-.14-.85-.41-1.13c-.28-.28-.64-.42-1.1-.42-.37,0-.69,.08-.98,.23-.28,.15-.55,.38-.81,.68l-.48-.36c.32-.39,.67-.68,1.04-.86s.79-.28,1.27-.28c.67,0,1.21,.2,1.6,.59Z"/><path d="M306.94,367.99v.58h-1.08v2.1h-.68v-2.1h-3.49v-.52l2.44-5.5,.59,.24-2.28,5.2h2.75l.08-2.34h.6v2.34h1.08Z"/><path d="M309.7,365.71c-.28-.14-.5-.35-.67-.63s-.25-.6-.25-.97,.08-.68,.25-.95,.39-.48,.67-.63,.57-.22,.88-.22c.33,0,.63,.07,.91,.22,.28,.14,.5,.35,.66,.63,.16,.28,.25,.6,.25,.97s-.08,.68-.25,.95c-.16,.27-.38,.48-.66,.63-.28,.15-.58,.22-.91,.22s-.61-.07-.88-.22Zm1.74-.65c.22-.23,.33-.54,.33-.93s-.11-.71-.33-.94c-.22-.23-.51-.34-.86-.34s-.62,.11-.85,.34c-.23,.23-.34,.54-.34,.93s.11,.7,.34,.94c.23,.23,.51,.35,.85,.35s.64-.11,.86-.34Z"/><path d="M320.09,362.5c.32,.12,.63,.31,.95,.57l-.38,.48c-.28-.22-.55-.38-.8-.48-.26-.1-.55-.14-.88-.14-.78,0-1.41,.3-1.89,.89-.48,.59-.73,1.5-.73,2.74,0,.8,.11,1.47,.34,2.02,.22,.54,.53,.95,.92,1.21,.39,.26,.83,.39,1.33,.39,.39,0,.72-.06,1-.17,.27-.12,.55-.29,.83-.51l.37,.47c-.6,.57-1.34,.85-2.22,.85-.64,0-1.21-.16-1.71-.49s-.89-.81-1.18-1.45c-.28-.64-.43-1.41-.43-2.31s.15-1.67,.44-2.31c.3-.64,.69-1.12,1.19-1.44,.5-.32,1.06-.49,1.69-.49,.46,0,.84,.06,1.16,.19Z"/></g><g><path d="M437.21,325.13v8.29h-1.58v-8.29h1.58Zm4.66,0l-2.87,3.76,3.1,4.54h-1.88l-2.93-4.43,2.87-3.86h1.72Z"/><path d="M449.54,330.71c0,.56-.12,1.06-.35,1.49s-.59,.78-1.06,1.03c-.47,.25-1.03,.37-1.69,.37-.99,0-1.75-.26-2.28-.79-.53-.52-.79-1.23-.79-2.11v-5.58h1.58v5.5c0,.58,.12,1.02,.37,1.31,.24,.29,.62,.43,1.12,.43s.89-.14,1.13-.43c.24-.29,.37-.72,.37-1.31v-5.5h1.6v5.58Z"/><path d="M456.45,325.16c.38,.14,.74,.36,1.1,.66l-.8,.94c-.49-.39-1-.59-1.54-.59-.62,0-1.11,.25-1.48,.74s-.56,1.28-.56,2.34,.18,1.81,.55,2.32c.37,.5,.86,.76,1.49,.76,.33,0,.62-.06,.88-.17,.26-.12,.53-.28,.82-.5l.74,.94c-.28,.29-.63,.53-1.06,.72s-.91,.29-1.43,.29c-.72,0-1.36-.17-1.91-.5-.55-.34-.98-.83-1.28-1.48-.3-.65-.46-1.44-.46-2.36s.16-1.68,.47-2.33c.32-.65,.75-1.14,1.3-1.48,.55-.34,1.17-.5,1.85-.5,.5,0,.94,.07,1.32,.22Z"/><path d="M463.91,333.42v-3.71h-2.95v3.71h-1.58v-8.29h1.58v3.32h2.95v-3.32h1.6v8.29h-1.6Z"/><path d="M473.98,325.13l-2.66,5.15v3.14h-1.61v-3.13l-2.66-5.16h1.75l1.75,3.85,1.75-3.85h1.68Z"/><path d="M481.65,333.42h-2.05l-2.84-6.71c.07,.59,.13,1.13,.16,1.61,.04,.48,.05,1.05,.05,1.72v3.38h-1.44v-8.29h2l2.89,6.72c-.05-.32-.1-.74-.14-1.27-.05-.52-.07-1.05-.07-1.57v-3.89h1.44v8.29Zm-1.4-11.14l.59,.67-1.67,1.44h-.96l-1.67-1.44,.59-.67,1.56,1,1.56-1Z"/><path d="M449.44,343.7c.4,.39,.59,.9,.59,1.51,0,.52-.11,1.01-.32,1.46s-.55,.96-1.01,1.5-1.2,1.36-2.23,2.44h3.78l-.1,.61h-4.5v-.59c1.1-1.17,1.88-2.03,2.36-2.6,.48-.56,.81-1.05,1.01-1.46s.29-.85,.29-1.33-.14-.85-.41-1.13c-.28-.28-.64-.42-1.1-.42-.37,0-.69,.08-.98,.23-.28,.15-.55,.38-.81,.68l-.48-.36c.32-.39,.67-.68,1.04-.86s.79-.28,1.27-.28c.67,0,1.21,.2,1.6,.59Z"/><path d="M456.66,344.17c.42,.7,.64,1.73,.64,3.08s-.21,2.37-.64,3.07-1.05,1.05-1.87,1.05-1.45-.35-1.87-1.05-.64-1.73-.64-3.08,.21-2.38,.64-3.07c.42-.7,1.05-1.04,1.87-1.04s1.45,.35,1.87,1.05Zm-3.66,3.07c0,2.37,.6,3.55,1.79,3.55,.58,0,1.03-.29,1.33-.86,.3-.58,.45-1.47,.45-2.68s-.15-2.1-.45-2.68-.74-.87-1.33-.87c-1.19,0-1.79,1.18-1.79,3.54Z"/><path d="M460.43,346.27c-.28-.14-.5-.35-.67-.63s-.25-.6-.25-.97,.08-.68,.25-.95,.39-.48,.67-.63,.57-.22,.88-.22c.33,0,.63,.07,.91,.22,.28,.14,.5,.35,.66,.63,.16,.28,.25,.6,.25,.97s-.08,.68-.25,.95c-.16,.27-.38,.48-.66,.63-.28,.15-.58,.22-.91,.22s-.61-.07-.88-.22Zm1.74-.65c.22-.23,.33-.54,.33-.93s-.11-.71-.33-.94c-.22-.23-.51-.34-.86-.34s-.62,.11-.85,.34c-.23,.23-.34,.54-.34,.93s.11,.7,.34,.94c.23,.23,.51,.35,.85,.35s.64-.11,.86-.34Z"/><path d="M470.81,343.06c.32,.12,.63,.31,.95,.57l-.38,.48c-.28-.22-.55-.38-.8-.48-.26-.1-.55-.14-.88-.14-.78,0-1.41,.3-1.89,.89-.48,.59-.73,1.5-.73,2.74,0,.8,.11,1.47,.34,2.02,.22,.54,.53,.95,.92,1.21,.39,.26,.83,.39,1.33,.39,.39,0,.72-.06,1-.17,.27-.12,.55-.29,.83-.51l.37,.47c-.6,.57-1.34,.85-2.22,.85-.64,0-1.21-.16-1.71-.49s-.89-.81-1.18-1.45c-.28-.64-.43-1.41-.43-2.31s.15-1.67,.44-2.31c.3-.64,.69-1.12,1.19-1.44,.5-.32,1.06-.49,1.69-.49,.46,0,.84,.06,1.16,.19Z"/></g><g><path d="M383.64,168.39c.54,.34,.96,.83,1.25,1.48s.44,1.43,.44,2.34-.15,1.68-.44,2.33c-.3,.65-.72,1.14-1.26,1.49s-1.18,.52-1.92,.52-1.39-.17-1.93-.5c-.54-.34-.96-.83-1.26-1.48-.3-.65-.44-1.43-.44-2.34s.15-1.67,.44-2.32,.72-1.15,1.27-1.49c.55-.34,1.19-.52,1.93-.52s1.39,.17,1.93,.5Zm-3.4,1.46c-.34,.5-.5,1.29-.5,2.37,0,2.07,.66,3.11,1.97,3.11,.64,0,1.13-.25,1.46-.74,.33-.5,.5-1.29,.5-2.38s-.17-1.87-.5-2.36c-.33-.5-.82-.74-1.46-.74s-1.13,.25-1.46,.75Z"/><path d="M392.86,172.58c.35,.3,.52,.77,.52,1.39,0,.86-.3,1.48-.91,1.84-.61,.36-1.46,.55-2.56,.55h-2.5v-8.29h2.17c2.29,0,3.43,.7,3.43,2.11,0,.49-.15,.89-.44,1.19s-.66,.51-1.09,.59c.57,.1,1.03,.31,1.37,.61Zm-3.86-3.35v2.24h.97c.44,0,.79-.1,1.04-.29,.26-.2,.38-.49,.38-.87s-.13-.68-.4-.84c-.27-.16-.69-.24-1.25-.24h-.74Zm2.26,5.68c.31-.18,.46-.51,.46-1s-.15-.81-.44-1.02-.69-.31-1.19-.31h-1.09v2.59h.92c.58,0,1.03-.09,1.34-.26Z"/><path d="M401.01,168.07l-2.66,5.15v3.14h-1.61v-3.13l-2.66-5.16h1.75l1.75,3.85,1.75-3.85h1.68Zm-2.5-2.94l.6,1.2-2.75,1-.4-.79,2.54-1.4Z"/><path d="M408.4,168.07l-2.46,8.29h-1.88l-2.53-8.29h1.7l1.8,6.89,1.75-6.89h1.62Z"/><path d="M414.12,176.36l-.52-1.92h-2.75l-.52,1.92h-1.64l2.58-8.29h1.96l2.57,8.29h-1.68Zm-2.95-3.12h2.11l-1.06-3.96-1.06,3.96Z"/><path d="M421.69,168.1c.38,.14,.74,.36,1.1,.66l-.8,.94c-.49-.39-1-.59-1.54-.59-.62,0-1.11,.25-1.48,.74s-.56,1.28-.56,2.34,.18,1.81,.55,2.32c.37,.5,.86,.76,1.49,.76,.33,0,.62-.06,.88-.17,.26-.12,.53-.28,.82-.5l.74,.94c-.28,.29-.63,.53-1.06,.72s-.91,.29-1.43,.29c-.72,0-1.36-.17-1.91-.5-.55-.34-.98-.83-1.28-1.48-.3-.65-.46-1.44-.46-2.36s.16-1.68,.47-2.33c.32-.65,.75-1.14,1.3-1.48,.55-.34,1.17-.5,1.85-.5,.5,0,.94,.07,1.32,.22Z"/><path d="M426.39,165.13l.6,1.2-2.75,1-.4-.79,2.54-1.4Zm-.18,2.94v8.29h-1.58v-8.29h1.58Z"/><path d="M437.28,168.73c.59,.44,.88,1.1,.88,1.98s-.3,1.61-.89,2.07c-.59,.46-1.38,.69-2.36,.69h-.97v2.89h-1.58v-8.29h2.45c1.06,0,1.89,.22,2.48,.66Zm-1.21,3.2c.29-.24,.43-.64,.43-1.22,0-.98-.57-1.48-1.72-1.48h-.85v3.05h.85c.57,0,1-.12,1.28-.35Z"/><path d="M445.15,168.39c.54,.34,.96,.83,1.25,1.48s.44,1.43,.44,2.34-.15,1.68-.44,2.33c-.3,.65-.72,1.14-1.26,1.49s-1.18,.52-1.92,.52-1.39-.17-1.93-.5c-.54-.34-.96-.83-1.26-1.48-.3-.65-.44-1.43-.44-2.34s.15-1.67,.44-2.32,.72-1.15,1.27-1.49c.55-.34,1.19-.52,1.93-.52s1.39,.17,1.93,.5Zm-3.4,1.46c-.34,.5-.5,1.29-.5,2.37,0,2.07,.66,3.11,1.97,3.11,.64,0,1.13-.25,1.46-.74,.33-.5,.5-1.29,.5-2.38s-.17-1.87-.5-2.36c-.33-.5-.82-.74-1.46-.74s-1.13,.25-1.46,.75Z"/><path d="M450.52,168.07v8.29h-1.58v-8.29h1.58Zm4.66,0l-2.87,3.76,3.1,4.54h-1.88l-2.93-4.43,2.87-3.86h1.72Z"/><path d="M461.81,168.39c.54,.34,.96,.83,1.25,1.48s.44,1.43,.44,2.34-.15,1.68-.44,2.33c-.3,.65-.72,1.14-1.26,1.49s-1.18,.52-1.92,.52-1.39-.17-1.93-.5c-.54-.34-.96-.83-1.26-1.48-.3-.65-.44-1.43-.44-2.34s.15-1.67,.44-2.32,.72-1.15,1.27-1.49c.55-.34,1.19-.52,1.93-.52s1.39,.17,1.93,.5Zm-3.4,1.46c-.34,.5-.5,1.29-.5,2.37,0,2.07,.66,3.11,1.97,3.11,.64,0,1.13-.25,1.46-.74,.33-.5,.5-1.29,.5-2.38s-.17-1.87-.5-2.36c-.33-.5-.82-.74-1.46-.74s-1.13,.25-1.46,.75Z"/><path d="M467.28,175.15c0,.89-.21,1.56-.63,2.01-.42,.45-1.02,.81-1.81,1.06l-.42-1.14c.35-.14,.62-.29,.8-.46,.18-.17,.3-.38,.37-.61s.1-.54,.1-.92v-7.02h1.6v7.08Z"/><path d="M411.71,186.65c.4,.39,.59,.9,.59,1.51,0,.52-.11,1.01-.32,1.46s-.55,.96-1.01,1.5-1.2,1.36-2.23,2.44h3.78l-.1,.61h-4.5v-.59c1.1-1.17,1.88-2.03,2.36-2.6,.48-.56,.81-1.05,1.01-1.46s.29-.85,.29-1.33-.14-.85-.41-1.13c-.28-.28-.64-.42-1.1-.42-.37,0-.69,.08-.98,.23-.28,.15-.55,.38-.81,.68l-.48-.36c.32-.39,.67-.68,1.04-.86s.79-.28,1.27-.28c.67,0,1.21,.2,1.6,.59Z"/><path d="M418.93,187.11c.42,.7,.64,1.73,.64,3.08s-.21,2.37-.64,3.07-1.05,1.05-1.87,1.05-1.45-.35-1.87-1.05-.64-1.73-.64-3.08,.21-2.38,.64-3.07c.42-.7,1.05-1.04,1.87-1.04s1.45,.35,1.87,1.05Zm-3.66,3.07c0,2.37,.6,3.55,1.79,3.55,.58,0,1.03-.29,1.33-.86,.3-.58,.45-1.47,.45-2.68s-.15-2.1-.45-2.68-.74-.87-1.33-.87c-1.19,0-1.79,1.18-1.79,3.54Z"/><path d="M422.7,189.21c-.28-.14-.5-.35-.67-.63s-.25-.6-.25-.97,.08-.68,.25-.95,.39-.48,.67-.63,.57-.22,.88-.22c.33,0,.63,.07,.91,.22,.28,.14,.5,.35,.66,.63,.16,.28,.25,.6,.25,.97s-.08,.68-.25,.95c-.16,.27-.38,.48-.66,.63-.28,.15-.58,.22-.91,.22s-.61-.07-.88-.22Zm1.74-.65c.22-.23,.33-.54,.33-.93s-.11-.71-.33-.94c-.22-.23-.51-.34-.86-.34s-.62,.11-.85,.34c-.23,.23-.34,.54-.34,.93s.11,.7,.34,.94c.23,.23,.51,.35,.85,.35s.64-.11,.86-.34Z"/><path d="M433.08,186c.32,.12,.63,.31,.95,.57l-.38,.48c-.28-.22-.55-.38-.8-.48-.26-.1-.55-.14-.88-.14-.78,0-1.41,.3-1.89,.89-.48,.59-.73,1.5-.73,2.74,0,.8,.11,1.47,.34,2.02,.22,.54,.53,.95,.92,1.21,.39,.26,.83,.39,1.33,.39,.39,0,.72-.06,1-.17,.27-.12,.55-.29,.83-.51l.37,.47c-.6,.57-1.34,.85-2.22,.85-.64,0-1.21-.16-1.71-.49s-.89-.81-1.18-1.45c-.28-.64-.43-1.41-.43-2.31s.15-1.67,.44-2.31c.3-.64,.69-1.12,1.19-1.44,.5-.32,1.06-.49,1.69-.49,.46,0,.84,.06,1.16,.19Z"/></g><g><path d="M55.98,168.09c.43,.17,.84,.42,1.21,.77l-.78,.9c-.3-.25-.59-.43-.89-.54-.3-.11-.62-.17-.97-.17-.38,0-.69,.09-.93,.26-.24,.17-.35,.41-.35,.73,0,.21,.05,.38,.14,.52,.09,.14,.26,.26,.5,.38,.24,.12,.6,.25,1.07,.4,.82,.26,1.43,.57,1.84,.95s.62,.93,.62,1.66c0,.5-.13,.94-.38,1.32-.25,.38-.61,.68-1.09,.9-.47,.22-1.03,.32-1.68,.32s-1.2-.1-1.7-.31-.93-.48-1.29-.83l.82-.91c.32,.27,.65,.48,1,.62,.34,.14,.72,.21,1.14,.21,.46,0,.82-.11,1.1-.32,.28-.22,.42-.52,.42-.91,0-.24-.05-.44-.14-.59-.1-.16-.26-.3-.49-.42s-.57-.25-1.01-.39c-.88-.27-1.52-.6-1.91-.98s-.59-.89-.59-1.51c0-.46,.12-.86,.36-1.2,.24-.34,.57-.61,1-.8,.43-.19,.91-.29,1.46-.29,.58,0,1.09,.08,1.52,.25Zm.12-2.92l.59,.67-1.67,1.44h-.96l-1.67-1.44,.59-.67,1.56,1,1.56-1Z"/><path d="M63.72,176.31l-.52-1.92h-2.75l-.52,1.92h-1.64l2.58-8.29h1.96l2.57,8.29h-1.68Zm-2.95-3.12h2.11l-1.06-3.96-1.06,3.96Z"/><path d="M71.66,168.02l-.17,1.26h-2.16v7.03h-1.6v-7.03h-2.23v-1.26h6.16Z"/><path d="M79.41,176.31h-2.05l-2.84-6.71c.07,.59,.13,1.13,.16,1.61,.04,.48,.05,1.05,.05,1.72v3.38h-1.44v-8.29h2l2.89,6.72c-.05-.32-.1-.74-.14-1.27-.05-.52-.07-1.05-.07-1.57v-3.89h1.44v8.29Z"/><path d="M86.34,176.31l-.52-1.92h-2.75l-.52,1.92h-1.64l2.58-8.29h1.96l2.57,8.29h-1.68Zm-2.95-3.12h2.11l-1.06-3.96-1.06,3.96Z"/><path d="M60.38,186.14v7.98h-.7v-7.21l-1.97,1.22-.32-.52,2.39-1.48h.6Z"/><path d="M67.29,186.71h-3.24v2.72c.44-.25,.9-.37,1.37-.37,.69,0,1.23,.22,1.64,.67,.4,.44,.61,1.05,.61,1.82,0,.52-.11,.99-.32,1.4s-.51,.73-.9,.96c-.39,.23-.84,.34-1.35,.34-.89,0-1.64-.32-2.26-.96l.43-.42c.26,.27,.53,.47,.82,.6s.62,.19,1.01,.19c.57,0,1.02-.19,1.34-.57s.49-.9,.49-1.55-.15-1.12-.45-1.43c-.3-.32-.71-.47-1.22-.47-.26,0-.48,.03-.68,.09-.2,.06-.41,.16-.65,.29h-.55v-3.88h4.02l-.11,.58Z"/><path d="M70.5,189.16c-.28-.14-.5-.35-.67-.63s-.25-.6-.25-.97,.08-.68,.25-.95,.39-.48,.67-.63,.57-.22,.88-.22c.33,0,.63,.07,.91,.22,.28,.14,.5,.35,.66,.63,.16,.28,.25,.6,.25,.97s-.08,.68-.25,.95c-.16,.27-.38,.48-.66,.63-.28,.15-.58,.22-.91,.22s-.61-.07-.88-.22Zm1.74-.65c.22-.23,.33-.54,.33-.93s-.11-.71-.33-.94c-.22-.23-.51-.34-.86-.34s-.62,.11-.85,.34c-.23,.23-.34,.54-.34,.93s.11,.7,.34,.94c.23,.23,.51,.35,.85,.35s.64-.11,.86-.34Z"/><path d="M80.88,185.95c.32,.12,.63,.31,.95,.57l-.38,.48c-.28-.22-.55-.38-.8-.48-.26-.1-.55-.14-.88-.14-.78,0-1.41,.3-1.89,.89-.48,.59-.73,1.5-.73,2.74,0,.8,.11,1.47,.34,2.02,.22,.54,.53,.95,.92,1.21,.39,.26,.83,.39,1.33,.39,.39,0,.72-.06,1-.17,.27-.12,.55-.29,.83-.51l.37,.47c-.6,.57-1.34,.85-2.22,.85-.64,0-1.21-.16-1.71-.49s-.89-.81-1.18-1.45c-.28-.64-.43-1.41-.43-2.31s.15-1.67,.44-2.31c.3-.64,.69-1.12,1.19-1.44,.5-.32,1.06-.49,1.69-.49,.46,0,.84,.06,1.16,.19Z"/></g><g><path d="M187.42,168.01v7h3.32l-.18,1.3h-4.73v-8.29h1.58Z"/><path d="M197.11,168.34c.54,.34,.96,.83,1.25,1.48s.44,1.43,.44,2.34-.15,1.68-.44,2.33c-.3,.65-.72,1.14-1.26,1.49s-1.18,.52-1.92,.52-1.39-.17-1.93-.5c-.54-.34-.96-.83-1.26-1.48-.3-.65-.44-1.43-.44-2.34s.15-1.67,.44-2.32,.72-1.15,1.27-1.49c.55-.34,1.19-.52,1.93-.52s1.39,.17,1.93,.5Zm-3.4,1.46c-.34,.5-.5,1.29-.5,2.37,0,2.07,.66,3.11,1.97,3.11,.64,0,1.13-.25,1.46-.74,.33-.5,.5-1.29,.5-2.38s-.17-1.87-.5-2.36c-.33-.5-.82-.74-1.46-.74s-1.13,.25-1.46,.75Z"/><path d="M205.56,168.01v1.22l-3.83,5.77h3.86l-.17,1.3h-5.54v-1.21l3.9-5.82h-3.5v-1.26h5.28Zm-1.1-2.84l.59,.67-1.67,1.44h-.96l-1.67-1.44,.59-.67,1.56,1,1.56-1Z"/><path d="M213.71,176.31h-2.05l-2.84-6.71c.07,.59,.13,1.13,.16,1.61,.04,.48,.05,1.05,.05,1.72v3.38h-1.44v-8.29h2l2.89,6.72c-.05-.32-.1-.74-.14-1.27-.05-.52-.07-1.05-.07-1.57v-3.89h1.44v8.29Z"/><path d="M217.84,168.01v8.29h-1.58v-8.29h1.58Z"/><path d="M224.87,168.05c.38,.14,.74,.36,1.1,.66l-.8,.94c-.49-.39-1-.59-1.54-.59-.62,0-1.11,.25-1.48,.74s-.56,1.28-.56,2.34,.18,1.81,.55,2.32c.37,.5,.86,.76,1.49,.76,.33,0,.62-.06,.88-.17,.26-.12,.53-.28,.82-.5l.74,.94c-.28,.29-.63,.53-1.06,.72s-.91,.29-1.43,.29c-.72,0-1.36-.17-1.91-.5-.55-.34-.98-.83-1.28-1.48-.3-.65-.46-1.44-.46-2.36s.16-1.68,.47-2.33c.32-.65,.75-1.14,1.3-1.48,.55-.34,1.17-.5,1.85-.5,.5,0,.94,.07,1.32,.22Z"/><path d="M232.61,168.01l-.17,1.18h-3.06v2.32h2.66v1.18h-2.66v2.44h3.28v1.19h-4.86v-8.29h4.81Z"/><path d="M199.83,186.59c.4,.39,.59,.9,.59,1.51,0,.52-.11,1.01-.32,1.46s-.55,.96-1.01,1.5-1.2,1.36-2.23,2.44h3.78l-.1,.61h-4.5v-.59c1.1-1.17,1.88-2.03,2.36-2.6,.48-.56,.81-1.05,1.01-1.46s.29-.85,.29-1.33-.14-.85-.41-1.13c-.28-.28-.64-.42-1.1-.42-.37,0-.69,.08-.98,.23-.28,.15-.55,.38-.81,.68l-.48-.36c.32-.39,.67-.68,1.04-.86s.79-.28,1.27-.28c.67,0,1.21,.2,1.6,.59Z"/><path d="M207.05,187.05c.42,.7,.64,1.73,.64,3.08s-.21,2.37-.64,3.07-1.05,1.05-1.87,1.05-1.45-.35-1.87-1.05-.64-1.73-.64-3.08,.21-2.38,.64-3.07c.42-.7,1.05-1.04,1.87-1.04s1.45,.35,1.87,1.05Zm-3.66,3.07c0,2.37,.6,3.55,1.79,3.55,.58,0,1.03-.29,1.33-.86,.3-.58,.45-1.47,.45-2.68s-.15-2.1-.45-2.68-.74-.87-1.33-.87c-1.19,0-1.79,1.18-1.79,3.54Z"/><path d="M210.82,189.16c-.28-.14-.5-.35-.67-.63s-.25-.6-.25-.97,.08-.68,.25-.95,.39-.48,.67-.63,.57-.22,.88-.22c.33,0,.63,.07,.91,.22,.28,.14,.5,.35,.66,.63,.16,.28,.25,.6,.25,.97s-.08,.68-.25,.95c-.16,.27-.38,.48-.66,.63-.28,.15-.58,.22-.91,.22s-.61-.07-.88-.22Zm1.74-.65c.22-.23,.33-.54,.33-.93s-.11-.71-.33-.94c-.22-.23-.51-.34-.86-.34s-.62,.11-.85,.34c-.23,.23-.34,.54-.34,.93s.11,.7,.34,.94c.23,.23,.51,.35,.85,.35s.64-.11,.86-.34Z"/><path d="M221.2,185.95c.32,.12,.63,.31,.95,.57l-.38,.48c-.28-.22-.55-.38-.8-.48-.26-.1-.55-.14-.88-.14-.78,0-1.41,.3-1.89,.89-.48,.59-.73,1.5-.73,2.74,0,.8,.11,1.47,.34,2.02,.22,.54,.53,.95,.92,1.21,.39,.26,.83,.39,1.33,.39,.39,0,.72-.06,1-.17,.27-.12,.55-.29,.83-.51l.37,.47c-.6,.57-1.34,.85-2.22,.85-.64,0-1.21-.16-1.71-.49s-.89-.81-1.18-1.45c-.28-.64-.43-1.41-.43-2.31s.15-1.67,.44-2.31c.3-.64,.69-1.12,1.19-1.44,.5-.32,1.06-.49,1.69-.49,.46,0,.84,.06,1.16,.19Z"/></g><g><path d="M226.12,274.09c.38,.14,.74,.36,1.1,.66l-.8,.94c-.49-.39-1-.59-1.54-.59-.62,0-1.11,.25-1.48,.74s-.56,1.28-.56,2.34,.18,1.81,.55,2.32c.37,.5,.86,.76,1.49,.76,.33,0,.62-.06,.88-.17,.26-.12,.53-.28,.82-.5l.74,.94c-.28,.29-.63,.53-1.06,.72s-.91,.29-1.43,.29c-.72,0-1.36-.17-1.91-.5-.55-.34-.98-.83-1.28-1.48-.3-.65-.46-1.44-.46-2.36s.16-1.68,.47-2.33c.32-.65,.75-1.14,1.3-1.48,.55-.34,1.17-.5,1.85-.5,.5,0,.94,.07,1.32,.22Z"/><path d="M233.59,282.35v-3.71h-2.95v3.71h-1.58v-8.29h1.58v3.32h2.95v-3.32h1.6v8.29h-1.6Z"/><path d="M242.83,274.38c.54,.34,.96,.83,1.25,1.48s.44,1.43,.44,2.34-.15,1.68-.44,2.33c-.3,.65-.72,1.14-1.26,1.49s-1.18,.52-1.92,.52-1.39-.17-1.93-.5c-.54-.34-.96-.83-1.26-1.48-.3-.65-.44-1.43-.44-2.34s.15-1.67,.44-2.32,.72-1.15,1.27-1.49c.55-.34,1.19-.52,1.93-.52s1.39,.17,1.93,.5Zm-3.4,1.46c-.34,.5-.5,1.29-.5,2.37,0,2.07,.66,3.11,1.97,3.11,.64,0,1.13-.25,1.46-.74,.33-.5,.5-1.29,.5-2.38s-.17-1.87-.5-2.36c-.33-.5-.82-.74-1.46-.74s-1.13,.25-1.46,.75Z"/><path d="M251.74,274.93c.77,.58,1.16,1.66,1.16,3.23s-.38,2.62-1.14,3.25-1.72,.94-2.89,.94h-2.26v-8.29h2.04c1.29,0,2.32,.29,3.09,.88Zm-3.55,.31v5.92h.78c.7,0,1.26-.22,1.66-.65,.4-.44,.6-1.22,.6-2.35,0-.78-.1-1.39-.31-1.82-.2-.43-.47-.72-.8-.87-.33-.15-.73-.23-1.19-.23h-.73Z"/><path d="M260.43,278.57c.35,.3,.52,.77,.52,1.39,0,.86-.3,1.48-.91,1.84-.61,.36-1.46,.55-2.56,.55h-2.5v-8.29h2.17c2.29,0,3.43,.7,3.43,2.11,0,.49-.15,.89-.44,1.19s-.66,.51-1.09,.59c.57,.1,1.03,.31,1.37,.61Zm-3.86-3.35v2.24h.97c.44,0,.79-.1,1.04-.29,.26-.2,.38-.49,.38-.87s-.13-.68-.4-.84c-.27-.16-.69-.24-1.25-.24h-.74Zm2.26,5.68c.31-.18,.46-.51,.46-1s-.15-.81-.44-1.02-.69-.31-1.19-.31h-1.09v2.59h.92c.58,0,1.03-.09,1.34-.26Z"/><path d="M267.27,282.35l-.52-1.92h-2.75l-.52,1.92h-1.64l2.58-8.29h1.96l2.57,8.29h-1.68Zm-2.95-3.12h2.11l-1.06-3.96-1.06,3.96Z"/><path d="M235.62,292.18v7.98h-.7v-7.21l-1.97,1.22-.32-.52,2.39-1.48h.6Z"/><path d="M242.53,292.75h-3.24v2.72c.44-.25,.9-.37,1.37-.37,.69,0,1.23,.22,1.64,.67,.4,.44,.61,1.05,.61,1.82,0,.52-.11,.99-.32,1.4s-.51,.73-.9,.96c-.39,.23-.84,.34-1.35,.34-.89,0-1.64-.32-2.26-.96l.43-.42c.26,.27,.53,.47,.82,.6s.62,.19,1.01,.19c.57,0,1.02-.19,1.34-.57s.49-.9,.49-1.55-.15-1.12-.45-1.43c-.3-.32-.71-.47-1.22-.47-.26,0-.48,.03-.68,.09-.2,.06-.41,.16-.65,.29h-.55v-3.88h4.02l-.11,.58Z"/><path d="M245.74,295.2c-.28-.14-.5-.35-.67-.63s-.25-.6-.25-.97,.08-.68,.25-.95,.39-.48,.67-.63,.57-.22,.88-.22c.33,0,.63,.07,.91,.22,.28,.14,.5,.35,.66,.63,.16,.28,.25,.6,.25,.97s-.08,.68-.25,.95c-.16,.27-.38,.48-.66,.63-.28,.15-.58,.22-.91,.22s-.61-.07-.88-.22Zm1.74-.65c.22-.23,.33-.54,.33-.93s-.11-.71-.33-.94c-.22-.23-.51-.34-.86-.34s-.62,.11-.85,.34c-.23,.23-.34,.54-.34,.93s.11,.7,.34,.94c.23,.23,.51,.35,.85,.35s.64-.11,.86-.34Z"/><path d="M256.13,291.99c.32,.12,.63,.31,.95,.57l-.38,.48c-.28-.22-.55-.38-.8-.48-.26-.1-.55-.14-.88-.14-.78,0-1.41,.3-1.89,.89-.48,.59-.73,1.5-.73,2.74,0,.8,.11,1.47,.34,2.02,.22,.54,.53,.95,.92,1.21,.39,.26,.83,.39,1.33,.39,.39,0,.72-.06,1-.17,.27-.12,.55-.29,.83-.51l.37,.47c-.6,.57-1.34,.85-2.22,.85-.64,0-1.21-.16-1.71-.49s-.89-.81-1.18-1.45c-.28-.64-.43-1.41-.43-2.31s.15-1.67,.44-2.31c.3-.64,.69-1.12,1.19-1.44,.5-.32,1.06-.49,1.69-.49,.46,0,.84,.06,1.16,.19Z"/></g><g><polyline class="h" points="317.75 260.42 300.22 260.42 300.22 105.64 545.54 105.64 545.54 260.42 351.73 260.42"/><rect class="h" x="388.73" y="243.44" width="139.83" height="173.8" transform="translate(788.98 -128.3) rotate(90)"/><rect class="h" x="262.5" y="291.01" width="91.52" height="126.95" transform="translate(662.75 46.23) rotate(90)"/><rect class="h" x="135.55" y="291.01" width="91.52" height="126.95" transform="translate(535.8 173.19) rotate(90)"/><rect class="h" x="220.63" y="157.62" width="48.31" height="253.91" transform="translate(529.36 39.8) rotate(90)"/><rect class="h" x="-4.91" y="137.68" width="154.79" height="90.7" transform="translate(255.51 110.55) rotate(90)"/><rect class="h" x="131.63" y="91.83" width="154.79" height="182.39" transform="translate(392.06 -25.99) rotate(90)"/></g><g><line class="j" x1="153.61" y1="308.72" x2="125.21" y2="308.72"/><path class="i" d="M125.21,310.39v-28.46c7.54,0,14.79,3,20.12,8.33s8.33,12.58,8.33,20.12"/></g><g><line class="j" x1="283.74" y1="308.73" x2="255.34" y2="308.73"/><path class="i" d="M255.34,308.73v28.46c7.54,0,14.79-3,20.12-8.33,5.33-5.33,8.33-12.58,8.33-20.12"/></g><g><line class="j" x1="173.71" y1="260.42" x2="202.11" y2="260.42"/><path class="i" d="M202.11,260.42v-28.46c-7.54,0-14.79,3-20.12,8.33s-8.33,12.58-8.33,20.12"/></g><g><line class="j" x1="346.16" y1="260.42" x2="317.75" y2="260.42"/><path class="i" d="M317.75,260.42v-28.46c7.54,0,14.79,3,20.12,8.33s8.33,12.58,8.33,20.12"/></g><g><line class="j" x1="117.83" y1="222.41" x2="117.83" y2="250.82"/><path class="i" d="M117.83,250.82h-28.46c0-7.54,3-14.79,8.33-20.12,5.33-5.33,12.58-8.33,20.12-8.33"/></g><g><line class="j" x1="371.74" y1="298.76" x2="371.74" y2="270.35"/><path class="i" d="M371.74,270.35h28.46c0,7.54-3,14.79-8.33,20.12s-12.58,8.33-20.12,8.33"/></g><g><path d="M199.71,67l-.19,1.38h-2.1v6.92h-1.76v-6.92h-2.21v-1.38h6.26Z"/><path d="M203.87,72.06h-.9v3.25h-1.76v-8.3h2.59c1.11,0,1.95,.21,2.51,.62,.56,.41,.84,1.03,.84,1.87,0,.54-.13,.99-.4,1.34-.27,.35-.68,.65-1.24,.9l2.15,3.58h-2l-1.78-3.25Zm-.9-1.25h.92c.47,0,.83-.11,1.07-.32s.36-.55,.36-1c0-.42-.13-.73-.38-.93-.25-.2-.65-.29-1.18-.29h-.79v2.54Z"/><path d="M215.1,67l-2.39,8.3h-2.15l-2.47-8.3h1.88l1.69,6.84,1.63-6.84h1.8Z"/><path d="M220.67,75.31l-.47-1.86h-2.6l-.47,1.86h-1.84l2.56-8.3h2.15l2.54,8.3h-1.87Zm-2.74-3.17h1.93l-.97-3.83-.96,3.83Z"/><path d="M225.67,67v6.89h3.29l-.19,1.42h-4.86v-8.3h1.76Z"/><path d="M235.57,67l-.19,1.28h-3v2.16h2.62v1.27h-2.62v2.29h3.22v1.3h-4.98v-8.3h4.96Z"/><path d="M246.33,67.32c.55,.34,.98,.83,1.27,1.48s.44,1.43,.44,2.35-.15,1.68-.44,2.33-.72,1.15-1.27,1.49c-.55,.34-1.21,.52-1.97,.52s-1.42-.17-1.97-.51c-.56-.34-.98-.84-1.28-1.49-.3-.65-.44-1.43-.44-2.35s.15-1.67,.45-2.32c.3-.65,.73-1.15,1.28-1.5,.56-.35,1.21-.52,1.96-.52s1.42,.17,1.97,.51Zm-3.34,1.53c-.31,.48-.46,1.25-.46,2.3s.16,1.82,.47,2.3c.31,.48,.77,.72,1.37,.72s1.06-.24,1.37-.71c.3-.48,.46-1.25,.46-2.31s-.15-1.83-.46-2.31c-.3-.48-.76-.71-1.37-.71s-1.07,.24-1.37,.72Z"/><path d="M255.58,71.52c.35,.3,.52,.76,.52,1.37,0,.87-.31,1.49-.94,1.86-.62,.37-1.49,.55-2.6,.55h-2.59v-8.3h2.27c1.14,0,2,.17,2.6,.5,.6,.34,.9,.88,.9,1.62,0,.49-.15,.88-.44,1.18s-.65,.5-1.09,.61c.56,.1,1.01,.31,1.36,.61Zm-3.85-3.25v2.1h.86c.43,0,.76-.09,1-.27,.23-.18,.35-.45,.35-.82s-.12-.63-.37-.78c-.25-.15-.64-.23-1.16-.23h-.67Zm2.1,5.48c.29-.16,.43-.47,.43-.93,0-.83-.51-1.25-1.54-1.25h-1v2.42h.84c.55,0,.97-.08,1.26-.25Z"/><path d="M263.8,67l-2.66,5.17v3.13h-1.76v-3.12l-2.66-5.18h1.93l1.66,3.77,1.64-3.77h1.86Z"/><path d="M270.73,67l-.19,1.38h-2.1v6.92h-1.76v-6.92h-2.21v-1.38h6.26Z"/><path d="M278.5,75.31h-2.27l-2.64-6.59c.07,.57,.13,1.1,.17,1.6s.07,1.09,.07,1.76v3.23h-1.6v-8.3h2.22l2.69,6.6c-.16-1.07-.24-2.06-.24-2.95v-3.65h1.6v8.3Z"/><path d="M287.02,67l-2.66,5.17v3.13h-1.76v-3.12l-2.66-5.18h1.93l1.66,3.77,1.64-3.77h1.86Zm-2.57-3.04l.65,1.3-2.81,1.02-.43-.88,2.59-1.44Z"/><path d="M297.26,67.89c.78,.59,1.17,1.67,1.17,3.23s-.38,2.62-1.15,3.25c-.76,.63-1.74,.94-2.93,.94h-2.38v-8.3h2.17c1.3,0,2.33,.29,3.11,.88Zm-3.52,.41v5.71h.72c.68,0,1.21-.21,1.58-.63,.37-.42,.56-1.17,.56-2.26,0-.75-.09-1.34-.28-1.75-.19-.42-.44-.7-.75-.85-.31-.15-.69-.22-1.14-.22h-.68Z"/><path d="M306.58,72.57c0,.57-.12,1.07-.36,1.51-.24,.44-.6,.79-1.07,1.04-.48,.25-1.05,.38-1.73,.38-1.02,0-1.81-.27-2.35-.8-.54-.53-.81-1.24-.81-2.13v-5.57h1.76v5.48c0,.56,.11,.98,.34,1.25,.22,.28,.58,.41,1.06,.41s.83-.14,1.06-.41c.23-.28,.34-.69,.34-1.25v-5.48h1.76v5.57Zm-2-8.66c.3,.29,.44,.65,.44,1.06s-.15,.78-.44,1.07-.68,.44-1.15,.44-.86-.15-1.15-.44c-.3-.29-.44-.65-.44-1.07s.15-.77,.44-1.06c.3-.29,.68-.44,1.15-.44s.86,.15,1.15,.44Zm-1.56,.61c-.1,.11-.16,.26-.16,.45s.05,.35,.15,.46c.1,.11,.24,.16,.41,.16s.31-.05,.41-.16,.15-.26,.15-.46-.05-.34-.16-.45c-.1-.11-.24-.16-.41-.16s-.3,.05-.41,.16Z"/><path d="M316.87,75.31h-1.73l-.18-3.37c-.06-1.01-.08-1.86-.08-2.57,0-.38,0-.65,.01-.82l-1.4,5.87h-1.67l-1.5-5.88c.03,.49,.05,1.04,.05,1.64,0,.65-.02,1.24-.05,1.79l-.18,3.34h-1.72l.65-8.3h2.24l1.37,5.72,1.28-5.72h2.27l.64,8.3Z"/></g><g><path class="g" d="M169.11,423.57v.96l-4.03,6.96h4.02l-.13,1.03h-5.21v-.96l4.05-6.98h-3.65v-1h4.95Z"/><path class="g" d="M175.19,422.9v9.61h-1.04l-.08-.9c-.44,.71-1.04,1.07-1.78,1.07s-1.32-.32-1.74-.95c-.41-.63-.62-1.5-.62-2.61,0-.72,.1-1.35,.3-1.9,.2-.55,.49-.97,.87-1.27,.37-.3,.8-.45,1.29-.45,.65,0,1.19,.27,1.62,.82v-3.55l1.17,.13Zm-1.81,8.59c.23-.17,.44-.43,.64-.77v-3.43c-.39-.58-.85-.87-1.37-.87-.46,0-.82,.22-1.09,.66-.27,.44-.4,1.11-.39,2,0,.91,.12,1.58,.37,2.02,.24,.43,.58,.65,1.03,.65,.31,0,.58-.09,.81-.26Z"/><path class="g" d="M180.69,425.59l-.19,1.13c-.17-.05-.34-.08-.53-.08-.38,0-.69,.15-.93,.45-.24,.3-.43,.77-.57,1.39v4.02h-1.17v-6.84h1.01l.09,1.35c.34-1.01,.91-1.51,1.7-1.51,.22,0,.42,.03,.58,.08Z"/><path class="g" d="M185.89,426.43c.48,.62,.73,1.5,.73,2.65s-.25,1.99-.74,2.63-1.17,.97-2.04,.97-1.56-.32-2.05-.95c-.49-.63-.73-1.51-.73-2.64s.25-2.02,.74-2.65,1.18-.94,2.05-.94,1.55,.31,2.04,.92Zm-3.21,.66c-.27,.43-.4,1.1-.4,2.01,0,1.78,.52,2.67,1.56,2.67s1.56-.89,1.56-2.68c0-.91-.13-1.58-.39-2-.26-.42-.65-.64-1.16-.64s-.9,.21-1.17,.64Z"/><path class="g" d="M189.48,432.24c0,.58-.08,1.06-.23,1.42-.15,.37-.37,.67-.65,.9-.28,.23-.66,.46-1.14,.68l-.36-.85c.3-.16,.54-.31,.7-.47,.16-.16,.29-.36,.38-.62,.09-.26,.13-.61,.13-1.04v-6.59h1.17v6.56Zm-.03-9.57c.14,.15,.21,.33,.21,.55s-.07,.4-.21,.54-.32,.21-.56,.21-.41-.07-.55-.21c-.14-.14-.21-.32-.21-.54s.07-.4,.21-.55c.14-.15,.33-.22,.55-.22s.41,.07,.55,.22Z"/><path class="g" d="M199.5,422.9v9.61h-1.04l-.08-.9c-.44,.71-1.04,1.07-1.78,1.07s-1.32-.32-1.74-.95c-.41-.63-.62-1.5-.62-2.61,0-.72,.1-1.35,.31-1.9,.2-.55,.49-.97,.86-1.27,.37-.3,.8-.45,1.29-.45,.65,0,1.19,.27,1.62,.82v-3.55l1.17,.13Zm-1.81,8.59c.23-.17,.44-.43,.64-.77v-3.43c-.39-.58-.84-.87-1.37-.87-.46,0-.82,.22-1.09,.66s-.4,1.11-.39,2c0,.91,.12,1.58,.36,2.02,.24,.43,.59,.65,1.03,.65,.31,0,.58-.09,.81-.26Z"/><path class="g" d="M205.99,431.57c.08,.13,.2,.24,.36,.31l-.25,.79c-.34-.05-.6-.16-.79-.31-.19-.16-.33-.39-.4-.72-.44,.69-1.06,1.04-1.86,1.04-.61,0-1.09-.19-1.44-.57-.36-.38-.53-.88-.53-1.51,0-.73,.24-1.28,.71-1.66,.48-.38,1.16-.57,2.04-.57h.88v-.58c0-.48-.1-.82-.29-1.03-.2-.21-.51-.32-.96-.32-.48,0-1.03,.12-1.66,.36l-.29-.82c.76-.31,1.47-.47,2.13-.47,1.48,0,2.22,.74,2.22,2.22v3.22c0,.28,.04,.48,.12,.62Zm-1.27-.84v-1.61h-.75c-1.13,0-1.69,.47-1.69,1.42,0,.41,.09,.72,.27,.94,.18,.22,.44,.33,.78,.33,.61,0,1.07-.36,1.39-1.07Z"/><path class="g" d="M211.21,432.21c-.43,.31-.91,.47-1.44,.47-.55,0-.98-.16-1.28-.48s-.45-.77-.45-1.35v-4.29h-.97v-.88h.97v-1.57l1.17-.14v1.72h1.51l-.13,.88h-1.38v4.28c0,.59,.25,.88,.74,.88,.15,0,.28-.02,.41-.06,.13-.04,.27-.11,.42-.2l.43,.75Z"/><path class="g" d="M213.18,426.43c.15,.16,.23,.35,.23,.58s-.08,.42-.23,.58c-.15,.17-.35,.25-.59,.25s-.43-.08-.58-.25c-.15-.16-.23-.36-.23-.58s.08-.42,.23-.58c.15-.16,.34-.24,.58-.24s.44,.08,.59,.24Zm0,4.84c.15,.16,.23,.35,.23,.58s-.08,.42-.23,.58c-.15,.16-.35,.25-.59,.25s-.43-.08-.58-.25c-.15-.16-.23-.36-.23-.58s.08-.42,.23-.58c.15-.16,.34-.24,.58-.24s.44,.08,.59,.24Z"/><path class="g" d="M223.55,423.57l-2.47,8.94h-1.44l-2.51-8.94h1.25l2,7.77,1.98-7.77h1.2Z"/><path class="g" d="M227.15,432.54c-.24,.81-.58,1.43-1.03,1.87s-1.07,.72-1.89,.85l-.13-.87c.41-.09,.73-.2,.97-.35s.44-.34,.58-.57c.15-.23,.29-.55,.43-.95h-.43l-2.03-6.84h1.21l1.59,6.02,1.59-6.02h1.2l-2.07,6.86Z"/><path class="g" d="M234.71,426.05c.31,.36,.46,.86,.46,1.48v4.98h-1.17v-4.84c0-.44-.08-.76-.23-.96-.15-.19-.38-.29-.67-.29-.57,0-1.09,.41-1.56,1.22v4.86h-1.17v-9.59l1.17-.13v3.86c.25-.37,.53-.66,.83-.85,.3-.2,.65-.29,1.05-.29,.55,0,.97,.18,1.28,.55Z"/><path class="g" d="M237.52,432.3c-.24-.25-.36-.6-.36-1.05v-8.35l1.17-.13v8.44c0,.34,.14,.51,.42,.51,.11,0,.24-.03,.38-.08l.26,.82c-.28,.15-.57,.22-.87,.22-.42,0-.75-.13-.99-.38Z"/><path class="g" d="M244.97,431.57c.08,.13,.2,.24,.37,.31l-.25,.79c-.34-.05-.6-.16-.79-.31-.19-.16-.32-.39-.4-.72-.44,.69-1.06,1.04-1.86,1.04-.61,0-1.09-.19-1.44-.57s-.53-.88-.53-1.51c0-.73,.24-1.28,.72-1.66,.48-.38,1.16-.57,2.04-.57h.88v-.58c0-.48-.1-.82-.29-1.03-.19-.21-.51-.32-.96-.32-.48,0-1.03,.12-1.66,.36l-.29-.82c.76-.31,1.47-.47,2.13-.47,1.48,0,2.22,.74,2.22,2.22v3.22c0,.28,.04,.48,.12,.62Zm-1.49-9.42l.49,.94-2.5,1.13-.34-.6,2.34-1.47Zm.22,8.58v-1.61h-.75c-1.13,0-1.69,.47-1.69,1.42,0,.41,.09,.72,.27,.94,.18,.22,.44,.33,.78,.33,.61,0,1.07-.36,1.39-1.07Z"/><path class="g" d="M250.74,426.28l-.49,.69c-.28-.19-.54-.33-.78-.43-.24-.1-.5-.14-.77-.14-.36,0-.63,.08-.84,.25-.21,.17-.31,.4-.31,.7s.1,.51,.29,.68,.56,.33,1.11,.51c.68,.22,1.18,.48,1.49,.79,.31,.31,.47,.74,.47,1.29,0,.64-.23,1.15-.7,1.51-.47,.37-1.05,.55-1.76,.55-.93,0-1.71-.31-2.35-.92l.6-.65c.54,.44,1.12,.66,1.73,.66,.38,0,.69-.1,.92-.29,.23-.19,.35-.46,.35-.79,0-.24-.04-.44-.12-.58s-.23-.28-.44-.4c-.21-.12-.52-.24-.93-.37-.65-.22-1.12-.48-1.4-.78-.29-.3-.43-.69-.43-1.16,0-.36,.1-.69,.29-.98,.19-.29,.46-.51,.79-.68s.73-.25,1.17-.25c.79,0,1.49,.26,2.11,.78Zm-.59-3.95l.46,.52-1.57,1.51h-.73l-1.57-1.51,.46-.52,1.48,1.14,1.48-1.14Z"/><path class="g" d="M253.59,422.77v9.74h-1.17v-9.61l1.17-.13Zm3.6,2.9l-2.31,3.04,2.54,3.8h-1.3l-2.46-3.74,2.31-3.09h1.22Z"/><path class="g" d="M262.66,431.57c.08,.13,.2,.24,.37,.31l-.25,.79c-.34-.05-.6-.16-.79-.31-.19-.16-.32-.39-.4-.72-.44,.69-1.06,1.04-1.86,1.04-.61,0-1.09-.19-1.44-.57s-.53-.88-.53-1.51c0-.73,.24-1.28,.72-1.66,.48-.38,1.16-.57,2.04-.57h.88v-.58c0-.48-.1-.82-.29-1.03-.19-.21-.51-.32-.96-.32-.48,0-1.03,.12-1.66,.36l-.29-.82c.76-.31,1.47-.47,2.13-.47,1.48,0,2.22,.74,2.22,2.22v3.22c0,.28,.04,.48,.12,.62Zm-1.27-.84v-1.61h-.75c-1.13,0-1.69,.47-1.69,1.42,0,.41,.09,.72,.27,.94,.18,.22,.44,.33,.78,.33,.61,0,1.07-.36,1.39-1.07Z"/><path class="g" d="M271.09,425.68c.3,.12,.59,.31,.87,.56l-.52,.7c-.21-.16-.42-.29-.62-.37-.21-.08-.43-.12-.68-.12-.51,0-.91,.22-1.19,.65-.28,.43-.42,1.11-.42,2.03,0,1.72,.54,2.57,1.61,2.57,.24,0,.46-.04,.66-.12,.2-.08,.41-.21,.64-.37l.55,.71c-.55,.5-1.18,.75-1.88,.75-.88,0-1.56-.3-2.06-.91-.5-.61-.75-1.48-.75-2.63,0-.75,.12-1.39,.34-1.94,.23-.55,.55-.97,.97-1.26,.42-.29,.91-.44,1.48-.44,.36,0,.7,.06,1,.18Zm.47-3.35l.46,.52-1.57,1.51h-.73l-1.57-1.51,.45-.52,1.48,1.14,1.48-1.14Z"/><path class="g" d="M274.31,431.27c.15,.16,.23,.35,.23,.58s-.08,.42-.23,.58c-.15,.16-.35,.25-.59,.25s-.43-.08-.58-.25c-.15-.16-.23-.36-.23-.58s.08-.42,.23-.58c.15-.16,.35-.24,.58-.24s.44,.08,.59,.24Z"/><path class="g" d="M281.98,423.81v8.7h-1.16v-7.48l-1.81,1.22-.53-.78,2.47-1.66h1.03Z"/><path class="g" d="M288.28,424.57c.44,.6,.66,1.44,.66,2.53,0,1.15-.16,2.1-.47,2.83s-.78,1.32-1.4,1.75c-.62,.44-1.44,.81-2.46,1.11l-.26-.86c1.06-.33,1.86-.77,2.41-1.32,.55-.55,.87-1.31,.96-2.28-.22,.31-.47,.56-.77,.73s-.63,.27-1.01,.27c-.4,0-.77-.11-1.11-.34-.34-.23-.6-.55-.8-.97s-.29-.91-.29-1.48c0-.61,.11-1.13,.34-1.56,.23-.43,.53-.76,.92-.99,.39-.23,.83-.34,1.33-.34,.87,0,1.52,.3,1.96,.9Zm-.54,2.78c0-1-.1-1.71-.32-2.14-.22-.43-.58-.64-1.08-.64-.45,0-.8,.17-1.05,.5-.25,.33-.38,.83-.38,1.5,0,.62,.12,1.08,.35,1.4,.23,.32,.55,.48,.96,.48,.59,0,1.1-.37,1.52-1.1Z"/><path class="g" d="M295.4,429.43v.94h-.99v2.15h-1.12v-2.15h-3.4v-.85l2.33-5.86,.99,.38-2.12,5.4h2.22l.12-2.37h.99v2.37h.99Z"/><path class="g" d="M299.4,422.02l.99,.22-2.76,11.61-.99-.22,2.76-11.61Z"/><path class="g" d="M304.96,423.97c.36,.2,.63,.48,.83,.83,.19,.35,.29,.75,.29,1.19,0,.53-.1,1.03-.3,1.5-.21,.47-.53,1-.98,1.58-.45,.58-1.14,1.4-2.08,2.47h3.56l-.14,.96h-4.71v-.91c1.01-1.16,1.74-2.04,2.2-2.64,.46-.6,.79-1.11,.97-1.54,.18-.43,.27-.88,.27-1.36s-.12-.81-.34-1.07c-.23-.25-.54-.38-.93-.38-.33,0-.62,.07-.86,.22-.24,.15-.49,.38-.76,.7l-.73-.56c.63-.88,1.44-1.31,2.43-1.31,.49,0,.92,.1,1.28,.31Z"/><path class="g" d="M312.15,424.8c.45,.75,.68,1.88,.68,3.37s-.22,2.64-.68,3.39c-.45,.75-1.11,1.12-1.99,1.12s-1.55-.38-2-1.13-.68-1.88-.68-3.38c0-3,.89-4.5,2.68-4.5,.88,0,1.54,.38,1.99,1.13Zm-3.1,.6c-.24,.55-.36,1.47-.36,2.76s.12,2.22,.36,2.77c.24,.55,.61,.82,1.11,.82s.86-.27,1.1-.82c.24-.55,.36-1.47,.36-2.77s-.12-2.22-.35-2.77c-.23-.55-.6-.82-1.11-.82s-.87,.28-1.11,.83Z"/><path class="g" d="M318.93,424.8c.45,.75,.68,1.88,.68,3.37s-.22,2.64-.68,3.39c-.45,.75-1.11,1.12-1.99,1.12s-1.55-.38-2-1.13c-.45-.75-.68-1.88-.68-3.38,0-3,.89-4.5,2.68-4.5,.88,0,1.54,.38,1.99,1.13Zm-3.1,.6c-.24,.55-.36,1.47-.36,2.76s.12,2.22,.36,2.77c.24,.55,.61,.82,1.11,.82s.86-.27,1.1-.82c.24-.55,.36-1.47,.36-2.77s-.12-2.22-.35-2.77c-.23-.55-.6-.82-1.11-.82s-.87,.28-1.11,.83Z"/><path class="g" d="M325.01,423.81v.86l-2.98,7.97-1.05-.34,2.86-7.55h-3.48v-.94h4.65Z"/><path class="g" d="M333.01,423.66c.39,.17,.76,.43,1.11,.78l-.61,.69c-.29-.26-.59-.45-.88-.58-.29-.13-.61-.19-.94-.19-.43,0-.78,.12-1.05,.36-.26,.24-.4,.55-.4,.94,0,.26,.05,.48,.16,.67,.11,.19,.28,.36,.53,.51,.25,.15,.61,.31,1.07,.46,.53,.19,.96,.39,1.3,.61,.34,.22,.6,.49,.78,.83s.27,.76,.27,1.27-.12,.97-.35,1.37-.57,.72-1.01,.95c-.44,.23-.95,.34-1.54,.34-1.08,0-2.01-.39-2.77-1.17l.64-.69c.32,.29,.65,.5,.98,.66,.33,.15,.71,.23,1.11,.23,.51,0,.92-.15,1.23-.44,.31-.29,.46-.69,.46-1.2,0-.44-.12-.79-.37-1.05-.25-.26-.7-.5-1.36-.73-.84-.29-1.44-.64-1.81-1.03s-.55-.9-.55-1.52c0-.44,.11-.84,.33-1.2,.22-.36,.53-.64,.93-.84s.85-.3,1.35-.3c.53,0,.99,.09,1.38,.26Z"/><path class="g" d="M340.51,426.42c.39,.61,.59,1.5,.59,2.66s-.21,1.99-.64,2.63c-.43,.65-1.01,.97-1.75,.97-.35,0-.66-.08-.95-.24-.29-.16-.53-.39-.74-.68l-.08,.75h-1.04v-9.59l1.17-.13v3.72c.22-.31,.47-.56,.77-.73,.3-.18,.63-.27,1-.27,.72,0,1.28,.31,1.67,.92Zm-.63,2.66c0-.96-.12-1.64-.35-2.05-.23-.4-.57-.6-1-.6-.3,0-.57,.09-.8,.27-.23,.18-.45,.44-.66,.77v3.39c.17,.27,.37,.49,.6,.65,.23,.16,.49,.25,.77,.25,.96,0,1.44-.89,1.44-2.68Z"/><path class="g" d="M343.59,431.27c.15,.16,.23,.35,.23,.58s-.08,.42-.23,.58c-.15,.16-.35,.25-.59,.25s-.43-.08-.58-.25c-.15-.16-.23-.36-.23-.58s.08-.42,.23-.58c.15-.16,.35-.24,.58-.24s.44,.08,.59,.24Z"/><path class="g" d="M356.42,422.02v11.82h-1.09v-11.82h1.09Z"/><path class="g" d="M370.8,423.57l-2.47,8.94h-1.44l-2.51-8.94h1.25l2,7.77,1.98-7.77h1.2Z"/><path class="g" d="M373.09,422.67c.14,.15,.21,.33,.21,.55s-.07,.4-.21,.54-.33,.21-.56,.21-.41-.07-.55-.21c-.14-.14-.21-.32-.21-.54s.07-.4,.21-.55c.14-.15,.33-.22,.55-.22s.41,.07,.55,.22Zm.03,3v6.84h-1.17v-6.84h1.17Z"/><path class="g" d="M378.96,425.67v.87l-3.24,5h3.25l-.12,.96h-4.42v-.87l3.24-5h-2.96v-.96h4.25Z"/><path class="g" d="M384.95,432.51h-1.01l-.06-1.03c-.48,.8-1.11,1.2-1.91,1.2-.54,0-.97-.18-1.29-.53-.31-.36-.47-.84-.47-1.44v-5.03h1.17v4.93c0,.4,.08,.69,.23,.88,.15,.19,.38,.28,.68,.28,.58,0,1.08-.38,1.49-1.14v-4.94h1.17v6.84Z"/><path class="g" d="M391.44,431.57c.08,.13,.2,.24,.37,.31l-.25,.79c-.34-.05-.6-.16-.79-.31-.19-.16-.32-.39-.4-.72-.44,.69-1.06,1.04-1.86,1.04-.61,0-1.09-.19-1.44-.57s-.53-.88-.53-1.51c0-.73,.24-1.28,.72-1.66,.48-.38,1.16-.57,2.04-.57h.88v-.58c0-.48-.1-.82-.29-1.03-.19-.21-.51-.32-.96-.32-.48,0-1.03,.12-1.66,.36l-.29-.82c.76-.31,1.47-.47,2.13-.47,1.48,0,2.22,.74,2.22,2.22v3.22c0,.28,.04,.48,.12,.62Zm-1.27-.84v-1.61h-.75c-1.13,0-1.69,.47-1.69,1.42,0,.41,.09,.72,.27,.94,.18,.22,.44,.33,.78,.33,.61,0,1.07-.36,1.39-1.07Z"/><path class="g" d="M393.6,432.3c-.24-.25-.36-.6-.36-1.05v-8.35l1.17-.13v8.44c0,.34,.14,.51,.42,.51,.11,0,.24-.03,.38-.08l.26,.82c-.28,.15-.57,.22-.87,.22-.42,0-.75-.13-.99-.38Z"/><path class="g" d="M397.87,422.67c.14,.15,.21,.33,.21,.55s-.07,.4-.21,.54-.32,.21-.56,.21-.41-.07-.55-.21-.21-.32-.21-.54,.07-.4,.21-.55,.33-.22,.55-.22,.41,.07,.55,.22Zm.03,3v6.84h-1.17v-6.84h1.17Z"/><path class="g" d="M403.74,425.67v.87l-3.24,5h3.25l-.12,.96h-4.42v-.87l3.24-5h-2.96v-.96h4.25Z"/><path class="g" d="M409.37,431.57c.08,.13,.2,.24,.36,.31l-.25,.79c-.34-.05-.6-.16-.79-.31-.19-.16-.33-.39-.4-.72-.44,.69-1.06,1.04-1.86,1.04-.61,0-1.09-.19-1.44-.57s-.53-.88-.53-1.51c0-.73,.24-1.28,.71-1.66,.48-.38,1.16-.57,2.04-.57h.88v-.58c0-.48-.1-.82-.29-1.03-.2-.21-.51-.32-.96-.32-.48,0-1.03,.12-1.66,.36l-.29-.82c.76-.31,1.47-.47,2.13-.47,1.48,0,2.22,.74,2.22,2.22v3.22c0,.28,.04,.48,.12,.62Zm-1.27-.84v-1.61h-.75c-1.13,0-1.69,.47-1.69,1.42,0,.41,.09,.72,.27,.94,.18,.22,.44,.33,.78,.33,.61,0,1.07-.36,1.39-1.07Z"/><path class="g" d="M414.73,425.68c.3,.12,.59,.31,.87,.56l-.52,.7c-.21-.16-.42-.29-.62-.37-.21-.08-.43-.12-.68-.12-.51,0-.91,.22-1.19,.65-.28,.43-.42,1.11-.42,2.03,0,1.72,.54,2.57,1.61,2.57,.24,0,.46-.04,.66-.12,.2-.08,.41-.21,.64-.37l.55,.71c-.55,.5-1.18,.75-1.88,.75-.88,0-1.56-.3-2.06-.91-.5-.61-.75-1.48-.75-2.63,0-.75,.12-1.39,.34-1.94,.23-.55,.55-.97,.97-1.26,.42-.29,.91-.44,1.48-.44,.36,0,.7,.06,1,.18Z"/><path class="g" d="M421.44,429.49h-3.98c.04,.8,.2,1.37,.48,1.72,.29,.35,.68,.53,1.17,.53,.31,0,.59-.05,.84-.14,.25-.1,.5-.25,.77-.47l.52,.69c-.64,.57-1.37,.86-2.18,.86-.89,0-1.58-.31-2.07-.93-.49-.62-.73-1.49-.73-2.61s.23-2,.7-2.66c.47-.65,1.12-.98,1.95-.98s1.46,.29,1.9,.88,.66,1.42,.66,2.5c0,.18,0,.39-.03,.61Zm-1.11-.96c0-1.43-.47-2.15-1.42-2.15-.43,0-.78,.18-1.03,.54-.25,.36-.39,.94-.43,1.75h2.87v-.14Z"/><path class="g" d="M424,426.43c.15,.16,.23,.35,.23,.58s-.07,.42-.23,.58c-.15,.17-.35,.25-.59,.25s-.43-.08-.58-.25c-.15-.16-.23-.36-.23-.58s.08-.42,.23-.58c.15-.16,.34-.24,.58-.24s.44,.08,.59,.24Zm0,4.84c.15,.16,.23,.35,.23,.58s-.07,.42-.23,.58-.35,.25-.59,.25-.43-.08-.58-.25-.23-.36-.23-.58,.08-.42,.23-.58c.15-.16,.34-.24,.58-.24s.44,.08,.59,.24Z"/><path class="g" d="M430.04,422.67c.14,.15,.21,.33,.21,.55s-.07,.4-.21,.54-.32,.21-.56,.21-.41-.07-.55-.21-.21-.32-.21-.54,.07-.4,.21-.55,.33-.22,.55-.22,.41,.07,.55,.22Zm.03,3v6.84h-1.17v-6.84h1.17Z"/><path class="g" d="M436.63,432.51l-1.92-3.81h-1.26v3.81h-1.21v-8.94h2.09c2.13,0,3.2,.84,3.2,2.52,0,.59-.14,1.09-.43,1.5-.29,.41-.71,.71-1.26,.9l2.13,4.03h-1.34Zm-.82-5.14c.3-.27,.46-.7,.46-1.28,0-.55-.15-.95-.46-1.21-.31-.26-.81-.39-1.5-.39h-.86v3.29h.97c.62,0,1.09-.14,1.39-.41Z"/><path class="g" d="M444.69,424.57c.61,.78,.92,1.94,.92,3.46s-.3,2.65-.91,3.45c-.61,.8-1.45,1.2-2.52,1.2s-1.9-.39-2.52-1.18c-.61-.78-.92-1.94-.92-3.45,0-1,.14-1.84,.42-2.54,.28-.7,.68-1.22,1.2-1.58,.52-.35,1.12-.53,1.81-.53,1.07,0,1.9,.39,2.52,1.18Zm-4.67,3.48c0,2.44,.72,3.65,2.16,3.65,.71,0,1.25-.29,1.61-.87,.36-.58,.54-1.51,.54-2.8s-.18-2.21-.55-2.79c-.37-.59-.9-.88-1.61-.88-1.44,0-2.16,1.23-2.16,3.69Z"/><path class="g" d="M451.62,423.57v.96l-4.03,6.96h4.02l-.13,1.03h-5.21v-.96l4.06-6.98h-3.65v-1h4.95Z"/><path class="g" d="M457.64,432.51v-4.2h-3.25v4.2h-1.21v-8.94h1.21v3.76h3.25v-3.76h1.21v8.94h-1.21Z"/><path class="g" d="M462.26,423.57v7.92h3.26l-.13,1.03h-4.34v-8.94h1.21Z"/><path class="g" d="M471.21,432.51l-.6-2.27h-3l-.6,2.27h-1.21l2.59-8.94h1.48l2.59,8.94h-1.25Zm-3.36-3.22h2.51l-1.25-4.76-1.26,4.76Z"/><path class="g" d="M477.15,423.66c.39,.17,.76,.43,1.11,.78l-.61,.69c-.29-.26-.59-.45-.88-.58-.29-.13-.61-.19-.94-.19-.43,0-.78,.12-1.05,.36-.26,.24-.4,.55-.4,.94,0,.26,.05,.48,.16,.67,.11,.19,.28,.36,.53,.51,.25,.15,.61,.31,1.07,.46,.53,.19,.96,.39,1.3,.61,.34,.22,.6,.49,.78,.83s.27,.76,.27,1.27-.12,.97-.35,1.37-.57,.72-1.01,.95c-.44,.23-.95,.34-1.54,.34-1.08,0-2.01-.39-2.77-1.17l.64-.69c.32,.29,.65,.5,.98,.66,.33,.15,.71,.23,1.11,.23,.51,0,.92-.15,1.23-.44,.31-.29,.46-.69,.46-1.2,0-.44-.12-.79-.37-1.05-.25-.26-.7-.5-1.36-.73-.84-.29-1.44-.64-1.81-1.03s-.55-.9-.55-1.52c0-.44,.11-.84,.33-1.2,.22-.36,.53-.64,.93-.84s.85-.3,1.35-.3c.53,0,.99,.09,1.38,.26Z"/><path class="g" d="M480.95,431.27c.15,.16,.23,.35,.23,.58s-.08,.42-.23,.58c-.15,.16-.35,.25-.59,.25s-.43-.08-.58-.25c-.15-.16-.23-.36-.23-.58s.08-.42,.23-.58c.15-.16,.35-.24,.58-.24s.44,.08,.59,.24Z"/><path class="g" d="M486.05,425.68c.3,.12,.59,.31,.87,.56l-.52,.7c-.21-.16-.42-.29-.62-.37-.21-.08-.43-.12-.68-.12-.51,0-.91,.22-1.19,.65-.28,.43-.42,1.11-.42,2.03,0,1.72,.54,2.57,1.61,2.57,.24,0,.46-.04,.66-.12,.2-.08,.41-.21,.64-.37l.54,.71c-.55,.5-1.18,.75-1.88,.75-.88,0-1.56-.3-2.06-.91-.5-.61-.75-1.48-.75-2.63,0-.75,.12-1.39,.35-1.94,.23-.55,.55-.97,.97-1.26s.91-.44,1.47-.44c.37,0,.7,.06,1,.18Z"/><path class="g" d="M491.97,425.67v.87l-3.24,5h3.25l-.12,.96h-4.42v-.87l3.24-5h-2.96v-.96h4.25Z"/><path class="g" d="M494.24,431.26c.15,.16,.22,.35,.22,.57,0,.12-.02,.25-.06,.38-.04,.13-.1,.32-.19,.56l-.72,1.83h-.73l.48-2.07c-.25-.16-.38-.39-.38-.69,0-.23,.08-.43,.23-.58,.15-.16,.35-.23,.58-.23s.41,.08,.56,.23Z"/><path class="g" d="M500.4,423.57v8.94h-1.21v-8.94h1.21Zm4.39,0l-3.03,4.08,3.24,4.86h-1.39l-3.16-4.78,3.05-4.16h1.29Z"/><path class="g" d="M509.41,425.59l-.2,1.13c-.17-.05-.34-.08-.53-.08-.38,0-.69,.15-.93,.45-.24,.3-.43,.77-.57,1.39v4.02h-1.17v-6.84h1.02l.09,1.35c.34-1.01,.91-1.51,1.7-1.51,.22,0,.42,.03,.59,.08Z"/><path class="g" d="M511.69,422.67c.14,.15,.21,.33,.21,.55s-.07,.4-.21,.54-.33,.21-.56,.21-.41-.07-.55-.21c-.14-.14-.21-.32-.21-.54s.07-.4,.21-.55c.14-.15,.33-.22,.55-.22s.41,.07,.55,.22Zm.03,3v6.84h-1.17v-6.84h1.17Z"/><path class="g" d="M517.71,426.28l-.49,.69c-.28-.19-.54-.33-.78-.43-.24-.1-.5-.14-.77-.14-.36,0-.63,.08-.84,.25-.21,.17-.31,.4-.31,.7s.1,.51,.29,.68,.56,.33,1.11,.51c.68,.22,1.18,.48,1.49,.79,.31,.31,.47,.74,.47,1.29,0,.64-.23,1.15-.7,1.51-.47,.37-1.05,.55-1.76,.55-.93,0-1.71-.31-2.35-.92l.6-.65c.54,.44,1.12,.66,1.73,.66,.38,0,.69-.1,.92-.29,.23-.19,.35-.46,.35-.79,0-.24-.04-.44-.12-.58s-.23-.28-.44-.4c-.21-.12-.52-.24-.93-.37-.65-.22-1.12-.48-1.4-.78-.29-.3-.43-.69-.43-1.16,0-.36,.1-.69,.29-.98,.19-.29,.46-.51,.79-.68s.73-.25,1.17-.25c.79,0,1.49,.26,2.11,.78Z"/><path class="g" d="M522.62,432.21c-.43,.31-.91,.47-1.44,.47s-.98-.16-1.28-.48-.45-.77-.45-1.35v-4.29h-.98v-.88h.98v-1.57l1.17-.14v1.72h1.51l-.13,.88h-1.38v4.28c0,.59,.25,.88,.74,.88,.15,0,.28-.02,.41-.06,.12-.04,.27-.11,.42-.2l.43,.75Z"/><path class="g" d="M525.08,422.15l.49,.94-2.5,1.13-.34-.6,2.34-1.47Zm-.27,3.52v6.84h-1.17v-6.84h1.17Z"/><path class="g" d="M531.25,426.04c.31,.36,.46,.86,.46,1.49v4.98h-1.17v-4.84c0-.44-.07-.76-.22-.96-.15-.19-.37-.29-.68-.29-.57,0-1.09,.41-1.56,1.22v4.86h-1.17v-6.84h1.02l.09,1.01c.53-.79,1.18-1.18,1.95-1.18,.54,0,.97,.18,1.28,.54Z"/><path class="g" d="M538.14,431.57c.08,.13,.2,.24,.36,.31l-.25,.79c-.34-.05-.6-.16-.79-.31-.19-.16-.33-.39-.4-.72-.44,.69-1.06,1.04-1.86,1.04-.61,0-1.09-.19-1.44-.57s-.53-.88-.53-1.51c0-.73,.24-1.28,.71-1.66,.48-.38,1.16-.57,2.04-.57h.88v-.58c0-.48-.1-.82-.29-1.03-.2-.21-.51-.32-.96-.32-.48,0-1.03,.12-1.66,.36l-.29-.82c.76-.31,1.47-.47,2.13-.47,1.48,0,2.22,.74,2.22,2.22v3.22c0,.28,.04,.48,.12,.62Zm-1.27-.84v-1.61h-.75c-1.13,0-1.69,.47-1.69,1.42,0,.41,.09,.72,.27,.94,.18,.22,.44,.33,.78,.33,.61,0,1.07-.36,1.39-1.07Z"/><path class="g" d="M547.81,423.57v.96l-4.03,6.96h4.02l-.13,1.03h-5.21v-.96l4.05-6.98h-3.65v-1h4.95Z"/><path class="g" d="M553.51,431.57c.08,.13,.2,.24,.36,.31l-.25,.79c-.34-.05-.6-.16-.79-.31-.19-.16-.33-.39-.4-.72-.44,.69-1.06,1.04-1.86,1.04-.61,0-1.09-.19-1.44-.57s-.53-.88-.53-1.51c0-.73,.24-1.28,.71-1.66,.48-.38,1.16-.57,2.04-.57h.88v-.58c0-.48-.1-.82-.29-1.03-.2-.21-.51-.32-.96-.32-.48,0-1.03,.12-1.66,.36l-.29-.82c.76-.31,1.47-.47,2.13-.47,1.48,0,2.22,.74,2.22,2.22v3.22c0,.28,.04,.48,.12,.62Zm-1.49-9.42l.49,.94-2.5,1.13-.34-.6,2.34-1.47Zm.22,8.58v-1.61h-.75c-1.13,0-1.69,.47-1.69,1.42,0,.41,.09,.72,.27,.94,.18,.22,.44,.33,.78,.33,.61,0,1.07-.36,1.39-1.07Z"/><path class="g" d="M556.67,422.77v9.74h-1.17v-9.61l1.17-.13Zm3.6,2.9l-2.31,3.04,2.54,3.8h-1.3l-2.46-3.74,2.31-3.09h1.22Z"/><path class="g" d="M565.86,426.43c.49,.62,.73,1.5,.73,2.65s-.25,1.99-.74,2.63-1.18,.97-2.04,.97-1.56-.32-2.05-.95c-.49-.63-.73-1.51-.73-2.64s.25-2.02,.74-2.65,1.18-.94,2.05-.94,1.56,.31,2.04,.92Zm-3.21,.66c-.27,.43-.4,1.1-.4,2.01,0,1.78,.52,2.67,1.56,2.67s1.56-.89,1.56-2.68c0-.91-.13-1.58-.39-2-.26-.42-.65-.64-1.16-.64s-.9,.21-1.17,.64Z"/><path class="g" d="M572.91,426.43c.38,.62,.57,1.5,.57,2.64s-.21,1.99-.63,2.64c-.42,.65-1.01,.98-1.76,.98-.68,0-1.22-.27-1.64-.82v3.25l-1.17,.14v-9.58h1.03l.06,.92c.47-.73,1.09-1.09,1.86-1.09s1.31,.31,1.68,.92Zm-.66,2.65c0-.93-.11-1.6-.33-2.02-.22-.42-.56-.63-1.01-.63-.3,0-.57,.09-.81,.27s-.46,.43-.66,.74v3.46c.36,.56,.81,.84,1.37,.84,.96,0,1.44-.89,1.44-2.67Z"/><path class="g" d="M578.57,425.68c.3,.12,.59,.31,.87,.56l-.52,.7c-.21-.16-.42-.29-.62-.37-.21-.08-.43-.12-.68-.12-.51,0-.91,.22-1.19,.65-.28,.43-.42,1.11-.42,2.03,0,1.72,.54,2.57,1.61,2.57,.24,0,.46-.04,.66-.12,.2-.08,.41-.21,.64-.37l.54,.71c-.55,.5-1.18,.75-1.88,.75-.88,0-1.56-.3-2.06-.91-.5-.61-.75-1.48-.75-2.63,0-.75,.12-1.39,.35-1.94,.23-.55,.55-.97,.97-1.26s.91-.44,1.47-.44c.37,0,.7,.06,1,.18Zm.47-3.35l.46,.52-1.57,1.51h-.73l-1.57-1.51,.46-.52,1.48,1.14,1.48-1.14Z"/><path class="g" d="M585.01,431.57c.08,.13,.2,.24,.37,.31l-.25,.79c-.34-.05-.6-.16-.79-.31-.19-.16-.32-.39-.4-.72-.44,.69-1.06,1.04-1.86,1.04-.61,0-1.09-.19-1.44-.57s-.53-.88-.53-1.51c0-.73,.24-1.28,.72-1.66,.48-.38,1.16-.57,2.04-.57h.88v-.58c0-.48-.1-.82-.29-1.03-.19-.21-.51-.32-.96-.32-.48,0-1.03,.12-1.66,.36l-.29-.82c.76-.31,1.47-.47,2.13-.47,1.48,0,2.22,.74,2.22,2.22v3.22c0,.28,.04,.48,.12,.62Zm-1.27-.84v-1.61h-.75c-1.13,0-1.69,.47-1.69,1.42,0,.41,.09,.72,.27,.94,.18,.22,.44,.33,.78,.33,.61,0,1.07-.36,1.39-1.07Z"/><path class="g" d="M591.33,426.04c.31,.36,.46,.86,.46,1.49v4.98h-1.17v-4.84c0-.44-.07-.76-.22-.96-.15-.19-.37-.29-.68-.29-.57,0-1.09,.41-1.56,1.22v4.86h-1.17v-6.84h1.01l.09,1.01c.53-.79,1.18-1.18,1.95-1.18,.55,0,.97,.18,1.28,.54Z"/><path class="g" d="M598.27,426.43c.49,.62,.73,1.5,.73,2.65s-.25,1.99-.74,2.63-1.18,.97-2.04,.97-1.56-.32-2.05-.95c-.49-.63-.73-1.51-.73-2.64s.25-2.02,.74-2.65,1.18-.94,2.05-.94,1.56,.31,2.04,.92Zm-3.21,.66c-.27,.43-.4,1.1-.4,2.01,0,1.78,.52,2.67,1.56,2.67s1.56-.89,1.56-2.68c0-.91-.13-1.58-.39-2-.26-.42-.65-.64-1.16-.64s-.9,.21-1.17,.64Z"/><path class="g" d="M605.25,425.67l-2.04,6.84h-1.4l-2.11-6.84h1.22l1.59,5.85,1.57-5.85h1.17Z"/><path class="g" d="M610.62,431.57c.08,.13,.2,.24,.37,.31l-.25,.79c-.34-.05-.6-.16-.79-.31-.19-.16-.32-.39-.4-.72-.44,.69-1.06,1.04-1.86,1.04-.61,0-1.09-.19-1.44-.57s-.53-.88-.53-1.51c0-.73,.24-1.28,.72-1.66,.48-.38,1.16-.57,2.04-.57h.88v-.58c0-.48-.1-.82-.29-1.03-.19-.21-.51-.32-.96-.32-.48,0-1.03,.12-1.66,.36l-.29-.82c.76-.31,1.47-.47,2.13-.47,1.48,0,2.22,.74,2.22,2.22v3.22c0,.28,.04,.48,.12,.62Zm-1.49-9.42l.49,.94-2.5,1.13-.34-.6,2.34-1.47Zm.22,8.58v-1.61h-.75c-1.13,0-1.69,.47-1.69,1.42,0,.41,.09,.72,.27,.94,.18,.22,.44,.33,.78,.33,.61,0,1.07-.36,1.39-1.07Z"/></g></svg>